<?xml version="1.0" encoding="utf-8"?>
<!-- Generator: Adobe Illustrator 24.3.0, SVG Export Plug-In . SVG Version: 6.00 Build 0)  -->
<svg version="1.1" id="Слой_1" xmlns="http://www.w3.org/2000/svg" xmlns:xlink="http://www.w3.org/1999/xlink" x="0px" y="0px"
	 viewBox="0 0 2401 1371" style="enable-background:new 0 0 2401 1371;" xml:space="preserve">
<style type="text/css">
	.st0{fill:#FFFFFF;}
</style>
<path id="A" class="st0" d="M668.66,372.55h-220c-41.97,0-76,34.03-76,76v296h79.26V623.81h210v120.74h82.74v-296
	C744.66,406.58,710.63,372.55,668.66,372.55z M662.51,542.96h-209v-89h209V542.96z"/>
<path id="G" class="st0" d="M1092.95,483.52v-30.16h-210v210h210v-55.97h-80.48v-80.51h162.09v141.53c0,41.98-34.02,76-76,76h-220
	c-41.97,0-76-34.02-76-76v-220c0-41.97,34.03-76,76-76h220c41.98,0,76,34.03,76,76v35.11H1092.95z"/>
<path id="O" class="st0" d="M1525.85,372.39h-220c-41.97,0-76,34.03-76,76v220c0,41.98,34.03,76,76,76h220c41.98,0,76-34.02,76-76
	v-220C1601.85,406.42,1567.83,372.39,1525.85,372.39z M1520.45,662.86h-210v-210h210V662.86z"/>
<polygon id="N" class="st0" points="2029.45,371.86 2029.45,743.86 1946,743.86 1946,743.63 1738.87,496.77 1738.44,742.67 
	1738.44,743.86 1657.45,743.86 1657.45,371.86 1740.65,371.86 1741.1,372.39 1948.21,618.36 1948.21,371.86 "/>
<g id="BY_AOC">
	<path id="O_1_" class="st0" d="M1788.48,998.56c46.81,0,79.76-10.15,79.76-62.42v-47.68c0-51.73-32.95-61.89-79.76-61.89
		c-46.27,0-79.18,10.16-79.18,61.89v47.68C1709.3,988.41,1742.21,998.56,1788.48,998.56 M1788.48,958.97
		c-23.64,0-31.36-2.54-31.89-27.38v-38.07c0.53-25.35,8.25-27.9,31.89-27.9c24.2,0,32.41,2.55,32.41,27.9v38.07
		C1820.88,956.44,1812.68,958.97,1788.48,958.97"/>
	<path id="C" class="st0" d="M2032.85,933.1v5.07c0,18.29-0.5,35.01-15.86,47.68c-15.37,12.71-34.25,12.71-54.2,12.71
		c-45.99,0-79.73-2.53-79.73-64.45v-43.62c0-55.82,30.17-63.94,79.73-63.94c47.07,0,69.02,4.58,69.56,55.31v6.59h-46.56v-6.59
		c-1.5-14.71-12.26-16.23-27.57-16.23c-26.08,0-28.64,8.1-28.64,31.97v26.88c0,24.86,1.04,34.5,28.64,34.5
		c18.93,0,27.57-1.01,27.57-20.8v-5.07H2032.85z"/>
	<path id="A_1_" class="st0" d="M1570.31,998.56l49.48-108.99c8.18-17.57,12.78-23.25,30.1-23.25v48.06v40.28v43.9h45.45v-172
		h-51.09c-42.33,0-50.47,18.05-70.91,63.01l-50,108.99H1570.31z"/>
	<polygon id="y" class="st0" points="1478.01,885.2 1426.92,954.88 1426.92,998.55 1404.21,998.55 1404.21,955.39 1352.08,885.2 
		1378.33,885.2 1415.05,930.62 1451.1,885.2 	"/>
	<path id="b" class="st0" d="M1342,936.91c1.16-2.87,1.79-6.01,1.79-9.29V905.2c0-10.03-7.38-18.33-17-19.78
		c-0.98-0.14-1.98-0.22-3-0.22h-88.36v113.35h87.52c1.3,0,2.59-0.1,3.84-0.3c11.99-1.84,21.16-12.2,21.16-24.7v-22.42
		C1347.95,945.56,1345.68,940.53,1342,936.91z M1258.4,908.17h61.16v20.38h-61.16V908.17z M1325.29,974.49h-66.89v-22.97h66.89
		V974.49z"/>
</g>
</svg>
