<?xml version="1.0" encoding="utf-8"?>
<!-- Generator: Adobe Illustrator 24.3.0, SVG Export Plug-In . SVG Version: 6.00 Build 0)  -->
<svg version="1.1" xmlns="http://www.w3.org/2000/svg" xmlns:xlink="http://www.w3.org/1999/xlink" x="0px" y="0px"
	 viewBox="0 0 1920 1080" style="enable-background:new 0 0 1920 1080;" xml:space="preserve">
<g id="AGON">
	<path id="A" d="M424.71,230.19h-220c-41.97,0-76,34.03-76,76v296h79.26V481.45h210v120.74h82.74v-296
		C500.71,264.22,466.68,230.19,424.71,230.19z M418.56,400.6h-209v-89h209V400.6z">
	<path id="G" d="M849,341.16V311H639v210h210v-55.97h-80.48v-80.51h162.09v141.53c0,41.98-34.02,76-76,76h-220
		c-41.97,0-76-34.02-76-76v-220c0-41.97,34.03-76,76-76h220c41.98,0,76,34.03,76,76v35.11H849z"/>
	<path id="O" d="M1281.9,230.03h-220c-41.97,0-76,34.03-76,76v220c0,41.98,34.03,76,76,76h220c41.98,0,76-34.02,76-76v-220
		C1357.9,264.06,1323.88,230.03,1281.9,230.03z M1276.5,520.5h-210v-210h210V520.5z"/>
	<polygon id="N" points="1785.5,229.5 1785.5,601.5 1702.05,601.5 1702.05,601.27 1494.92,354.41 1494.49,600.31 1494.49,601.5 
		1413.5,601.5 1413.5,229.5 1496.7,229.5 1497.15,230.03 1704.26,476 1704.26,229.5 	"/>
	<g id="BY_AOC">
		<path id="O_1_" d="M1544.53,856.19c46.81,0,79.76-10.15,79.76-62.42v-47.68c0-51.73-32.95-61.89-79.76-61.89
			c-46.27,0-79.18,10.16-79.18,61.89v47.68C1465.35,846.04,1498.26,856.19,1544.53,856.19 M1544.53,816.61
			c-23.64,0-31.36-2.54-31.89-27.38v-38.07c0.53-25.35,8.25-27.9,31.89-27.9c24.2,0,32.41,2.55,32.41,27.9v38.07
			C1576.93,814.08,1568.73,816.61,1544.53,816.61"/>
		<path id="C" d="M1788.9,790.74v5.07c0,18.29-0.5,35.01-15.86,47.68c-15.37,12.71-34.25,12.71-54.2,12.71
			c-45.99,0-79.73-2.53-79.73-64.45v-43.62c0-55.82,30.17-63.94,79.73-63.94c47.07,0,69.02,4.58,69.56,55.31v6.59h-46.56v-6.59
			c-1.5-14.71-12.26-16.23-27.57-16.23c-26.08,0-28.64,8.1-28.64,31.97v26.88c0,24.86,1.04,34.5,28.64,34.5
			c18.93,0,27.57-1.01,27.57-20.8v-5.07H1788.9z"/>
		<path id="A_1_" d="M1326.36,856.19l49.48-108.99c8.18-17.57,12.78-23.25,30.1-23.25v48.06v40.28v43.9h45.45v-172h-51.09
			c-42.33,0-50.47,18.05-70.91,63.01l-50,108.99H1326.36z"/>
		<polygon id="y" points="1234.06,742.84 1182.97,812.52 1182.97,856.19 1160.26,856.19 1160.26,813.03 1108.13,742.84 
			1134.38,742.84 1171.1,788.26 1207.15,742.84 		"/>
		<path id="b" d="M1098.05,794.55c1.16-2.87,1.79-6.01,1.79-9.29v-22.42c0-10.03-7.38-18.33-17-19.78c-0.98-0.14-1.98-0.22-3-0.22
			h-88.36v113.35H1079c1.3,0,2.59-0.1,3.84-0.3c11.99-1.84,21.16-12.2,21.16-24.7v-22.42C1104,803.2,1101.73,798.17,1098.05,794.55z
			 M1014.45,765.81h61.16v20.38h-61.16V765.81z M1081.34,832.13h-66.89v-22.97h66.89V832.13z"/>
	</g>
</g>
<g id="Слой_2">
</g>
</svg>
