<?xml version="1.0" encoding="utf-8"?>
<!-- Generator: Adobe Illustrator 24.3.0, SVG Export Plug-In . SVG Version: 6.00 Build 0)  -->
<svg version="1.1" id="Слой_1" xmlns="http://www.w3.org/2000/svg" xmlns:xlink="http://www.w3.org/1999/xlink" x="0px" y="0px"
	 viewBox="0 0 2401 1542" style="enable-background:new 0 0 2401 1542;" xml:space="preserve">
<style type="text/css">
	.st0{fill:#FFFFFF;}
	.st1{fill:#EFEFEF;}
</style>
<path id="A" class="st0" d="M668.66,372.55h-220c-41.97,0-76,34.03-76,76v296h79.26V623.81h210v120.74h82.74v-296
	C744.66,406.58,710.63,372.55,668.66,372.55z M662.51,542.96h-209v-89h209V542.96z"/>
<path id="G" class="st0" d="M1092.95,483.52v-30.16h-210v210h210v-55.97h-80.48v-80.51h162.09v141.53c0,41.98-34.02,76-76,76h-220
	c-41.97,0-76-34.02-76-76v-220c0-41.97,34.03-76,76-76h220c41.98,0,76,34.03,76,76v35.11H1092.95z"/>
<path id="O" class="st0" d="M1525.85,372.39h-220c-41.97,0-76,34.03-76,76v220c0,41.98,34.03,76,76,76h220c41.98,0,76-34.02,76-76
	v-220C1601.85,406.42,1567.83,372.39,1525.85,372.39z M1520.45,662.86h-210v-210h210V662.86z"/>
<polygon id="N" class="st0" points="2029.45,371.86 2029.45,743.86 1946,743.86 1946,743.63 1738.87,496.77 1738.44,742.67 
	1738.44,743.86 1657.45,743.86 1657.45,371.86 1740.65,371.86 1741.1,372.39 1948.21,618.36 1948.21,371.86 "/>
<g id="BY_AOC">
	<path id="O_1_" class="st0" d="M1788.48,998.56c46.81,0,79.76-10.15,79.76-62.42v-47.68c0-51.73-32.95-61.89-79.76-61.89
		c-46.27,0-79.18,10.16-79.18,61.89v47.68C1709.3,988.41,1742.21,998.56,1788.48,998.56 M1788.48,958.97
		c-23.64,0-31.36-2.54-31.89-27.38v-38.07c0.53-25.35,8.25-27.9,31.89-27.9c24.2,0,32.41,2.55,32.41,27.9v38.07
		C1820.88,956.44,1812.68,958.97,1788.48,958.97"/>
	<path id="C" class="st0" d="M2032.85,933.1v5.07c0,18.29-0.5,35.01-15.86,47.68c-15.37,12.71-34.25,12.71-54.2,12.71
		c-45.99,0-79.73-2.53-79.73-64.45v-43.62c0-55.82,30.17-63.94,79.73-63.94c47.07,0,69.02,4.58,69.56,55.31v6.59h-46.56v-6.59
		c-1.5-14.71-12.26-16.23-27.57-16.23c-26.08,0-28.64,8.1-28.64,31.97v26.88c0,24.86,1.04,34.5,28.64,34.5
		c18.93,0,27.57-1.01,27.57-20.8v-5.07H2032.85z"/>
	<path id="A_1_" class="st0" d="M1570.31,998.56l49.48-108.99c8.18-17.57,12.78-23.25,30.1-23.25v48.06v40.28v43.9h45.45v-172
		h-51.09c-42.33,0-50.47,18.05-70.91,63.01l-50,108.99H1570.31z"/>
	<polygon id="y" class="st0" points="1478.01,885.2 1426.92,954.88 1426.92,998.55 1404.21,998.55 1404.21,955.39 1352.08,885.2 
		1378.33,885.2 1415.05,930.62 1451.1,885.2 	"/>
	<path id="b" class="st0" d="M1342,936.91c1.16-2.87,1.79-6.01,1.79-9.29V905.2c0-10.03-7.38-18.33-17-19.78
		c-0.98-0.14-1.98-0.22-3-0.22h-88.36v113.35h87.52c1.3,0,2.59-0.1,3.84-0.3c11.99-1.84,21.16-12.2,21.16-24.7v-22.42
		C1347.95,945.56,1345.68,940.53,1342,936.91z M1258.4,908.17h61.16v20.38h-61.16V908.17z M1325.29,974.49h-66.89v-22.97h66.89
		V974.49z"/>
</g>
<g>
	<path class="st1" d="M404.57,1170.71c-4.32,0-8.33-0.7-12.05-2.11c-3.72-1.4-6.93-3.39-9.63-5.97c-2.7-2.57-4.82-5.59-6.36-9.05
		c-1.53-3.46-2.3-7.24-2.3-11.35c0-4.06,0.77-7.8,2.3-11.23c1.53-3.43,3.65-6.43,6.36-9.01c2.7-2.57,5.9-4.56,9.59-5.97
		c3.69-1.4,7.72-2.11,12.09-2.11c4.37,0,8.4,0.7,12.09,2.11c3.69,1.4,6.89,3.38,9.59,5.93c2.7,2.55,4.82,5.54,6.36,8.97
		c1.53,3.43,2.3,7.2,2.3,11.31c0,4.16-0.75,7.97-2.26,11.43c-1.51,3.46-3.63,6.46-6.36,9.01c-2.73,2.55-5.94,4.52-9.63,5.93
		C412.96,1170,408.93,1170.71,404.57,1170.71z M404.57,1157.91c2.08,0,4.02-0.36,5.81-1.09c1.79-0.73,3.35-1.78,4.68-3.16
		c1.33-1.38,2.37-3.01,3.12-4.91c0.75-1.9,1.13-4.04,1.13-6.43c0-2.39-0.38-4.54-1.13-6.44c-0.75-1.9-1.79-3.54-3.12-4.91
		c-1.33-1.38-2.89-2.43-4.68-3.16c-1.79-0.73-3.73-1.09-5.81-1.09c-2.08,0-4.02,0.37-5.81,1.09c-1.79,0.73-3.37,1.78-4.72,3.16
		c-1.35,1.38-2.39,3.02-3.12,4.91c-0.73,1.9-1.09,4.04-1.09,6.44c0,2.39,0.36,4.54,1.09,6.43c0.73,1.9,1.77,3.54,3.12,4.91
		c1.35,1.38,2.92,2.43,4.72,3.16C400.55,1157.55,402.49,1157.91,404.57,1157.91z"/>
	<path class="st1" d="M473.13,1166.34c-7.28,0-13.43-0.94-18.45-2.81c-5.02-1.87-8.81-4.6-11.39-8.19
		c-2.57-3.59-3.86-7.98-3.86-13.18c0-5.2,1.29-9.61,3.86-13.22c2.57-3.61,6.38-6.34,11.43-8.19c5.04-1.84,11.18-2.77,18.41-2.77
		c0.16,0,0.55,0,1.17,0s1.23,0,1.83,0c0.6,0,0.92,0,0.98,0c7.23,0,13.31,0.94,18.25,2.81c4.94,1.87,8.67,4.6,11.19,8.19
		c2.52,3.59,3.78,7.98,3.78,13.18c0,5.1-1.24,9.45-3.71,13.07c-2.47,3.61-6.12,6.37-10.96,8.27c-4.84,1.9-10.79,2.85-17.86,2.85
		c-0.1,0-0.52,0-1.25,0c-0.73,0-1.43,0-2.11,0C473.78,1166.34,473.34,1166.34,473.13,1166.34z M474.61,1154.56c0.1,0,0.34,0,0.7,0
		c0.36,0,0.6,0,0.7,0c4.52,0,8.2-0.46,11.04-1.37c2.83-0.91,4.93-2.27,6.28-4.09c1.35-1.82,2.03-4.19,2.03-7.1
		c0-2.81-0.7-5.12-2.11-6.94c-1.4-1.82-3.52-3.15-6.36-3.98c-2.83-0.83-6.41-1.25-10.73-1.25c-0.16,0-0.4,0-0.74,0
		c-0.34,0-0.61,0-0.82,0c-4.78,0-8.65,0.4-11.58,1.21c-2.94,0.81-5.11,2.12-6.51,3.94c-1.4,1.82-2.11,4.21-2.11,7.18
		c0,2.86,0.77,5.21,2.3,7.06c1.53,1.85,3.8,3.2,6.79,4.06C466.48,1154.13,470.19,1154.56,474.61,1154.56z M467.82,1172.19v-59.67
		h14.2v59.67H467.82z"/>
	<path class="st1" d="M518.37,1169.61v-54.6h15.21v32.06l22.54-32.06h14.51v54.6h-15.21v-32.06l-22.46,32.06H518.37z"/>
	<path class="st1" d="M582.33,1169.61v-54.6h15.21v42.35h20.98v-42.35h15.21v54.6H582.33z M627.02,1180.77v-14.59l3.28,3.43h-11.78
		v-12.25h22.78v23.4H627.02z"/>
	<path class="st1" d="M648.55,1169.61v-54.6h15.21v32.06l22.54-32.06h14.51v54.6H685.6v-32.06l-22.46,32.06H648.55z"/>
	<path class="st1" d="M707.13,1169.61l24.1-54.6h15.21l24.18,54.6h-16.07l-18.88-47.03h6.08l-18.88,47.03H707.13z M720.31,1158.93
		l3.98-11.31h26.68l3.98,11.31H720.31z"/>
	<path class="st1" d="M779.59,1170.55c-1.09,0-2.21-0.08-3.35-0.23c-1.14-0.16-2.37-0.39-3.67-0.7l0.78-12.64
		c0.78,0.16,1.51,0.23,2.18,0.23c2.13,0,3.73-0.84,4.8-2.53c1.06-1.69,1.82-4.07,2.26-7.14c0.44-3.07,0.74-6.68,0.9-10.84
		l0.78-21.68h43.99v54.6h-15.21v-45.71l3.43,3.35h-22.15l3.12-3.59l-0.39,12.56c-0.21,5.25-0.58,10-1.13,14.23
		c-0.55,4.24-1.44,7.85-2.69,10.84c-1.25,2.99-2.98,5.28-5.19,6.86C785.84,1169.76,783.02,1170.55,779.59,1170.55z"/>
	<path class="st1" d="M867.88,1132.41c6.6,0,11.74,1.47,15.41,4.41c3.67,2.94,5.5,7.4,5.5,13.38c0,6.4-2.06,11.23-6.16,14.51
		c-4.11,3.28-9.75,4.91-16.93,4.91h-25.74v-54.6h15.21v17.39H867.88z M864.84,1158.54c2.55,0,4.59-0.7,6.12-2.11
		c1.53-1.4,2.3-3.41,2.3-6.01c0-2.55-0.77-4.34-2.3-5.38c-1.53-1.04-3.58-1.56-6.12-1.56h-9.67v15.05H864.84z"/>
	<path class="st1" d="M912.11,1169.61h-15.44v-54.6h15.44V1169.61z M934.18,1148.32h-23.24v-12.79h23.24V1148.32z M933.09,1115.01
		h15.44v54.6h-15.44V1115.01z"/>
	<path class="st1" d="M988.16,1132.41c6.6,0,11.74,1.47,15.41,4.41c3.67,2.94,5.5,7.4,5.5,13.38c0,6.4-2.06,11.23-6.16,14.51
		c-4.11,3.28-9.75,4.91-16.93,4.91h-25.74v-54.6h15.21v17.39H988.16z M985.12,1158.54c2.55,0,4.59-0.7,6.12-2.11
		c1.53-1.4,2.3-3.41,2.3-6.01c0-2.55-0.77-4.34-2.3-5.38c-1.53-1.04-3.58-1.56-6.12-1.56h-9.67v15.05H985.12z M1015.07,1169.61
		v-54.6h15.21v54.6H1015.07z"/>
	<path class="st1" d="M1042.06,1169.61v-54.6h15.21v32.06l22.54-32.06h14.51v54.6h-15.21v-32.06l-22.46,32.06H1042.06z
		 M1068.11,1111.66c-5.62,0-9.67-1.09-12.17-3.28c-2.5-2.18-3.77-5.3-3.82-9.36h10.37c0,1.82,0.45,3.17,1.36,4.06
		c0.91,0.88,2.33,1.33,4.25,1.33c1.98,0,3.43-0.44,4.37-1.33c0.94-0.88,1.4-2.24,1.4-4.06h10.37c0,4.06-1.27,7.18-3.82,9.36
		C1077.88,1110.57,1073.77,1111.66,1068.11,1111.66z"/>
	<path class="st1" d="M1128.71,1169.61v-54.6h15.21v32.06l22.54-32.06h14.51v54.6h-15.21v-32.06l-22.46,32.06H1128.71z"/>
	<path class="st1" d="M1208.19,1169.61h-15.44v-54.6h15.44V1169.61z M1230.27,1148.32h-23.24v-12.79h23.24V1148.32z
		 M1229.17,1115.01h15.44v54.6h-15.44V1115.01z"/>
	<path class="st1" d="M1268.41,1169.61v-45.79l3.43,3.43h-20.12v-12.25h48.67v12.25h-20.2l3.43-3.43v45.79H1268.41z"/>
	<path class="st1" d="M1322.7,1157.6h28.55v12.01h-43.76v-54.6h42.74v12.01h-27.53V1157.6z M1321.6,1136.15h25.35v11.47h-25.35
		V1136.15z"/>
	<path class="st1" d="M1360.14,1169.61v-54.6h24.88c4.99,0,9.31,0.81,12.95,2.42c3.64,1.61,6.44,3.94,8.39,6.98
		c1.95,3.04,2.92,6.62,2.92,10.73c0,4.21-0.98,7.81-2.92,10.8c-1.95,2.99-4.75,5.3-8.39,6.94c-3.64,1.64-7.96,2.46-12.95,2.46
		h-16.38l6.94-6.79v21.06H1360.14z M1375.58,1150.35l-6.94-7.25h15.44c3.22,0,5.64-0.69,7.25-2.07c1.61-1.38,2.42-3.34,2.42-5.89
		c0-2.44-0.81-4.38-2.42-5.81c-1.61-1.43-4.03-2.14-7.25-2.14h-15.44l6.94-7.1V1150.35z"/>
	<path class="st1" d="M1431.74,1169.61h-15.44v-54.6h15.44V1169.61z M1453.81,1148.32h-23.24v-12.79h23.24V1148.32z
		 M1452.72,1115.01h15.44v54.6h-15.44V1115.01z"/>
	<path class="st1" d="M1495.15,1157.6h28.55v12.01h-43.76v-54.6h42.74v12.01h-27.53V1157.6z M1494.06,1136.15h25.35v11.47h-25.35
		V1136.15z"/>
	<path class="st1" d="M1544.6,1169.61v-45.79l3.43,3.43h-20.12v-12.25h48.67v12.25h-20.2l3.43-3.43v45.79H1544.6z"/>
	<path class="st1" d="M1580.8,1147.62v-11.47h22.78v11.47H1580.8z"/>
	<path class="st1" d="M1613.95,1169.61v-54.6h12.71l22.62,37.13h-6.71l22-37.13h12.71l0.16,54.6h-14.27l-0.08-32.99h2.42
		l-16.46,27.61h-6.86l-16.93-27.61h2.96v32.99H1613.95z"/>
	<path class="st1" d="M1683.68,1169.61l24.1-54.6h15.21l24.18,54.6h-16.07l-18.88-47.03h6.08l-18.88,47.03H1683.68z
		 M1696.86,1158.93l3.98-11.31h26.68l3.98,11.31H1696.86z"/>
	<path class="st1" d="M1753.33,1169.61v-54.6h40.01l-0.08,12.25h-28.08l3.28-3.43l0.08,45.79H1753.33z"/>
	<path class="st1" d="M1784.14,1169.61l24.1-54.6h15.21l24.18,54.6h-16.07l-18.88-47.03h6.08l-18.88,47.03H1784.14z
		 M1797.32,1158.93l3.98-11.31h26.68l3.98,11.31H1797.32z"/>
	<path class="st1" d="M1849.35,1165.4l4.68-10.84c2.34,1.2,4.78,2.11,7.33,2.73c2.55,0.62,5.02,1,7.41,1.13
		c2.39,0.13,4.56-0.04,6.51-0.51c1.95-0.47,3.5-1.17,4.64-2.11c1.14-0.94,1.72-2.16,1.72-3.67c0-1.66-0.69-2.86-2.07-3.59
		c-1.38-0.73-3.16-1.09-5.34-1.09h-14.04V1136h12.71c2.13,0,3.74-0.42,4.84-1.25c1.09-0.83,1.64-1.92,1.64-3.28
		c0-1.35-0.48-2.43-1.44-3.24c-0.96-0.81-2.28-1.39-3.94-1.75c-1.66-0.36-3.55-0.48-5.65-0.35c-2.11,0.13-4.26,0.52-6.47,1.17
		c-2.21,0.65-4.33,1.5-6.36,2.54l-4.6-11.54c3.69-1.77,7.57-2.99,11.62-3.67c4.06-0.67,8.01-0.83,11.86-0.47
		c3.85,0.36,7.32,1.21,10.41,2.54c3.09,1.33,5.58,3.08,7.45,5.26c1.87,2.18,2.81,4.76,2.81,7.72c0,2.6-0.69,4.91-2.07,6.94
		c-1.38,2.03-3.29,3.6-5.73,4.72c-2.44,1.12-5.2,1.68-8.27,1.68l0.39-3.2c3.59,0,6.72,0.62,9.4,1.87c2.68,1.25,4.76,2.95,6.24,5.11
		c1.48,2.16,2.22,4.64,2.22,7.45c0,2.65-0.7,5.01-2.11,7.06c-1.4,2.05-3.31,3.78-5.73,5.19s-5.21,2.47-8.39,3.2
		c-3.17,0.73-6.54,1.05-10.1,0.97c-3.56-0.08-7.18-0.53-10.84-1.36C1856.41,1168.47,1852.83,1167.17,1849.35,1165.4z"/>
	<path class="st1" d="M1905.58,1169.61v-54.6h15.21v32.06l22.54-32.06h14.51v54.6h-15.21v-32.06l-22.46,32.06H1905.58z"/>
	<path class="st1" d="M1985.07,1169.61h-15.44v-54.6h15.44V1169.61z M2007.14,1148.32h-23.24v-12.79h23.24V1148.32z
		 M2006.05,1115.01h15.44v54.6h-15.44V1115.01z"/>
</g>
</svg>
