<svg class="hidden" id="Layer_1" version="1.1" viewBox="0 0 64 64" x="0px"
	 xmlns="http://www.w3.org/2000/svg" xmlns:xlink="http://www.w3.org/1999/xlink" y="0px">
	<symbol id="logo" viewBox="0 0 4975 1371">
		<path id="A" fill="#ffffff" d="M667.66,372.55h-220c-41.97,0-76,34.03-76,76v296h79.26V623.81h210v120.74h82.74v-296
	C743.66,406.58,709.63,372.55,667.66,372.55z M661.51,542.96h-209v-89h209V542.96z"/>
		<path id="G" fill="#ffffff" d="M1091.95,483.52v-30.16h-210v210h210v-55.97h-80.48v-80.51h162.09v141.53c0,41.98-34.02,76-76,76h-220
	c-41.97,0-76-34.02-76-76v-220c0-41.97,34.03-76,76-76h220c41.98,0,76,34.03,76,76v35.11H1091.95z"/>
		<path id="O" fill="#ffffff" d="M1524.85,372.39h-220c-41.97,0-76,34.03-76,76v220c0,41.98,34.03,76,76,76h220c41.98,0,76-34.02,76-76
	v-220C1600.85,406.42,1566.83,372.39,1524.85,372.39z M1519.45,662.86h-210v-210h210V662.86z"/>
		<polygon id="N" fill="#ffffff" points="2028.45,371.86 2028.45,743.86 1945,743.86 1945,743.63 1737.87,496.77 1737.44,742.67
	1737.44,743.86 1656.45,743.86 1656.45,371.86 1739.65,371.86 1740.1,372.39 1947.21,618.36 1947.21,371.86 "/>
		<g id="BY_AOC">
			<path id="O_1_" fill="#ffffff" d="M1787.48,998.56c46.81,0,79.76-10.15,79.76-62.42v-47.68c0-51.73-32.95-61.89-79.76-61.89
		c-46.27,0-79.18,10.16-79.18,61.89v47.68C1708.3,988.41,1741.21,998.56,1787.48,998.56 M1787.48,958.97
		c-23.64,0-31.36-2.54-31.89-27.38v-38.07c0.53-25.35,8.25-27.9,31.89-27.9c24.2,0,32.41,2.55,32.41,27.9v38.07
		C1819.88,956.44,1811.68,958.97,1787.48,958.97"/>
			<path id="C" fill="#ffffff" d="M2031.85,933.1v5.07c0,18.29-0.5,35.01-15.86,47.68c-15.37,12.71-34.25,12.71-54.2,12.71
		c-45.99,0-79.73-2.53-79.73-64.45v-43.62c0-55.82,30.17-63.94,79.73-63.94c47.07,0,69.02,4.58,69.56,55.31v6.59h-46.56v-6.59
		c-1.5-14.71-12.26-16.23-27.57-16.23c-26.08,0-28.64,8.1-28.64,31.97v26.88c0,24.86,1.04,34.5,28.64,34.5
		c18.93,0,27.57-1.01,27.57-20.8v-5.07H2031.85z"/>
			<path id="A_1_" fill="#ffffff" d="M1569.31,998.56l49.48-108.99c8.18-17.57,12.78-23.25,30.1-23.25v48.06v40.28v43.9h45.45v-172
		h-51.09c-42.33,0-50.47,18.05-70.91,63.01l-50,108.99H1569.31z"/>
			<polygon id="y" fill="#ffffff" points="1477.01,885.2 1425.92,954.88 1425.92,998.55 1403.21,998.55 1403.21,955.39 1351.08,885.2
		1377.33,885.2 1414.05,930.62 1450.1,885.2 	"/>
			<path id="b" fill="#ffffff" d="M1341,936.91c1.16-2.87,1.79-6.01,1.79-9.29V905.2c0-10.03-7.38-18.33-17-19.78
		c-0.98-0.14-1.98-0.22-3-0.22h-88.36v113.35h87.52c1.3,0,2.59-0.1,3.84-0.3c11.99-1.84,21.16-12.2,21.16-24.7v-22.42
		C1346.95,945.56,1344.68,940.53,1341,936.91z M1257.4,908.17h61.16v20.38h-61.16V908.17z M1324.29,974.49h-66.89v-22.97h66.89
		V974.49z"/>
		</g>
		<g id="magazin">
			<path fill="#515151" d="M2370.18,616.34c-14.17,0-27.29-2.25-39.38-6.75c-12.09-4.5-22.54-10.88-31.38-19.12
		c-8.84-8.25-15.71-17.96-20.62-29.12c-4.92-11.16-7.38-23.33-7.38-36.5c0-13.33,2.46-25.54,7.38-36.62
		c4.91-11.08,11.79-20.75,20.62-29c8.83-8.25,19.29-14.62,31.38-19.12c12.08-4.5,25.21-6.75,39.38-6.75c14.33,0,27.5,2.25,39.5,6.75
		s22.41,10.88,31.25,19.12c8.83,8.25,15.71,17.92,20.62,29c4.91,11.09,7.38,23.29,7.38,36.62c0,13.17-2.46,25.34-7.38,36.5
		c-4.92,11.17-11.79,20.88-20.62,29.12c-8.84,8.25-19.25,14.62-31.25,19.12S2384.51,616.34,2370.18,616.34z M2370.18,568.59
		c5.5,0,10.62-1,15.38-3s8.91-4.88,12.5-8.62c3.58-3.75,6.38-8.33,8.38-13.75c2-5.41,3-11.54,3-18.38c0-6.83-1-12.96-3-18.38
		c-2-5.41-4.79-10-8.38-13.75c-3.59-3.75-7.75-6.62-12.5-8.62s-9.88-3-15.38-3s-10.62,1-15.38,3s-8.92,4.88-12.5,8.62
		c-3.59,3.75-6.38,8.34-8.38,13.75c-2,5.42-3,11.54-3,18.38c0,6.84,1,12.96,3,18.38c2,5.42,4.79,10,8.38,13.75
		c3.58,3.75,7.75,6.62,12.5,8.62S2364.68,568.59,2370.18,568.59z"/>
			<path fill="#515151" d="M2590.68,602.34c-24.17,0-44.46-3-60.88-9c-16.42-6-28.79-14.83-37.12-26.5c-8.34-11.66-12.5-25.91-12.5-42.75
		c0-16.83,4.16-31.04,12.5-42.62c8.33-11.58,20.75-20.38,37.25-26.38s36.83-9,61-9c0.33,0,1.66,0,4,0c2.33,0,4.66,0,7,0
		c2.33,0,3.58,0,3.75,0c23.83,0,43.79,3.04,59.88,9.12c16.08,6.09,28.21,14.92,36.38,26.5c8.16,11.59,12.25,25.71,12.25,42.38
		c0,16.5-3.96,30.59-11.88,42.25c-7.92,11.67-19.71,20.59-35.38,26.75c-15.67,6.17-35.09,9.25-58.25,9.25c-0.5,0-2.12,0-4.87,0
		c-2.75,0-5.46,0-8.12,0C2593.01,602.34,2591.34,602.34,2590.68,602.34z M2595.93,557.34c0.5,0,1.41,0,2.75,0c1.33,0,2.25,0,2.75,0
		c13.5,0,24.33-1.12,32.5-3.38c8.16-2.25,14.08-5.83,17.75-10.75c3.66-4.91,5.5-11.38,5.5-19.38s-1.92-14.38-5.75-19.12
		c-3.84-4.75-9.79-8.21-17.88-10.38c-8.09-2.16-18.54-3.25-31.37-3.25c-0.67,0-1.67,0-3,0c-1.34,0-2.42,0-3.25,0
		c-14.34,0-25.79,1.04-34.38,3.12c-8.59,2.09-14.79,5.54-18.62,10.38c-3.84,4.84-5.75,11.34-5.75,19.5c0,8.17,2.16,14.71,6.5,19.62
		c4.33,4.92,10.88,8.42,19.62,10.5C2572.05,556.3,2582.93,557.34,2595.93,557.34z M2570.18,621.34V428.59h54v192.75H2570.18z"/>
			<path fill="#515151" d="M2735.18,612.34v-175h58v91l60.25-91h55.5v175h-58v-90.75l-60,90.75H2735.18z"/>
			<path fill="#515151" d="M2939.92,612.34v-175h58v129.25h55.5V437.34h58v175H2939.92z M3080.42,646.59v-47l12.25,12.75h-39.25v-45.75
		h81v80H3080.42z"/>
			<path fill="#515151" d="M3154.17,612.34v-175h58v91l60.25-91h55.5v175h-58v-90.75l-60,90.75H3154.17z"/>
			<path fill="#515151" d="M3344.17,612.34l76.5-175h58l76.5,175h-61l-56.5-147h23l-56.5,147H3344.17z M3389.67,581.84l15-42.5h80.5
		l15,42.5H3389.67z"/>
			<path fill="#515151" d="M3586.92,615.59c-3.67,0-7.59-0.25-11.75-0.75c-4.17-0.5-8.59-1.34-13.25-2.5l3-47.25
		c2.33,0.5,4.5,0.75,6.5,0.75c6.5,0,11.33-2.66,14.5-8c3.16-5.33,5.33-12.54,6.5-21.62c1.16-9.08,1.91-19.29,2.25-30.62l2.25-68.25
		h147.75v175h-58V470.59l12.75,12.5h-63.75l11.5-13.25l-1,33.5c-0.5,16.84-1.62,32.12-3.38,45.88s-4.71,25.59-8.88,35.5
		c-4.17,9.92-10.04,17.54-17.62,22.88C3608.7,612.92,3598.92,615.59,3586.92,615.59z"/>
			<path fill="#515151" d="M3869.91,491.09c21.33,0,38.04,4.79,50.12,14.38c12.08,9.59,18.12,24.04,18.12,43.38
		c0,20.84-6.84,36.62-20.5,47.38c-13.67,10.75-32.09,16.12-55.25,16.12h-86.75v-175h58v53.75H3869.91z M3858.41,571.09
		c5.83,0,10.71-1.88,14.62-5.62c3.91-3.75,5.88-8.96,5.88-15.62c0-6.66-1.96-11.25-5.88-13.75c-3.92-2.5-8.79-3.75-14.62-3.75
		h-24.75v38.75H3858.41z"/>
			<path fill="#515151" d="M4017.41,612.34h-59v-175h59V612.34z M4075.91,547.84h-62.5v-48.5h62.5V547.84z M4071.91,437.34h59v175h-59
		V437.34z"/>
			<path fill="#515151" d="M4256.16,491.09c21.33,0,38.04,4.79,50.12,14.38c12.08,9.59,18.12,24.04,18.12,43.38
		c0,20.84-6.84,36.62-20.5,47.38c-13.67,10.75-32.09,16.12-55.25,16.12h-86.75v-175h58v53.75H4256.16z M4244.66,571.09
		c5.83,0,10.71-1.88,14.62-5.62c3.91-3.75,5.88-8.96,5.88-15.62c0-6.66-1.96-11.25-5.88-13.75c-3.92-2.5-8.79-3.75-14.62-3.75
		h-24.75v38.75H4244.66z M4340.41,612.34v-175h58v175H4340.41z"/>
			<path fill="#515151" d="M4429.41,612.34v-175h58v91l60.25-91h55.5v175h-58v-90.75l-60,90.75H4429.41z M4516.16,427.34
		c-19.84,0-33.88-3.71-42.12-11.12c-8.25-7.41-12.38-18.04-12.38-31.88h39.25c0,5.5,1.12,9.54,3.38,12.12
		c2.25,2.59,6.21,3.88,11.88,3.88c5.83,0,9.91-1.29,12.25-3.88c2.33-2.58,3.5-6.62,3.5-12.12h39.25c0,13.84-4.21,24.46-12.62,31.88
		C4550.11,423.63,4535.99,427.34,4516.16,427.34z"/>
			<path fill="#515151" d="M2278.08,912.34v-140h46.4v72.8l48.2-72.8h44.4v140h-46.4v-72.6l-48,72.6H2278.08z"/>
			<path fill="#515151" d="M2489.08,912.34h-47.2v-140h47.2V912.34z M2535.88,860.74h-50v-38.8h50V860.74z M2532.68,772.34h47.2v140
		h-47.2V772.34z"/>
			<path fill="#515151" d="M2636.47,912.34v-113.6l10.2,10.2h-51.2v-36.6h128.4v36.6h-51.2l10.2-10.2v113.6H2636.47z"/>
			<path fill="#515151" d="M2785.87,876.74h70v35.6h-116.4v-140h113.8v35.6h-67.4V876.74z M2782.67,824.34h62.4v34h-62.4V824.34z"/>
			<path fill="#515151" d="M2875.07,912.34v-140h67.4c13.07,0,24.37,2.13,33.9,6.4c9.53,4.27,16.9,10.37,22.1,18.3
		c5.2,7.94,7.8,17.3,7.8,28.1c0,10.8-2.6,20.13-7.8,28c-5.2,7.87-12.57,13.97-22.1,18.3c-9.53,4.33-20.83,6.5-33.9,6.5h-41.2
		l21-20.2v54.6H2875.07z M2922.27,862.94l-21-21.4h38.2c6.53,0,11.37-1.46,14.5-4.4c3.13-2.93,4.7-6.93,4.7-12
		c0-5.06-1.57-9.06-4.7-12c-3.13-2.93-7.97-4.4-14.5-4.4h-38.2l21-21.4V862.94z"/>
			<path fill="#515151" d="M3067.67,912.34h-47.2v-140h47.2V912.34z M3114.47,860.74h-50v-38.8h50V860.74z M3111.27,772.34h47.2v140
		h-47.2V772.34z"/>
			<path fill="#515151" d="M3229.67,876.74h70v35.6h-116.4v-140h113.8v35.6h-67.4V876.74z M3226.47,824.34h62.4v34h-62.4V824.34z"/>
			<path fill="#515151" d="M3350.67,912.34v-113.6l10.2,10.2h-51.2v-36.6h128.4v36.6h-51.2l10.2-10.2v113.6H3350.67z"/>
			<path fill="#515151" d="M3448.27,858.13v-34h60v34H3448.27z"/>
			<path fill="#515151" d="M3531.67,912.34v-140h38.8l56,91.4h-20.4l54.4-91.4h38.8l0.4,140h-43l-0.4-75.2h6.8l-37.2,62.6h-20.8
		l-38.8-62.6h8.4v75.2H3531.67z"/>
			<path fill="#515151" d="M3712.47,912.34l61.2-140h46.4l61.2,140h-48.8l-45.2-117.6h18.4l-45.2,117.6H3712.47z M3748.87,887.94l12-34
		h64.4l12,34H3748.87z"/>
			<path fill="#515151" d="M3894.27,912.34v-140h106.6v36.6h-70.4l10.2-10.2v113.6H3894.27z"/>
			<path fill="#515151" d="M3976.67,912.34l61.2-140h46.4l61.2,140h-48.8l-45.2-117.6h18.4l-45.2,117.6H3976.67z M4013.07,887.94l12-34
		h64.4l12,34H4013.07z"/>
			<path fill="#515151" d="M4148.67,903.13l13.8-32.6c5.87,2.4,11.9,4.27,18.1,5.6c6.2,1.34,12.17,2.17,17.9,2.5
		c5.73,0.34,10.83,0.1,15.3-0.7c4.47-0.8,8.03-2.13,10.7-4c2.67-1.87,4-4.33,4-7.4c0-3.2-1.33-5.4-4-6.6c-2.67-1.2-5.93-1.8-9.8-1.8
		h-37.8v-34h33.8c4,0,7.03-0.77,9.1-2.3c2.07-1.53,3.1-3.57,3.1-6.1c0-2.8-1.17-5-3.5-6.6c-2.33-1.6-5.47-2.7-9.4-3.3
		c-3.93-0.6-8.37-0.67-13.3-0.2c-4.93,0.47-10.03,1.47-15.3,3c-5.27,1.54-10.37,3.5-15.3,5.9l-13.8-34.4
		c9.87-4.53,20.23-7.63,31.1-9.3c10.87-1.67,21.47-2,31.8-1c10.33,1,19.67,3.23,28,6.7c8.33,3.47,14.97,8.04,19.9,13.7
		c4.93,5.67,7.4,12.37,7.4,20.1c0,6.67-1.8,12.63-5.4,17.9c-3.6,5.27-8.5,9.37-14.7,12.3c-6.2,2.94-13.23,4.4-21.1,4.4l1-9.4
		c9.2,0,17.23,1.63,24.1,4.9c6.87,3.27,12.2,7.7,16,13.3c3.8,5.6,5.7,12,5.7,19.2c0,6.67-1.8,12.63-5.4,17.9
		c-3.6,5.27-8.57,9.73-14.9,13.4c-6.33,3.67-13.67,6.43-22,8.3c-8.33,1.87-17.27,2.83-26.8,2.9c-9.54,0.07-19.27-0.93-29.2-3
		C4167.83,910.37,4158.13,907.27,4148.67,903.13z"/>
			<path fill="#515151" d="M4292.86,912.34v-140h46.4v72.8l48.2-72.8h44.4v140h-46.4v-72.6l-48,72.6H4292.86z"/>
			<path fill="#515151" d="M4503.86,912.34h-47.2v-140h47.2V912.34z M4550.66,860.74h-50v-38.8h50V860.74z M4547.46,772.34h47.2v140
		h-47.2V772.34z"/>
		</g>
	</symbol>


	<symbol id="anketa" viewBox="0 0 35 40">
		<g fill="none">
			<path d="M.047 4.664v34.648c0 .368.3.665.67.665h25.566c.37 0 .67-.297.67-.664V11.328c0-.015-.007-.031-.007-.039a.659.659 0 0 0-.032-.172l-.024-.062a.665.665 0 0 0-.134-.196l-6.728-6.664a.672.672 0 0 0-.197-.133c-.024-.007-.04-.015-.064-.023a.677.677 0 0 0-.173-.031c-.008 0-.024-.008-.04-.008H.718c-.37 0-.67.297-.67.664zm24.611 6h-4.433v-4.39l4.433 4.39zM1.388 5.328h17.496v6c0 .367.3.664.67.664h6.058v26.656H1.396V5.328h-.008z"
				  fill="#515151"></path>
			<path d="M28.302 34.648v1.336h2.02c.37 0 .67-.297.67-.664V.664c0-.367-.3-.664-.67-.664H4.756c-.37 0-.67.297-.67.664v2h1.349V1.336H29.65v33.32h-1.349v-.008z"
				  fill="#515151"></path>
			<path d="M5.427 13.328h16.147v1.336H5.427zm0-4h5.38v1.336h-5.38z" fill="#bf192a"></path>
			<path d="M5.427 17.328h10.767v1.336H5.427zm12.108 0h4.039v1.336h-4.039zM5.427 21.32h16.147v1.336H5.427zm0 8h16.147v1.336H5.427zm6.058-4h10.089v1.336H11.485zm-6.058 0h4.71v1.336h-4.71zm0 8h2.69v1.336h-2.69V33.32zm4.039 0h12.108v1.336H9.466z"
				  fill="#515151"></path>
		</g>
	</symbol>
	<symbol id="computer" viewBox="0 0 35 40">
		<g fill="none">
			<path d="M2.72 23.984h10.46l-1.513 4h-1.553v1.336H24.91v-1.336h-1.553l-1.514-4h10.461c1.482 0 2.688-1.195 2.688-2.664V2.664C34.992 1.195 33.786 0 32.304 0H2.72C1.238 0 .032 1.195.032 2.664V21.32c0 1.477 1.206 2.664 2.688 2.664zm19.202 4h-8.82l1.513-4h5.794l1.513 4zm11.73-6.664c0 .735-.6 1.336-1.348 1.336H2.72a1.341 1.341 0 0 1-1.348-1.336v-1.336h32.272l.008 1.336zM1.38 2.664c0-.734.599-1.336 1.347-1.336h29.585c.74 0 1.348.594 1.348 1.336v15.992H1.38V2.664zm2.018 27.984a.666.666 0 0 0-.67.665v7.992c0 .367.299.664.67.664h18.824c.37 0 .67-.297.67-.664V31.32c0-.367-.3-.664-.67-.664H3.398v-.008zm18.146 8H4.068v-6.664h17.484v6.664h-.008z"
				  fill="#515151"></path>
			<path d="M5.416 35.984h1.348v1.336H5.416v-1.336zm13.44 0h1.348v1.336h-1.348zM5.416 33.32h1.348v1.336H5.416V33.32zm2.688 0h1.348v1.336H8.104zm2.688 0h1.348v1.336h-1.348zm2.688 0h1.348v1.336H13.48zm2.688 0h1.348v1.336h-1.348zm2.688 0h1.348v1.336h-1.348zM8.104 35.984h9.412v1.336H8.104zm17.476-2v2.664c0 1.844 1.506 3.329 3.358 3.329 1.853 0 3.358-1.493 3.358-3.329v-2.664c0-1.843-1.505-3.328-3.358-3.328-1.852 0-3.358 1.485-3.358 3.328zm5.384 0v2.664c0 1.102-.907 2-2.018 2a2.013 2.013 0 0 1-2.018-2v-2.664c0-.843.544-1.593 1.348-1.875v1.875h1.348V32.11a2.01 2.01 0 0 1 1.34 1.875z"
				  fill="#515151"></path>
			<path d="M21.355 7.797L14.63 14.46l-.954-.945L20.4 6.852zm-3.366-.664l-4.036 4-.946-.945 4.036-4zm4.036 4l-4.036 4-.954-.945 4.036-4z"
				  fill="#bf192a"></path>
		</g>
	</symbol>
	<symbol id="calendar" viewBox="0 0 40 40">
		<g fill="none">
			<path d="M39.313 2.688h-5.329V.022h-1.336v2.664H27.32V.023h-1.336v2.664h-5.328V.023H19.32v2.664h-5.328V.023h-1.336v2.664H7.328V.023H6v2.664H.664A.664.664 0 0 0 0 3.353v35.984c0 .367.297.664.664.664h38.648a.664.664 0 0 0 .665-.664V3.352a.664.664 0 0 0-.664-.664zm-.665 23.984h-6a.664.664 0 0 0-.664.664v6H1.336V10.68h37.312v15.992zm-.945 1.336l-4.39 4.39v-4.39h4.39zM1.336 34.672h31.32c.18 0 .344-.07.469-.195l5.523-5.524v7.055H1.336v-1.336zm0-30.656H6V6.68h1.336V4.016h5.328V6.68H14V4.016h5.328V6.68h1.336V4.016h5.328V6.68h1.336V4.016h5.328V6.68h1.328V4.016h4.664v5.328H1.336V4.016zm37.312 34.648H1.336v-1.336h37.312v1.336z"
				  fill="#515151"></path>
			<path d="M17.992 17.344h4a.664.664 0 0 0 .664-.664v-4a.664.664 0 0 0-.664-.664h-4a.664.664 0 0 0-.664.664v4c0 .367.297.664.664.664zm.664-4h2.664v2.672h-2.664v-2.672zm6 4h4a.664.664 0 0 0 .664-.664v-4a.664.664 0 0 0-.664-.664h-4a.664.664 0 0 0-.664.664v4a.659.659 0 0 0 .664.664zm.664-4h2.664v2.672H25.32v-2.672zm6 4h3.992a.664.664 0 0 0 .665-.664v-4a.664.664 0 0 0-.664-.664h-4a.664.664 0 0 0-.665.664v4a.67.67 0 0 0 .672.664zm.664-4h2.664v2.672h-2.664v-2.672zm-7.328 17.328h4a.664.664 0 0 0 .664-.664v-4a.664.664 0 0 0-.664-.664h-4a.664.664 0 0 0-.664.664v4a.659.659 0 0 0 .664.664zm.664-4h2.664v2.664H25.32v-2.664zm-13.992-9.328h4a.664.664 0 0 0 .664-.664v-4a.664.664 0 0 0-.664-.664h-4a.664.664 0 0 0-.664.664v4c0 .367.297.664.664.664zm.664-4h2.664v2.672h-2.664v-2.672z"
				  fill="#515151"></path>
			<path d="M17.992 24.008h4a.664.664 0 0 0 .664-.664v-4a.664.664 0 0 0-.664-.664h-4a.664.664 0 0 0-.664.664v4c0 .367.297.664.664.664zm.664-4h2.664v2.664h-2.664v-2.664z"
				  fill="#bf192a"></path>
			<path d="M24.656 24.008h4a.664.664 0 0 0 .664-.664v-4a.664.664 0 0 0-.664-.664h-4a.664.664 0 0 0-.664.664v4a.659.659 0 0 0 .664.664zm.664-4h2.664v2.664H25.32v-2.664zm6 4h3.992a.664.664 0 0 0 .665-.664v-4a.664.664 0 0 0-.664-.664h-4a.664.664 0 0 0-.665.664v4a.67.67 0 0 0 .672.664zm.664-4h2.664v2.664h-2.664v-2.664zm-27.32 4h4a.664.664 0 0 0 .664-.664v-4a.664.664 0 0 0-.664-.664h-4a.664.664 0 0 0-.664.664v4c0 .367.297.664.664.664zm.664-4h2.664v2.664H5.328v-2.664zm6 4h4a.664.664 0 0 0 .664-.664v-4a.664.664 0 0 0-.664-.664h-4a.664.664 0 0 0-.664.664v4c0 .367.297.664.664.664zm.664-4h2.664v2.664h-2.664v-2.664zm6 10.664h4a.664.664 0 0 0 .664-.664v-4a.664.664 0 0 0-.664-.664h-4a.664.664 0 0 0-.664.664v4c0 .367.297.664.664.664zm.664-4h2.664v2.664h-2.664v-2.664zm-13.992 4h4a.664.664 0 0 0 .664-.664v-4a.664.664 0 0 0-.664-.664h-4a.664.664 0 0 0-.664.664v4c0 .367.297.664.664.664zm.664-4h2.664v2.664H5.328v-2.664zm6 4h4a.664.664 0 0 0 .664-.664v-4a.664.664 0 0 0-.664-.664h-4a.664.664 0 0 0-.664.664v4c0 .367.297.664.664.664zm.664-4h2.664v2.664h-2.664v-2.664z"
				  fill="#515151"></path>
		</g>
	</symbol>
	<symbol id="get" viewBox="0 0 512.008 512.008">
		<g>
			<g>
				<path d="m380.429 268.785c5.522 0 10-4.478 10-10s-4.478-10-10-10h-67.239c-5.522 0-10 4.478-10 10s4.478 10 10 10z"
					  fill="#bf192a"/>
				<path d="m504.982 331.756c-10.379-15.16-29.874-21.286-46.982-15.012v-239.74c0-27.57-22.43-50-50-50h-264c-27.57 0-50 22.43-50 50v53.656c0 5.522 4.478 10 10 10s10-4.478 10-10v-53.656c0-16.542 13.458-30 30-30h74v83.655c0 3.749 2.097 7.183 5.432 8.896 3.336 1.712 7.349 1.416 10.394-.768l42.174-30.228 42.175 30.228c1.73 1.241 3.773 1.872 5.826 1.872 1.561 0 3.128-.365 4.567-1.104 3.335-1.713 5.432-5.146 5.432-8.896v-83.655h74c16.542 0 30 13.458 30 30v248.136l-71.004 29.997c.508-2.514.777-5.114.777-7.775 0-21.616-17.587-39.203-39.203-39.203h-57.635l-32.956-14.599c-15.104-6.691-31.139-10.084-47.659-10.084-19.571 0-39.026 4.872-56.33 13.925v-13.397c0-5.522-4.478-10-10-10h-9.99v-53.345c0-5.522-4.478-10-10-10s-10 4.478-10 10v53.345h-84c-5.522 0-10 4.478-10 10v191c0 5.522 4.478 10 10 10h113.99c5.522 0 10-4.478 10-10v-9.992h126.267c52.042 0 104.179-12.255 150.774-35.44l78.702-39.162c10.408-5.18 18.056-14.603 20.98-25.854 2.927-11.253.837-23.207-5.731-32.8zm-190.982-220.568-32.175-23.06c-1.741-1.248-3.783-1.872-5.825-1.872s-4.084.624-5.825 1.872l-32.175 23.06v-64.184h76zm-294 353.816v-171h93.99v171zm471.357-105.482c-1.469 5.649-5.308 10.38-10.534 12.98l-78.702 39.162c-43.842 21.815-92.897 33.347-141.864 33.347h-126.267v-124.381c16.569-11.085 36.376-17.155 56.33-17.155 13.713 0 27.021 2.816 39.559 8.369l34.891 15.456c1.275.565 2.654.857 4.05.857h59.751c10.589 0 19.203 8.614 19.203 19.203s-8.614 19.204-19.203 19.204h-85.167c-5.522 0-10 4.478-10 10s4.478 10 10 10h87.652c8.587 0 16.952-1.695 24.863-5.037l108.072-45.657c8.796-3.719 19.094-.694 24.488 7.184 3.298 4.817 4.347 10.819 2.878 16.468z"
					  fill="#515151"/>
				<path d="m103.997 185.664c2.63 0 5.21-1.07 7.069-2.931 1.87-1.87 2.931-4.439 2.931-7.069 0-2.641-1.061-5.21-2.931-7.08-1.859-1.86-4.439-2.92-7.069-2.92-2.631 0-5.21 1.06-7.07 2.92-1.86 1.87-2.93 4.439-2.93 7.08 0 2.63 1.069 5.21 2.93 7.069 1.86 1.861 4.439 2.931 7.07 2.931z"
					  fill="#bf192a"/>
			</g>
		</g>
	</symbol>
	<symbol id="gift" viewBox="0 0 512 512">
		<g>
			<g>
				<path d="M444.709,239.616v227.621H67.877V239.616H32.768v245.175c0,9.696,7.858,17.554,17.554,17.554h411.941
			c9.696,0,17.554-7.858,17.554-17.554V239.616H444.709z" fill="#515151"/>
			</g>
		</g>
		<g>
			<g>
				<path d="M494.446,107.953H17.554C7.858,107.953,0,115.811,0,125.507v114.688c0,9.696,7.858,17.554,17.554,17.554h476.891
			c9.696,0,17.554-7.853,17.554-17.554V125.507C512,115.811,504.142,107.953,494.446,107.953z M476.891,222.647H35.109v-79.579
			h441.783V222.647z" fill="#515151"  />
			</g>
		</g>
		<g>
			<g>
				<path d="M273.273,121.066c-1.194-4.552-30.152-111.411-114.7-111.411c-36.782,0-66.706,29.924-66.706,66.706
			c0,36.782,29.661,66.706,66.121,66.706h98.304c5.436,0,10.574-2.522,13.897-6.829S274.648,126.326,273.273,121.066z
			 M157.989,107.959c-17.39,0-31.013-13.88-31.013-31.598c0-17.127,14.471-31.598,31.598-31.598
			c38.52,0,61.586,37.947,72.675,63.195H157.989z" fill="#bf192a"/>
			</g>
		</g>
		<g>
			<g>
				<path d="M354.011,9.655c-84.547,0-113.506,106.859-114.7,111.411c-1.381,5.26-0.24,10.866,3.084,15.173
			c3.324,4.307,8.455,6.829,13.897,6.829h98.304c36.46,0,66.121-29.924,66.121-66.706C420.718,39.579,390.794,9.655,354.011,9.655z
			 M354.597,107.959h-73.33c11.007-25.249,34.003-63.195,72.751-63.195c17.127,0,31.598,14.471,31.598,31.598
			C385.615,94.079,371.993,107.959,354.597,107.959z" fill="#bf192a"/>
			</g>
		</g>
		<g>
			<g>
				<rect x="238.738" y="125.513" width="35.109" height="359.278" fill="#bf192a"/>
			</g>
		</g>
	</symbol>
	<symbol id="clock" viewBox="0 0 58.2 58.2">
		<style type="text/css"> .st0 {
			fill: #515151;
			}

			.st1 {
			display: none;
			}

			.st2 {
			fill: #bf192a;
			stroke: #bf192a;
			stroke-width: 0.6;
			stroke-miterlimit: 10;
			}

			.st3 {
			fill: #bf192a;
			}

			.st44 {
			fill: none;
			stroke: #515151;
			stroke-width: 0.9;
			stroke-miterlimit: 10;
			}

			.st5 {
			fill: none;
			stroke: #515151;
			stroke-width: 2.1;
			stroke-miterlimit: 10;
			} </style>
		<g>
			<path class="st0"
				  d="M40.1,29.2H33c-0.4-1.4-1.5-2.5-2.9-2.9V16.2c0-0.6-0.4-1-1-1s-1,0.4-1,1v10.1c-1.7,0.4-3,2-3,3.9 c0,2.2,1.8,4,4,4c1.9,0,3.4-1.3,3.9-3h7.1c0.6,0,1-0.4,1-1S40.6,29.2,40.1,29.2z M29.1,32.2c-1.1,0-2-0.9-2-2s0.9-2,2-2s2,0.9,2,2 S30.2,32.2,29.1,32.2z"></path>
			<path class="st1"
				  d="M50.2,9.8l4.1,4.1c0.2,0.2,0.4,0.3,0.7,0.3s0.5-0.1,0.7-0.3c3.2-3.2,3.2-8.3,0-11.5s-8.3-3.2-11.5,0 c-0.2,0.2-0.3,0.4-0.3,0.7s0.1,0.5,0.3,0.7l4.6,4.6L47.1,10c-4.8-4.3-11.1-6.9-18-6.9s-13.2,2.6-18,6.9L9.4,8.4L14,3.8 c0.2-0.2,0.3-0.4,0.3-0.7S14.2,2.6,14,2.4c-3.2-3.2-8.3-3.2-11.5,0s-3.2,8.3,0,11.5c0.2,0.2,0.4,0.3,0.7,0.3s0.5-0.1,0.7-0.3L8,9.8 l1.7,1.7C5,16.3,2.1,22.9,2.1,30.2c0,9.9,5.4,18.6,13.3,23.3l-3,3c-0.4,0.4-0.4,1,0,1.4c0.2,0.2,0.5,0.3,0.7,0.3s0.5-0.1,0.7-0.3 l3.5-3.5c3.6,1.8,7.6,2.7,11.8,2.7s8.3-1,11.8-2.7l3.5,3.5c0.2,0.2,0.5,0.3,0.7,0.3s0.5-0.1,0.7-0.3c0.4-0.4,0.4-1,0-1.4l-3-3 c8-4.7,13.3-13.4,13.3-23.3c0-7.3-2.9-13.9-7.6-18.7L50.2,9.8z M54.3,3.8c2.1,2.1,2.4,5.5,0.6,7.9l-8.5-8.5 C48.8,1.4,52.1,1.6,54.3,3.8z M3.2,11.7C1.5,9.3,1.7,5.9,3.9,3.8s5.5-2.4,7.9-0.6L3.2,11.7z M29.1,55.2c-13.8,0-25-11.2-25-25 s11.2-25,25-25s25,11.2,25,25S42.9,55.2,29.1,55.2z"></path>
			<path class="st0"
				  d="M49,18.6c-2-3.4-4.9-6.3-8.3-8.3l0,0c0,0,0,0-0.1,0c-3.4-1.9-7.3-3.1-11.4-3.1s-8.2,1.1-11.6,3c0,0,0,0-0.1,0 l0,0c-3.4,2-6.3,4.9-8.3,8.3l0,0c0,0,0,0,0,0.1c-2,3.5-3.1,7.4-3.1,11.6s1.1,8.1,3.1,11.4c0,0,0,0,0,0.1c0,0,0,0,0.1,0.1 c2,3.4,4.9,6.3,8.3,8.3l0,0h0.1c3.4,1.9,7.3,3,11.4,3s8.1-1.1,11.4-3h0.1l0,0c3.4-2,6.3-4.9,8.3-8.3c0,0,0,0,0.1-0.1c0,0,0,0,0-0.1 c1.9-3.4,3.1-7.3,3.1-11.4S51,22.1,49,18.6C49,18.7,49,18.7,49,18.6L49,18.6z M40.4,47.8L39.9,47c-0.3-0.5-0.9-0.6-1.4-0.4 c-0.5,0.3-0.6,0.9-0.4,1.4l0.5,0.8C36,50.1,33.1,51,30,51.1v-0.9c0-0.6-0.4-1-1-1s-1,0.4-1,1v0.9c-3.1-0.1-6-1-8.6-2.3l0.5-0.8 c0.3-0.5,0.1-1.1-0.4-1.4c-0.5-0.3-1.1-0.1-1.4,0.4l-0.5,0.8c-2.5-1.6-4.7-3.8-6.3-6.3l0.8-0.5c0.5-0.3,0.6-0.9,0.4-1.4 c-0.3-0.5-0.9-0.6-1.4-0.4l-0.8,0.5C9,37.1,8.1,34.2,8,31.1h0.9c0.6,0,1-0.4,1-1s-0.4-1-1-1h-1c0.1-3.1,1-6,2.3-8.6L11,21 c0.2,0.1,0.3,0.1,0.5,0.1c0.3,0,0.7-0.2,0.9-0.5c0.3-0.5,0.1-1.1-0.4-1.4l-0.8-0.5c1.6-2.5,3.8-4.7,6.3-6.3l0.5,0.8 c0.2,0.3,0.5,0.5,0.9,0.5c0.2,0,0.3,0,0.5-0.1c0.5-0.3,0.6-0.9,0.4-1.4l-0.5-0.8c2.6-1.3,5.5-2.2,8.6-2.3V10c0,0.6,0.4,1,1,1 s1-0.4,1-1V9.2c3.1,0.1,6,1,8.6,2.3L38,12.3c-0.3,0.5-0.1,1.1,0.4,1.4c0.2,0.1,0.3,0.1,0.5,0.1c0.3,0,0.7-0.2,0.9-0.5l0.5-0.8 c2.5,1.6,4.7,3.8,6.3,6.3l-0.8,0.5c-0.5,0.3-0.6,0.9-0.4,1.4c0.2,0.3,0.5,0.5,0.9,0.5c0.2,0,0.3,0,0.5-0.1l0.8-0.5 c1.3,2.6,2.2,5.5,2.3,8.6H49c-0.6,0-1,0.4-1,1s0.4,1,1,1h1c-0.1,3.1-1,6-2.3,8.6l-0.8-0.5c-0.5-0.3-1.1-0.1-1.4,0.4 c-0.3,0.5-0.1,1.1,0.4,1.4l0.8,0.5C45.1,44,42.9,46.2,40.4,47.8z"></path>
		</g>
		<path class="st2"
			  d="M29.1,26.2L29.1,26.2c0,0,0,0-1,0.1V16.2c0-0.6,0.5-1,1-1l0,0c0.6,0,1,0.5,1,1v10.1 C29.1,26.2,29.1,26.2,29.1,26.2z"></path>
		<path class="st3"
			  d="M38.1,14.3L38.1,14.3c-0.6-0.4-0.8-1.2-0.5-1.9l0.6-1.1c0,0,0.5,0.3,1.1,0.7l0,0c0.6,0.4,1.1,0.6,1.1,0.6 L40,13.8C39.7,14.4,38.8,14.7,38.1,14.3z"></path>
		<circle class="st44" cx="29.1" cy="30.2" r="3.9"></circle>
		<path class="st3"
			  d="M28.9,12L28.9,12c-0.7,0-1.3-0.6-1.3-1.3V9.5c0,0,0.6,0,1.3,0l0,0c0.7,0,1.3,0,1.3,0v1.2 C30.2,11.4,29.6,12,28.9,12z"></path>
		<circle class="st5" cx="29.2" cy="30.2" r="21.7"></circle>
	</symbol>
	<symbol id="anketa_short" viewBox="-77 0 512 512">
		<g fill="#515151">
			<path d="m347.535156 139.425781c-5.523437 0-10 4.476563-10 10v342.574219h-317.535156v-20.003906c0-5.519532-4.476562-10-10-10s-10 4.480468-10 10v30.003906c0 5.523438 4.476562 10 10 10h337.535156c5.523438 0 10-4.476562 10-10v-352.574219c0-5.523437-4.476562-10-10-10zm0 0"/>
			<path d="m347.535156 29.421875h-83.578125v-19.421875c0-5.523438-4.476562-10-10-10h-150.378906c-5.523437 0-10 4.476562-10 10v19.421875h-83.578125c-5.523438 0-10 4.476563-10 10v352.574219c0 5.523437 4.476562 10 10 10s10-4.476563 10-10v-342.574219h73.578125v19.421875c0 5.523438 4.476563 10 10 10h150.378906c5.523438 0 10-4.476562 10-10v-19.421875h73.578125v20.003906c0 5.519531 4.476563 10 10 10 5.523438 0 10-4.480469 10-10v-30.003906c0-5.523437-4.476562-10-10-10zm-103.578125 29.421875h-130.378906v-38.84375h130.378906zm0 0"/>
			<path d="m118.695312 124.226562h-57.207031c-5.523437 0-10 4.476563-10 10v57.210938c0 5.523438 4.476563 10 10 10h57.207031c5.523438 0 10-4.476562 10-10v-57.210938c0-5.523437-4.476562-10-10-10zm-10 57.210938h-37.207031v-37.210938h37.207031zm0 0"/>
			<path d="m51.488281 303.132812c0 5.523438 4.476563 10 10 10h57.207031c5.523438 0 10-4.476562 10-10v-57.207031c0-5.523437-4.476562-10-10-10h-57.207031c-5.523437 0-10 4.476563-10 10zm20-47.207031h37.207031v37.207031h-37.207031zm0 0"/>
			<path d="m85.871094 398.234375-17.3125-17.308594c-3.90625-3.90625-10.238282-3.90625-14.140625 0-3.90625 3.90625-3.90625 10.234375 0 14.140625l24.382812 24.382813c1.953125 1.953125 4.507813 2.929687 7.070313 2.929687 2.558594 0 5.117187-.976562 7.070312-2.929687l48.765625-48.761719c3.902344-3.90625 3.902344-10.238281 0-14.144531-3.90625-3.90625-10.238281-3.902344-14.144531 0zm0 0"
				  fill="#bf192a"/>
			<path d="m171.007812 172.832031h115.8125c5.523438 0 10-4.476562 10-10 0-5.523437-4.476562-10-10-10h-115.8125c-5.523437 0-10 4.476563-10 10 0 5.523438 4.476563 10 10 10zm0 0"/>
			<path d="m171.007812 291.335938h115.8125c5.523438 0 10-4.476563 10-10 0-5.523438-4.476562-10-10-10h-115.8125c-5.523437 0-10 4.476562-10 10 0 5.523437 4.476563 10 10 10zm0 0"/>
			<path d="m171.007812 409.839844h115.8125c5.523438 0 10-4.476563 10-10 0-5.523438-4.476562-10-10-10h-115.8125c-5.523437 0-10 4.476562-10 10 0 5.523437 4.476563 10 10 10zm0 0"/>
			<path d="m10 441.996094c5.507812 0 10-4.488282 10-10 0-5.507813-4.492188-10-10-10s-10 4.492187-10 10c0 5.511718 4.492188 10 10 10zm0 0"/>
			<path d="m347.535156 99.425781c-5.507812 0-10 4.488281-10 10 0 5.507813 4.492188 10 10 10 5.507813 0 10-4.492187 10-10 0-5.511719-4.492187-10-10-10zm0 0"/>
		</g>
	</symbol>
	<symbol id="docs" viewBox="0 0 101 75.6">
		<g>
			<g>
				<g>
					<path d="M44.3,16.8h12.5c0.7,0,1.3-0.6,1.3-1.3s-0.6-1.3-1.3-1.3H44.3c-0.7,0-1.3,0.6-1.3,1.3S43.6,16.8,44.3,16.8z" fill="#515151"/>
					<path d="M39.3,24.3h22.5c0.7,0,1.3-0.6,1.3-1.3s-0.6-1.3-1.3-1.3H39.3c-0.7,0-1.3,0.6-1.3,1.3 C38,23.7,38.6,24.3,39.3,24.3z" fill="#515151"/>
					<path d="M50.5,30C40.9,30,33,37.9,33,47.5S40.9,65,50.5,65S68,57.2,68,47.5S60.2,30,50.5,30z M55,42.3 c-1.3,0.1-2.8,0.2-4.5,0.2s-3.2-0.1-4.5-0.2c1-5,3.3-8,4.5-9.3C51.7,34.3,54,37.3,55,42.3z M55.4,44.7c0.1,0.9,0.2,1.8,0.2,2.8 s-0.1,1.9-0.1,2.8c-1.4-0.2-3-0.3-4.8-0.3s-3.4,0.1-4.9,0.3c-0.1-0.9-0.2-1.8-0.2-2.8s0.1-1.9,0.2-2.8c1.4,0.2,3,0.3,4.9,0.3 C52.3,45,53.9,44.9,55.4,44.7z M47.4,32.8c-1.4,1.9-3,4.9-3.9,9.1c-3.2-0.6-5-1.6-5.8-2.2C39.9,36.2,43.3,33.7,47.4,32.8z M35.5,47.5c0-2,0.4-3.8,1.1-5.5c1.2,0.8,3.3,1.8,6.6,2.4c-0.1,1-0.2,2-0.2,3.1s0.1,2.1,0.2,3.1c-3.3,0.6-5.4,1.6-6.6,2.4 C35.9,51.3,35.5,49.5,35.5,47.5z M37.7,55.3c0.8-0.6,2.6-1.6,5.8-2.2c0.8,4.2,2.5,7.2,3.9,9.1C43.3,61.3,39.9,58.8,37.7,55.3z M46,52.7c1.3-0.1,2.8-0.2,4.5-0.2s3.2,0.1,4.5,0.2c-1,5-3.3,8-4.5,9.3C49.3,60.7,47,57.7,46,52.7z M53.6,62.2 c1.4-1.9,3-4.9,3.9-9.1c3.2,0.6,5,1.6,5.8,2.2C61.2,58.8,57.7,61.3,53.6,62.2z M65.5,47.5c0,2-0.4,3.8-1.1,5.5 c-1.2-0.8-3.3-1.8-6.6-2.4c0.1-1,0.2-2,0.2-3.1s-0.1-2.1-0.2-3.1c3.3-0.6,5.4-1.6,6.6-2.4C65.1,43.7,65.5,45.5,65.5,47.5z M57.5,41.9c-0.8-4.2-2.5-7.2-3.9-9.1c4.1,0.9,7.6,3.4,9.7,6.9C62.5,40.3,60.7,41.3,57.5,41.9z" fill="#bf192a"/>
					<path d="M71.8,5h-1.3V3.8c0-2.1-1.7-3.8-3.8-3.8h-40c-2,0-3.7,1.7-3.7,3.8v70c0,0.7,0.6,1.3,1.3,1.3h47.5 c3.5,0,6.3-2.7,6.3-6.3V11.3C78,7.8,75.2,5,71.8,5z M75.5,68.8c0,2.1-1.6,3.8-3.8,3.8H25.5V3.8c0-0.7,0.6-1.3,1.3-1.3h40 c0.7,0,1.3,0.6,1.3,1.3V5H29.3C28.6,5,28,5.6,28,6.3s0.6,1.3,1.3,1.3h42.5c2,0,3.8,1.7,3.8,3.8L75.5,68.8L75.5,68.8z" fill="#515151"/>
				</g>
			</g>
		</g>
	</symbol>
	<symbol id="ok" viewBox="0 0 90 90">
		<path d="M44.9882 5.53634e-05C26.8016 5.53634e-05 10.3774 10.9671 3.42152 27.7832C-3.53438 44.5993 0.309181 63.9463 13.1898 76.8255C30.7577 94.3915 59.2562 94.3915 76.8241 76.8255C94.392 59.2595 94.392 30.764 76.8241 13.198C68.387 4.72432 56.9313 -0.0186917 44.9882 5.53634e-05ZM44.9882 85.8241C22.4893 85.8241 4.17149 67.5082 4.17149 45.0117C4.17149 22.5153 22.4893 4.1994 44.9882 4.1994C67.4871 4.1994 85.8049 22.5153 85.8049 45.0117C85.8049 67.5082 67.4871 85.8241 44.9882 85.8241Z" fill="#515151"/>
		<path d="M66.4668 31.5789L39.3514 57.896L24.5611 42.8931C23.752 42.0713 22.416 42.0713 21.6069 42.8931C20.7977 43.715 20.7977 45.0719 21.6069 45.8937L37.846 62.3873C38.2411 62.7887 38.7868 63.018 39.3325 62.9989C39.8782 62.9989 40.4051 62.7887 40.7815 62.4064L69.3646 34.6559C70.1925 33.8341 70.2114 32.4963 69.421 31.6553C68.6307 30.8144 67.3135 30.7762 66.4668 31.5789Z" fill="#bf192a"/>
	</symbol>
</svg>
