<?xml version="1.0" encoding="utf-8"?>
<!-- Generator: Adobe Illustrator 24.3.0, SVG Export Plug-In . SVG Version: 6.00 Build 0)  -->
<svg version="1.1" id="Слой_1" xmlns="http://www.w3.org/2000/svg" xmlns:xlink="http://www.w3.org/1999/xlink" x="0px" y="0px"
	 viewBox="0 0 4975 1371" style="enable-background:new 0 0 4975 1371;" xml:space="preserve">
<style type="text/css">
	.st0{fill:#FFFFFF;}
	.st1{fill:#EFEFEF;}
</style>
<path id="A" class="st0" d="M667.66,372.55h-220c-41.97,0-76,34.03-76,76v296h79.26V623.81h210v120.74h82.74v-296
	C743.66,406.58,709.63,372.55,667.66,372.55z M661.51,542.96h-209v-89h209V542.96z"/>
<path id="G" class="st0" d="M1091.95,483.52v-30.16h-210v210h210v-55.97h-80.48v-80.51h162.09v141.53c0,41.98-34.02,76-76,76h-220
	c-41.97,0-76-34.02-76-76v-220c0-41.97,34.03-76,76-76h220c41.98,0,76,34.03,76,76v35.11H1091.95z"/>
<path id="O" class="st0" d="M1524.85,372.39h-220c-41.97,0-76,34.03-76,76v220c0,41.98,34.03,76,76,76h220c41.98,0,76-34.02,76-76
	v-220C1600.85,406.42,1566.83,372.39,1524.85,372.39z M1519.45,662.86h-210v-210h210V662.86z"/>
<polygon id="N" class="st0" points="2028.45,371.86 2028.45,743.86 1945,743.86 1945,743.63 1737.87,496.77 1737.44,742.67 
	1737.44,743.86 1656.45,743.86 1656.45,371.86 1739.65,371.86 1740.1,372.39 1947.21,618.36 1947.21,371.86 "/>
<g id="BY_AOC">
	<path id="O_1_" class="st0" d="M1787.48,998.56c46.81,0,79.76-10.15,79.76-62.42v-47.68c0-51.73-32.95-61.89-79.76-61.89
		c-46.27,0-79.18,10.16-79.18,61.89v47.68C1708.3,988.41,1741.21,998.56,1787.48,998.56 M1787.48,958.97
		c-23.64,0-31.36-2.54-31.89-27.38v-38.07c0.53-25.35,8.25-27.9,31.89-27.9c24.2,0,32.41,2.55,32.41,27.9v38.07
		C1819.88,956.44,1811.68,958.97,1787.48,958.97"/>
	<path id="C" class="st0" d="M2031.85,933.1v5.07c0,18.29-0.5,35.01-15.86,47.68c-15.37,12.71-34.25,12.71-54.2,12.71
		c-45.99,0-79.73-2.53-79.73-64.45v-43.62c0-55.82,30.17-63.94,79.73-63.94c47.07,0,69.02,4.58,69.56,55.31v6.59h-46.56v-6.59
		c-1.5-14.71-12.26-16.23-27.57-16.23c-26.08,0-28.64,8.1-28.64,31.97v26.88c0,24.86,1.04,34.5,28.64,34.5
		c18.93,0,27.57-1.01,27.57-20.8v-5.07H2031.85z"/>
	<path id="A_1_" class="st0" d="M1569.31,998.56l49.48-108.99c8.18-17.57,12.78-23.25,30.1-23.25v48.06v40.28v43.9h45.45v-172
		h-51.09c-42.33,0-50.47,18.05-70.91,63.01l-50,108.99H1569.31z"/>
	<polygon id="y" class="st0" points="1477.01,885.2 1425.92,954.88 1425.92,998.55 1403.21,998.55 1403.21,955.39 1351.08,885.2 
		1377.33,885.2 1414.05,930.62 1450.1,885.2 	"/>
	<path id="b" class="st0" d="M1341,936.91c1.16-2.87,1.79-6.01,1.79-9.29V905.2c0-10.03-7.38-18.33-17-19.78
		c-0.98-0.14-1.98-0.22-3-0.22h-88.36v113.35h87.52c1.3,0,2.59-0.1,3.84-0.3c11.99-1.84,21.16-12.2,21.16-24.7v-22.42
		C1346.95,945.56,1344.68,940.53,1341,936.91z M1257.4,908.17h61.16v20.38h-61.16V908.17z M1324.29,974.49h-66.89v-22.97h66.89
		V974.49z"/>
</g>
<g id="magazin">
	<path class="st1" d="M2314.84,605.55c-13.34,0-25.71-2.25-37.12-6.75c-11.42-4.5-21.29-10.79-29.62-18.88
		c-8.34-8.08-14.84-17.54-19.5-28.38c-4.67-10.83-7-22.66-7-35.5c0-12.83,2.33-24.66,7-35.5c4.66-10.83,11.16-20.29,19.5-28.38
		c8.33-8.08,18.16-14.38,29.5-18.88c11.33-4.5,23.75-6.75,37.25-6.75c13.33,0,25.66,2.21,37,6.62c11.33,4.42,21.16,10.67,29.5,18.75
		c8.33,8.09,14.79,17.59,19.38,28.5c4.58,10.92,6.88,22.79,6.88,35.62c0,13-2.29,24.92-6.88,35.75
		c-4.59,10.84-11.04,20.29-19.38,28.38c-8.34,8.09-18.17,14.34-29.5,18.75C2340.5,603.34,2328.17,605.55,2314.84,605.55z
		 M2314.59,583.3c9.83,0,18.88-1.66,27.12-5c8.25-3.33,15.41-8.04,21.5-14.12c6.08-6.08,10.83-13.21,14.25-21.38
		c3.41-8.16,5.12-17.08,5.12-26.75c0-9.66-1.71-18.54-5.12-26.62c-3.42-8.08-8.17-15.21-14.25-21.38
		c-6.09-6.16-13.25-10.91-21.5-14.25c-8.25-3.33-17.29-5-27.12-5c-9.67,0-18.62,1.67-26.88,5c-8.25,3.34-15.46,8.09-21.62,14.25
		c-6.17,6.17-10.96,13.29-14.38,21.38c-3.42,8.09-5.12,16.96-5.12,26.62c0,9.67,1.71,18.59,5.12,26.75
		c3.41,8.17,8.21,15.29,14.38,21.38c6.16,6.09,13.38,10.79,21.62,14.12C2295.96,581.63,2304.92,583.3,2314.59,583.3z"/>
	<path class="st1" d="M2523.09,605.55c-0.17,0-0.71,0-1.62,0c-0.92,0-1.79,0-2.62,0c-0.84,0-1.34,0-1.5,0
		c-27.17-0.34-48.25-6.38-63.25-18.12s-22.5-28.54-22.5-50.38c0-21.66,7.54-38.29,22.62-49.88c15.08-11.58,36.38-17.46,63.88-17.62
		c0.33,0,0.88,0,1.62,0s1.5,0,2.25,0s1.21,0,1.38,0c27.83,0,49.46,5.84,64.88,17.5c15.41,11.67,23.12,28.34,23.12,50
		c0,22-7.75,38.92-23.25,50.75C2572.59,599.63,2550.92,605.55,2523.09,605.55z M2522.59,584.55c14.5,0,26.54-1.83,36.12-5.5
		c9.58-3.66,16.79-9,21.62-16c4.83-7,7.25-15.66,7.25-26c0-10.16-2.42-18.66-7.25-25.5c-4.84-6.83-12.04-12-21.62-15.5
		c-9.59-3.5-21.62-5.25-36.12-5.25c-0.34,0-1,0-2,0s-1.59,0-1.75,0c-14.17,0-25.96,1.79-35.38,5.38
		c-9.42,3.59-16.46,8.79-21.12,15.62c-4.67,6.84-7,15.25-7,25.25c0,10.17,2.38,18.75,7.12,25.75s11.83,12.34,21.25,16
		c9.41,3.67,21.12,5.59,35.12,5.75c0.33,0,0.96,0,1.88,0C2521.63,584.55,2522.25,584.55,2522.59,584.55z M2509.59,652.05v-234h23.5
		v234H2509.59z"/>
	<path class="st1" d="M2645.33,603.55v-132.5h24v96.5l81.25-96.5h21.75v132.5h-24v-96.5l-81,96.5H2645.33z"/>
	<path class="st1" d="M2818.83,603.55v-132.5h24v111.5h72.5v-111.5h24v132.5H2818.83z M2937.58,634.3v-32l6,1.25h-28.25v-21h45
		v51.75H2937.58z"/>
	<path class="st1" d="M2991.33,603.55v-132.5h24v96.5l81.25-96.5h21.75v132.5h-24v-96.5l-81,96.5H2991.33z"/>
	<path class="st1" d="M3202.57,605.05c-9.84,0-18.46-1.66-25.88-5c-7.42-3.33-13.12-7.96-17.12-13.88c-4-5.91-6-12.62-6-20.12
		c0-7.16,1.71-13.66,5.12-19.5c3.41-5.83,9-10.5,16.75-14s18.21-5.25,31.38-5.25h42v17.25h-41c-12,0-20.09,2-24.25,6
		c-4.17,4-6.25,8.84-6.25,14.5c0,6.5,2.58,11.71,7.75,15.62c5.16,3.92,12.33,5.88,21.5,5.88c9,0,16.88-2,23.62-6
		s11.62-9.83,14.62-17.5l4.75,16.5c-3.17,7.84-8.75,14.04-16.75,18.62C3224.82,602.76,3214.74,605.05,3202.57,605.05z
		 M3246.07,603.55v-28l-1.25-5.25v-47.75c0-10.16-2.96-18.04-8.88-23.62c-5.92-5.58-14.79-8.38-26.62-8.38
		c-7.84,0-15.5,1.29-23,3.88c-7.5,2.59-13.84,6.04-19,10.38l-10-18c6.83-5.5,15.04-9.71,24.62-12.62
		c9.58-2.91,19.62-4.38,30.12-4.38c18.16,0,32.16,4.42,42,13.25c9.83,8.84,14.75,22.34,14.75,40.5v80H3246.07z"/>
	<path class="st1" d="M3290.07,603.3l1.5-20.25c1.16,0.17,2.25,0.34,3.25,0.5c1,0.17,1.91,0.25,2.75,0.25
		c5.33,0,9.54-1.83,12.62-5.5c3.08-3.66,5.38-8.54,6.88-14.62c1.5-6.08,2.58-12.96,3.25-20.62c0.66-7.66,1.16-15.33,1.5-23l2.25-49
		h101.75v132.5h-24v-118.5l5.75,7h-68l5.5-7.25l-1.75,36.75c-0.5,11.67-1.42,22.59-2.75,32.75c-1.34,10.17-3.38,19.09-6.12,26.75
		c-2.75,7.67-6.5,13.67-11.25,18c-4.75,4.34-10.88,6.5-18.38,6.5c-2.17,0-4.46-0.21-6.88-0.62
		C3295.53,604.51,3292.9,603.96,3290.07,603.3z"/>
	<path class="st1" d="M3533.57,516.05c16.83,0.17,29.66,4,38.5,11.5c8.83,7.5,13.25,18.09,13.25,31.75
		c0,14.34-4.84,25.38-14.5,33.12c-9.67,7.75-23.34,11.54-41,11.38l-57.5-0.25v-132.5h24v44.75L3533.57,516.05z M3527.82,585.55
		c10.83,0.17,19.04-2,24.62-6.5c5.58-4.5,8.38-11.16,8.38-20c0-8.66-2.75-15-8.25-19s-13.75-6.08-24.75-6.25l-31.5-0.5v52
		L3527.82,585.55z"/>
	<path class="st1" d="M3616.07,603.55v-132.5h24v56.25h75.5v-56.25h24v132.5h-24v-55.5h-75.5v55.5H3616.07z"/>
	<path class="st1" d="M3846.07,516.05c16.83,0.17,29.62,4,38.38,11.5s13.12,18.09,13.12,31.75c0,14.34-4.79,25.38-14.38,33.12
		c-9.59,7.75-23.29,11.54-41.12,11.38l-55.75-0.25v-132.5h24v44.75L3846.07,516.05z M3840.32,585.55c10.66,0.17,18.83-2,24.5-6.5
		c5.66-4.5,8.5-11.16,8.5-20c0-8.66-2.79-15-8.38-19c-5.59-4-13.79-6.08-24.62-6.25l-30-0.5v52L3840.32,585.55z M3917.32,603.55
		v-132.5h24v132.5H3917.32z"/>
	<path class="st1" d="M3988.07,603.55v-132.5h24v96.5l81.25-96.5h21.75v132.5h-24v-96.5l-81,96.5H3988.07z M4050.07,453.8
		c-12.17,0-21.71-2.96-28.62-8.88c-6.92-5.91-10.46-14.46-10.62-25.62h16.25c0.16,6.34,2.29,11.34,6.38,15
		c4.08,3.67,9.54,5.5,16.38,5.5c6.83,0,12.33-1.83,16.5-5.5c4.16-3.66,6.33-8.66,6.5-15h16.75c-0.17,11.17-3.75,19.71-10.75,25.62
		C4071.82,450.84,4062.23,453.8,4050.07,453.8z"/>
	<path class="st1" d="M2232.09,903.55v-132.5h24v96.5l81.25-96.5h21.75v132.5h-24v-96.5l-81,96.5H2232.09z"/>
	<path class="st1" d="M2405.58,903.55v-132.5h24v56.25h75.5v-56.25h24v132.5h-24v-55.5h-75.5v55.5H2405.58z"/>
	<path class="st1" d="M2602.08,903.55V785.8l6,6.25h-54.5v-21h121v21h-54.25l5.75-6.25v117.75H2602.08z"/>
	<path class="st1" d="M2752.33,905.05c-14.17,0-26.62-2.91-37.38-8.75c-10.75-5.83-19.09-13.83-25-24
		c-5.92-10.16-8.88-21.83-8.88-35c0-13.16,2.88-24.83,8.62-35c5.75-10.16,13.66-18.12,23.75-23.88c10.08-5.75,21.46-8.62,34.12-8.62
		c12.83,0,24.16,2.84,34,8.5c9.83,5.67,17.54,13.62,23.12,23.88c5.58,10.25,8.38,22.21,8.38,35.88c0,1-0.04,2.17-0.12,3.5
		c-0.09,1.34-0.21,2.59-0.38,3.75h-112.75v-17.25h100.25l-9.75,6c0.16-8.5-1.59-16.08-5.25-22.75c-3.67-6.66-8.71-11.88-15.12-15.62
		c-6.42-3.75-13.88-5.62-22.38-5.62c-8.34,0-15.75,1.88-22.25,5.62s-11.59,9-15.25,15.75c-3.67,6.75-5.5,14.46-5.5,23.12v4
		c0,8.84,2.04,16.71,6.12,23.62c4.08,6.92,9.79,12.29,17.12,16.12c7.33,3.84,15.75,5.75,25.25,5.75c7.83,0,14.96-1.33,21.38-4
		c6.41-2.66,12.04-6.66,16.88-12l13.25,15.5c-6,7-13.46,12.34-22.38,16C2773.29,903.22,2763.33,905.05,2752.33,905.05z"/>
	<path class="st1" d="M2850.33,952.05v-181h23v35.75l-1.5,30.75l2.5,30.75v83.75H2850.33z M2920.58,905.05
		c-11,0-21.04-2.54-30.12-7.62c-9.09-5.08-16.34-12.62-21.75-22.62c-5.42-10-8.12-22.5-8.12-37.5s2.62-27.5,7.88-37.5
		s12.41-17.5,21.5-22.5c9.08-5,19.29-7.5,30.62-7.5c13,0,24.5,2.84,34.5,8.5c10,5.67,17.91,13.54,23.75,23.62
		c5.83,10.09,8.75,21.88,8.75,35.38s-2.92,25.34-8.75,35.5c-5.84,10.17-13.75,18.09-23.75,23.75
		C2945.08,902.22,2933.58,905.05,2920.58,905.05z M2918.58,884.05c8.5,0,16.12-1.91,22.88-5.75c6.75-3.83,12.08-9.29,16-16.38
		c3.91-7.08,5.88-15.29,5.88-24.62c0-9.5-1.96-17.71-5.88-24.62c-3.92-6.91-9.25-12.29-16-16.12c-6.75-3.83-14.38-5.75-22.88-5.75
		c-8.34,0-15.88,1.92-22.62,5.75c-6.75,3.84-12.09,9.21-16,16.12c-3.92,6.92-5.88,15.12-5.88,24.62c0,9.34,1.96,17.54,5.88,24.62
		c3.91,7.09,9.25,12.54,16,16.38C2902.71,882.13,2910.25,884.05,2918.58,884.05z"/>
	<path class="st1" d="M3022.33,903.55v-132.5h24v56.25h75.5v-56.25h24v132.5h-24v-55.5h-75.5v55.5H3022.33z"/>
	<path class="st1" d="M3251.58,905.05c-14.17,0-26.62-2.91-37.38-8.75c-10.75-5.83-19.09-13.83-25-24
		c-5.92-10.16-8.88-21.83-8.88-35c0-13.16,2.88-24.83,8.62-35c5.75-10.16,13.66-18.12,23.75-23.88c10.08-5.75,21.46-8.62,34.12-8.62
		c12.83,0,24.16,2.84,34,8.5c9.83,5.67,17.54,13.62,23.12,23.88c5.58,10.25,8.38,22.21,8.38,35.88c0,1-0.04,2.17-0.12,3.5
		c-0.09,1.34-0.21,2.59-0.38,3.75h-112.75v-17.25h100.25l-9.75,6c0.16-8.5-1.59-16.08-5.25-22.75c-3.67-6.66-8.71-11.88-15.12-15.62
		c-6.42-3.75-13.88-5.62-22.38-5.62c-8.34,0-15.75,1.88-22.25,5.62s-11.59,9-15.25,15.75c-3.67,6.75-5.5,14.46-5.5,23.12v4
		c0,8.84,2.04,16.71,6.12,23.62c4.08,6.92,9.79,12.29,17.12,16.12c7.33,3.84,15.75,5.75,25.25,5.75c7.83,0,14.96-1.33,21.38-4
		c6.41-2.66,12.04-6.66,16.88-12l13.25,15.5c-6,7-13.46,12.34-22.38,16C3272.54,903.22,3262.58,905.05,3251.58,905.05z"/>
	<path class="st1" d="M3370.33,903.55V785.8l6,6.25h-54.5v-21h121v21h-54.25l5.75-6.25v117.75H3370.33z"/>
	<path class="st1" d="M3453.58,845.3v-20.75h67.25v20.75H3453.58z"/>
	<path class="st1" d="M3558.33,903.55v-132.5h24.75l57,98h-10l58.5-98h22.5v132.5h-21.75v-105.5l4,2.25l-53.5,88.25h-10.5l-53.75-90
		l4.75-1v106H3558.33z"/>
	<path class="st1" d="M3795.58,905.05c-9.84,0-18.46-1.66-25.88-5c-7.42-3.33-13.12-7.96-17.12-13.88c-4-5.91-6-12.62-6-20.12
		c0-7.16,1.71-13.66,5.12-19.5c3.41-5.83,9-10.5,16.75-14s18.21-5.25,31.38-5.25h42v17.25h-41c-12,0-20.09,2-24.25,6
		c-4.17,4-6.25,8.84-6.25,14.5c0,6.5,2.58,11.71,7.75,15.62c5.16,3.92,12.33,5.88,21.5,5.88c9,0,16.88-2,23.62-6
		s11.62-9.83,14.62-17.5l4.75,16.5c-3.17,7.84-8.75,14.04-16.75,18.62C3817.83,902.76,3807.74,905.05,3795.58,905.05z
		 M3839.08,903.55v-28l-1.25-5.25v-47.75c0-10.16-2.96-18.04-8.88-23.62c-5.92-5.58-14.79-8.38-26.62-8.38
		c-7.84,0-15.5,1.29-23,3.88c-7.5,2.59-13.84,6.04-19,10.38l-10-18c6.83-5.5,15.04-9.71,24.62-12.62
		c9.58-2.91,19.62-4.38,30.12-4.38c18.16,0,32.16,4.42,42,13.25c9.83,8.84,14.75,22.34,14.75,40.5v80H3839.08z"/>
	<path class="st1" d="M3905.07,903.55v-132.5h97.5v21h-79.25l5.75-5.5v117H3905.07z"/>
	<path class="st1" d="M4064.82,905.05c-9.84,0-18.46-1.66-25.88-5c-7.42-3.33-13.12-7.96-17.12-13.88c-4-5.91-6-12.62-6-20.12
		c0-7.16,1.71-13.66,5.12-19.5c3.41-5.83,9-10.5,16.75-14s18.21-5.25,31.38-5.25h42v17.25h-41c-12,0-20.09,2-24.25,6
		c-4.17,4-6.25,8.84-6.25,14.5c0,6.5,2.58,11.71,7.75,15.62c5.16,3.92,12.33,5.88,21.5,5.88c9,0,16.88-2,23.62-6
		s11.62-9.83,14.62-17.5l4.75,16.5c-3.17,7.84-8.75,14.04-16.75,18.62C4087.07,902.76,4076.99,905.05,4064.82,905.05z
		 M4108.32,903.55v-28l-1.25-5.25v-47.75c0-10.16-2.96-18.04-8.88-23.62c-5.92-5.58-14.79-8.38-26.62-8.38
		c-7.84,0-15.5,1.29-23,3.88c-7.5,2.59-13.84,6.04-19,10.38l-10-18c6.83-5.5,15.04-9.71,24.62-12.62
		c9.58-2.91,19.62-4.38,30.12-4.38c18.16,0,32.16,4.42,42,13.25c9.83,8.84,14.75,22.34,14.75,40.5v80H4108.32z"/>
	<path class="st1" d="M4181.45,901.42c-9.59-2.58-18.12-6.29-25.62-11.12l7.25-18.25c6.33,4,13.58,7.12,21.75,9.38
		c8.16,2.25,16.41,3.38,24.75,3.38c7.66,0,14.29-0.91,19.88-2.75c5.58-1.83,9.88-4.38,12.88-7.62s4.5-7.04,4.5-11.38
		c0-6.16-2.75-10.91-8.25-14.25c-5.5-3.33-13.17-5-23-5h-24v-17.25h22.5c5.83,0,10.91-0.66,15.25-2c4.33-1.33,7.71-3.38,10.12-6.12
		c2.41-2.75,3.62-5.96,3.62-9.62c0-4-1.42-7.41-4.25-10.25c-2.84-2.83-6.79-5-11.88-6.5c-5.09-1.5-11.04-2.25-17.88-2.25
		c-6.67,0.17-13.46,1.09-20.38,2.75c-6.92,1.67-13.96,4.25-21.12,7.75l-6.5-18.75c8-3.83,15.88-6.79,23.62-8.88
		c7.75-2.08,15.46-3.21,23.12-3.38c11.5-0.33,21.75,0.96,30.75,3.88c9,2.92,16.12,7.12,21.38,12.62s7.88,12,7.88,19.5
		c0,6.34-2,11.96-6,16.88c-4,4.92-9.34,8.79-16,11.62c-6.67,2.84-14.34,4.25-23,4.25l1-5.75c14.83,0,26.5,2.92,35,8.75
		c8.5,5.84,12.75,13.75,12.75,23.75c0,8-2.67,15.04-8,21.12c-5.34,6.09-12.54,10.84-21.62,14.25c-9.09,3.41-19.46,5.12-31.12,5.12
		C4200.82,905.3,4191.03,904.01,4181.45,901.42z"/>
	<path class="st1" d="M4308.07,903.55v-132.5h24v96.5l81.25-96.5h21.75v132.5h-24v-96.5l-81,96.5H4308.07z"/>
	<path class="st1" d="M4481.57,903.55v-132.5h24v56.25h75.5v-56.25h24v132.5h-24v-55.5h-75.5v55.5H4481.57z"/>
</g>
</svg>
