<?xml version="1.0" encoding="utf-8"?>
<!-- Generator: Adobe Illustrator 24.3.0, SVG Export Plug-In . SVG Version: 6.00 Build 0)  -->
<svg version="1.1" id="Слой_1" xmlns="http://www.w3.org/2000/svg" xmlns:xlink="http://www.w3.org/1999/xlink" x="0px" y="0px"
	 viewBox="0 0 4975 1371" style="enable-background:new 0 0 4975 1371;" xml:space="preserve">
<style type="text/css">
	.st0{fill:#A8A8A8;}
</style>
<path id="A" d="M667.66,372.55h-220c-41.97,0-76,34.03-76,76v296h79.26V623.81h210v120.74h82.74v-296
	C743.66,406.58,709.63,372.55,667.66,372.55z M661.51,542.96h-209v-89h209V542.96z"/>
<path id="G" d="M1091.95,483.52v-30.16h-210v210h210v-55.97h-80.48v-80.51h162.09v141.53c0,41.98-34.02,76-76,76h-220
	c-41.97,0-76-34.02-76-76v-220c0-41.97,34.03-76,76-76h220c41.98,0,76,34.03,76,76v35.11H1091.95z"/>
<path id="O" d="M1524.85,372.39h-220c-41.97,0-76,34.03-76,76v220c0,41.98,34.03,76,76,76h220c41.98,0,76-34.02,76-76v-220
	C1600.85,406.42,1566.83,372.39,1524.85,372.39z M1519.45,662.86h-210v-210h210V662.86z"/>
<polygon id="N" points="2028.45,371.86 2028.45,743.86 1945,743.86 1945,743.63 1737.87,496.77 1737.44,742.67 1737.44,743.86 
	1656.45,743.86 1656.45,371.86 1739.65,371.86 1740.1,372.39 1947.21,618.36 1947.21,371.86 "/>
<g id="BY_AOC">
	<path id="O_1_" d="M1787.48,998.56c46.81,0,79.76-10.15,79.76-62.42v-47.68c0-51.73-32.95-61.89-79.76-61.89
		c-46.27,0-79.18,10.16-79.18,61.89v47.68C1708.3,988.41,1741.21,998.56,1787.48,998.56 M1787.48,958.97
		c-23.64,0-31.36-2.54-31.89-27.38v-38.07c0.53-25.35,8.25-27.9,31.89-27.9c24.2,0,32.41,2.55,32.41,27.9v38.07
		C1819.88,956.44,1811.68,958.97,1787.48,958.97"/>
	<path id="C" d="M2031.85,933.1v5.07c0,18.29-0.5,35.01-15.86,47.68c-15.37,12.71-34.25,12.71-54.2,12.71
		c-45.99,0-79.73-2.53-79.73-64.45v-43.62c0-55.82,30.17-63.94,79.73-63.94c47.07,0,69.02,4.58,69.56,55.31v6.59h-46.56v-6.59
		c-1.5-14.71-12.26-16.23-27.57-16.23c-26.08,0-28.64,8.1-28.64,31.97v26.88c0,24.86,1.04,34.5,28.64,34.5
		c18.93,0,27.57-1.01,27.57-20.8v-5.07H2031.85z"/>
	<path id="A_1_" d="M1569.31,998.56l49.48-108.99c8.18-17.57,12.78-23.25,30.1-23.25v48.06v40.28v43.9h45.45v-172h-51.09
		c-42.33,0-50.47,18.05-70.91,63.01l-50,108.99H1569.31z"/>
	<polygon id="y" points="1477.01,885.2 1425.92,954.88 1425.92,998.55 1403.21,998.55 1403.21,955.39 1351.08,885.2 1377.33,885.2 
		1414.05,930.62 1450.1,885.2 	"/>
	<path id="b" d="M1341,936.91c1.16-2.87,1.79-6.01,1.79-9.29V905.2c0-10.03-7.38-18.33-17-19.78c-0.98-0.14-1.98-0.22-3-0.22h-88.36
		v113.35h87.52c1.3,0,2.59-0.1,3.84-0.3c11.99-1.84,21.16-12.2,21.16-24.7v-22.42C1346.95,945.56,1344.68,940.53,1341,936.91z
		 M1257.4,908.17h61.16v20.38h-61.16V908.17z M1324.29,974.49h-66.89v-22.97h66.89V974.49z"/>
</g>
<g id="magazin">
	<path class="st0" d="M2370.18,616.34c-14.17,0-27.29-2.25-39.38-6.75c-12.09-4.5-22.54-10.88-31.38-19.12
		c-8.84-8.25-15.71-17.96-20.62-29.12c-4.92-11.16-7.38-23.33-7.38-36.5c0-13.33,2.46-25.54,7.38-36.62
		c4.91-11.08,11.79-20.75,20.62-29c8.83-8.25,19.29-14.62,31.38-19.12c12.08-4.5,25.21-6.75,39.38-6.75c14.33,0,27.5,2.25,39.5,6.75
		s22.41,10.88,31.25,19.12c8.83,8.25,15.71,17.92,20.62,29c4.91,11.09,7.38,23.29,7.38,36.62c0,13.17-2.46,25.34-7.38,36.5
		c-4.92,11.17-11.79,20.88-20.62,29.12c-8.84,8.25-19.25,14.62-31.25,19.12S2384.51,616.34,2370.18,616.34z M2370.18,568.59
		c5.5,0,10.62-1,15.38-3s8.91-4.88,12.5-8.62c3.58-3.75,6.38-8.33,8.38-13.75c2-5.41,3-11.54,3-18.38c0-6.83-1-12.96-3-18.38
		c-2-5.41-4.79-10-8.38-13.75c-3.59-3.75-7.75-6.62-12.5-8.62s-9.88-3-15.38-3s-10.62,1-15.38,3s-8.92,4.88-12.5,8.62
		c-3.59,3.75-6.38,8.34-8.38,13.75c-2,5.42-3,11.54-3,18.38c0,6.84,1,12.96,3,18.38c2,5.42,4.79,10,8.38,13.75
		c3.58,3.75,7.75,6.62,12.5,8.62S2364.68,568.59,2370.18,568.59z"/>
	<path class="st0" d="M2590.68,602.34c-24.17,0-44.46-3-60.88-9c-16.42-6-28.79-14.83-37.12-26.5c-8.34-11.66-12.5-25.91-12.5-42.75
		c0-16.83,4.16-31.04,12.5-42.62c8.33-11.58,20.75-20.38,37.25-26.38s36.83-9,61-9c0.33,0,1.66,0,4,0c2.33,0,4.66,0,7,0
		c2.33,0,3.58,0,3.75,0c23.83,0,43.79,3.04,59.88,9.12c16.08,6.09,28.21,14.92,36.38,26.5c8.16,11.59,12.25,25.71,12.25,42.38
		c0,16.5-3.96,30.59-11.88,42.25c-7.92,11.67-19.71,20.59-35.38,26.75c-15.67,6.17-35.09,9.25-58.25,9.25c-0.5,0-2.12,0-4.87,0
		c-2.75,0-5.46,0-8.12,0C2593.01,602.34,2591.34,602.34,2590.68,602.34z M2595.93,557.34c0.5,0,1.41,0,2.75,0c1.33,0,2.25,0,2.75,0
		c13.5,0,24.33-1.12,32.5-3.38c8.16-2.25,14.08-5.83,17.75-10.75c3.66-4.91,5.5-11.38,5.5-19.38s-1.92-14.38-5.75-19.12
		c-3.84-4.75-9.79-8.21-17.88-10.38c-8.09-2.16-18.54-3.25-31.37-3.25c-0.67,0-1.67,0-3,0c-1.34,0-2.42,0-3.25,0
		c-14.34,0-25.79,1.04-34.38,3.12c-8.59,2.09-14.79,5.54-18.62,10.38c-3.84,4.84-5.75,11.34-5.75,19.5c0,8.17,2.16,14.71,6.5,19.62
		c4.33,4.92,10.88,8.42,19.62,10.5C2572.05,556.3,2582.93,557.34,2595.93,557.34z M2570.18,621.34V428.59h54v192.75H2570.18z"/>
	<path class="st0" d="M2735.18,612.34v-175h58v91l60.25-91h55.5v175h-58v-90.75l-60,90.75H2735.18z"/>
	<path class="st0" d="M2939.92,612.34v-175h58v129.25h55.5V437.34h58v175H2939.92z M3080.42,646.59v-47l12.25,12.75h-39.25v-45.75
		h81v80H3080.42z"/>
	<path class="st0" d="M3154.17,612.34v-175h58v91l60.25-91h55.5v175h-58v-90.75l-60,90.75H3154.17z"/>
	<path class="st0" d="M3344.17,612.34l76.5-175h58l76.5,175h-61l-56.5-147h23l-56.5,147H3344.17z M3389.67,581.84l15-42.5h80.5
		l15,42.5H3389.67z"/>
	<path class="st0" d="M3586.92,615.59c-3.67,0-7.59-0.25-11.75-0.75c-4.17-0.5-8.59-1.34-13.25-2.5l3-47.25
		c2.33,0.5,4.5,0.75,6.5,0.75c6.5,0,11.33-2.66,14.5-8c3.16-5.33,5.33-12.54,6.5-21.62c1.16-9.08,1.91-19.29,2.25-30.62l2.25-68.25
		h147.75v175h-58V470.59l12.75,12.5h-63.75l11.5-13.25l-1,33.5c-0.5,16.84-1.62,32.12-3.38,45.88s-4.71,25.59-8.88,35.5
		c-4.17,9.92-10.04,17.54-17.62,22.88C3608.7,612.92,3598.92,615.59,3586.92,615.59z"/>
	<path class="st0" d="M3869.91,491.09c21.33,0,38.04,4.79,50.12,14.38c12.08,9.59,18.12,24.04,18.12,43.38
		c0,20.84-6.84,36.62-20.5,47.38c-13.67,10.75-32.09,16.12-55.25,16.12h-86.75v-175h58v53.75H3869.91z M3858.41,571.09
		c5.83,0,10.71-1.88,14.62-5.62c3.91-3.75,5.88-8.96,5.88-15.62c0-6.66-1.96-11.25-5.88-13.75c-3.92-2.5-8.79-3.75-14.62-3.75
		h-24.75v38.75H3858.41z"/>
	<path class="st0" d="M4017.41,612.34h-59v-175h59V612.34z M4075.91,547.84h-62.5v-48.5h62.5V547.84z M4071.91,437.34h59v175h-59
		V437.34z"/>
	<path class="st0" d="M4256.16,491.09c21.33,0,38.04,4.79,50.12,14.38c12.08,9.59,18.12,24.04,18.12,43.38
		c0,20.84-6.84,36.62-20.5,47.38c-13.67,10.75-32.09,16.12-55.25,16.12h-86.75v-175h58v53.75H4256.16z M4244.66,571.09
		c5.83,0,10.71-1.88,14.62-5.62c3.91-3.75,5.88-8.96,5.88-15.62c0-6.66-1.96-11.25-5.88-13.75c-3.92-2.5-8.79-3.75-14.62-3.75
		h-24.75v38.75H4244.66z M4340.41,612.34v-175h58v175H4340.41z"/>
	<path class="st0" d="M4429.41,612.34v-175h58v91l60.25-91h55.5v175h-58v-90.75l-60,90.75H4429.41z M4516.16,427.34
		c-19.84,0-33.88-3.71-42.12-11.12c-8.25-7.41-12.38-18.04-12.38-31.88h39.25c0,5.5,1.12,9.54,3.38,12.12
		c2.25,2.59,6.21,3.88,11.88,3.88c5.83,0,9.91-1.29,12.25-3.88c2.33-2.58,3.5-6.62,3.5-12.12h39.25c0,13.84-4.21,24.46-12.62,31.88
		C4550.11,423.63,4535.99,427.34,4516.16,427.34z"/>
	<path class="st0" d="M2278.08,912.34v-140h46.4v72.8l48.2-72.8h44.4v140h-46.4v-72.6l-48,72.6H2278.08z"/>
	<path class="st0" d="M2489.08,912.34h-47.2v-140h47.2V912.34z M2535.88,860.74h-50v-38.8h50V860.74z M2532.68,772.34h47.2v140
		h-47.2V772.34z"/>
	<path class="st0" d="M2636.47,912.34v-113.6l10.2,10.2h-51.2v-36.6h128.4v36.6h-51.2l10.2-10.2v113.6H2636.47z"/>
	<path class="st0" d="M2785.87,876.74h70v35.6h-116.4v-140h113.8v35.6h-67.4V876.74z M2782.67,824.34h62.4v34h-62.4V824.34z"/>
	<path class="st0" d="M2875.07,912.34v-140h67.4c13.07,0,24.37,2.13,33.9,6.4c9.53,4.27,16.9,10.37,22.1,18.3
		c5.2,7.94,7.8,17.3,7.8,28.1c0,10.8-2.6,20.13-7.8,28c-5.2,7.87-12.57,13.97-22.1,18.3c-9.53,4.33-20.83,6.5-33.9,6.5h-41.2
		l21-20.2v54.6H2875.07z M2922.27,862.94l-21-21.4h38.2c6.53,0,11.37-1.46,14.5-4.4c3.13-2.93,4.7-6.93,4.7-12
		c0-5.06-1.57-9.06-4.7-12c-3.13-2.93-7.97-4.4-14.5-4.4h-38.2l21-21.4V862.94z"/>
	<path class="st0" d="M3067.67,912.34h-47.2v-140h47.2V912.34z M3114.47,860.74h-50v-38.8h50V860.74z M3111.27,772.34h47.2v140
		h-47.2V772.34z"/>
	<path class="st0" d="M3229.67,876.74h70v35.6h-116.4v-140h113.8v35.6h-67.4V876.74z M3226.47,824.34h62.4v34h-62.4V824.34z"/>
	<path class="st0" d="M3350.67,912.34v-113.6l10.2,10.2h-51.2v-36.6h128.4v36.6h-51.2l10.2-10.2v113.6H3350.67z"/>
	<path class="st0" d="M3448.27,858.13v-34h60v34H3448.27z"/>
	<path class="st0" d="M3531.67,912.34v-140h38.8l56,91.4h-20.4l54.4-91.4h38.8l0.4,140h-43l-0.4-75.2h6.8l-37.2,62.6h-20.8
		l-38.8-62.6h8.4v75.2H3531.67z"/>
	<path class="st0" d="M3712.47,912.34l61.2-140h46.4l61.2,140h-48.8l-45.2-117.6h18.4l-45.2,117.6H3712.47z M3748.87,887.94l12-34
		h64.4l12,34H3748.87z"/>
	<path class="st0" d="M3894.27,912.34v-140h106.6v36.6h-70.4l10.2-10.2v113.6H3894.27z"/>
	<path class="st0" d="M3976.67,912.34l61.2-140h46.4l61.2,140h-48.8l-45.2-117.6h18.4l-45.2,117.6H3976.67z M4013.07,887.94l12-34
		h64.4l12,34H4013.07z"/>
	<path class="st0" d="M4148.67,903.13l13.8-32.6c5.87,2.4,11.9,4.27,18.1,5.6c6.2,1.34,12.17,2.17,17.9,2.5
		c5.73,0.34,10.83,0.1,15.3-0.7c4.47-0.8,8.03-2.13,10.7-4c2.67-1.87,4-4.33,4-7.4c0-3.2-1.33-5.4-4-6.6c-2.67-1.2-5.93-1.8-9.8-1.8
		h-37.8v-34h33.8c4,0,7.03-0.77,9.1-2.3c2.07-1.53,3.1-3.57,3.1-6.1c0-2.8-1.17-5-3.5-6.6c-2.33-1.6-5.47-2.7-9.4-3.3
		c-3.93-0.6-8.37-0.67-13.3-0.2c-4.93,0.47-10.03,1.47-15.3,3c-5.27,1.54-10.37,3.5-15.3,5.9l-13.8-34.4
		c9.87-4.53,20.23-7.63,31.1-9.3c10.87-1.67,21.47-2,31.8-1c10.33,1,19.67,3.23,28,6.7c8.33,3.47,14.97,8.04,19.9,13.7
		c4.93,5.67,7.4,12.37,7.4,20.1c0,6.67-1.8,12.63-5.4,17.9c-3.6,5.27-8.5,9.37-14.7,12.3c-6.2,2.94-13.23,4.4-21.1,4.4l1-9.4
		c9.2,0,17.23,1.63,24.1,4.9c6.87,3.27,12.2,7.7,16,13.3c3.8,5.6,5.7,12,5.7,19.2c0,6.67-1.8,12.63-5.4,17.9
		c-3.6,5.27-8.57,9.73-14.9,13.4c-6.33,3.67-13.67,6.43-22,8.3c-8.33,1.87-17.27,2.83-26.8,2.9c-9.54,0.07-19.27-0.93-29.2-3
		C4167.83,910.37,4158.13,907.27,4148.67,903.13z"/>
	<path class="st0" d="M4292.86,912.34v-140h46.4v72.8l48.2-72.8h44.4v140h-46.4v-72.6l-48,72.6H4292.86z"/>
	<path class="st0" d="M4503.86,912.34h-47.2v-140h47.2V912.34z M4550.66,860.74h-50v-38.8h50V860.74z M4547.46,772.34h47.2v140
		h-47.2V772.34z"/>
</g>
</svg>
