<svg xmlns="http://www.w3.org/2000/svg" xmlns:xlink="http://www.w3.org/1999/xlink"
     xmlns:inkscape="http://www.inkscape.org/namespaces/inkscape"
     xmlns:sodipodi="http://sodipodi.sourceforge.net/DTD/sodipodi-0.dtd" xmlns:svg="http://www.w3.org/2000/svg">
    <defs>
        <style>
            .sprite-symbol-usage {display: none;}
            .sprite-symbol-usage:target {display: inline;}
        </style>
        <symbol viewBox="0 0 114 21" id="Philips">
            <g clip-path="url(#Philips_clip0_415_3188)">
                <path d="M38.6756 0.419659H32.5505V8.43245H26.1744V0.419659H20.0493V20.5791H26.1744V12.6494H32.5505V20.5791H38.6756V0.419659ZM59.9824 16.5283V0.419659H53.8573V20.5791H64.9327L65.8538 16.5283H59.9824ZM49.329 0.419659H43.2039V20.5791H49.329V0.419659ZM74.1604 0.419659H68.0381V20.5791H74.1604V0.419659ZM104.358 5.5648C104.358 4.46759 105.45 3.96053 107.21 3.96053C109.14 3.96053 111.239 4.38452 112.665 4.97753L112.163 0.58868C110.566 0.250635 109.14 -0.00146484 106.543 -0.00146484C101.592 -0.00146484 98.236 1.96091 98.236 6.07187C98.236 13.1565 107.803 11.7241 107.803 15.0129C107.803 16.2762 106.876 16.9494 104.612 16.9494C102.602 16.9494 99.4936 16.2762 97.6486 15.348L98.3216 19.989C100.167 20.6651 102.682 21.0002 104.698 21.0002C109.813 21.0002 114.008 19.3129 114.008 14.2508C114.008 7.50713 104.358 8.77049 104.358 5.5648ZM87.0808 15.772C92.781 15.772 96.3911 12.8184 96.3911 7.67329C96.3911 2.02394 92.5329 -0.00146484 86.2395 -0.00146484C83.8072 -0.00146484 80.8701 0.167557 78.7742 0.419659V20.5791H84.8993V15.772H87.0808ZM90.3515 7.75923C90.3515 10.3719 89.094 12.1452 85.9031 12.1452H84.8993V3.81443C85.2558 3.79437 85.5894 3.79437 85.9031 3.79437C88.9229 3.79437 90.3515 5.22676 90.3515 7.75923ZM8.30658 15.772C14.0097 15.772 17.6169 12.8184 17.6169 7.67329C17.6169 2.02394 13.7587 -0.00146484 7.46822 -0.00146484C5.03299 -0.00146484 2.09874 0.167557 0 0.419659V20.5791H6.12514V15.772H8.30658ZM11.5802 7.75923C11.5802 10.3719 10.3198 12.1452 7.13174 12.1452H6.12514V3.81443C6.48159 3.79437 6.81807 3.79437 7.13174 3.79437C10.1515 3.79437 11.5802 5.22676 11.5802 7.75923Z"/>
            </g>
            <defs></defs>
        </symbol>
        <clipPath id="Philips_clip0_415_3188">
            <rect width="114" height="21"/>
        </clipPath>
        <symbol viewBox="0 0 12 13" fill="none" id="arrow">
            <path d="M3.49908 11.0076C3.74408 11.2526 4.13908 11.2526 4.38408 11.0076L8.53908 6.85259C8.73408 6.65759 8.73408 6.34259 8.53908 6.14759L4.38408 1.99259C4.13908 1.74759 3.74408 1.74759 3.49908 1.99259C3.25408 2.23759 3.25408 2.63259 3.49908 2.87759L7.11908 6.50259L3.49408 10.1276C3.25408 10.3676 3.25408 10.7676 3.49908 11.0076Z"
                  fill="#737575"/>
        </symbol>
        <symbol viewBox="0 0 12 13" fill="#737575" id="arrow-breadcrumbs">
            <path d="M3.49908 11.0076C3.74408 11.2526 4.13908 11.2526 4.38408 11.0076L8.53908 6.85259C8.73408 6.65759 8.73408 6.34259 8.53908 6.14759L4.38408 1.99259C4.13908 1.74759 3.74408 1.74759 3.49908 1.99259C3.25408 2.23759 3.25408 2.63259 3.49908 2.87759L7.11908 6.50259L3.49408 10.1276C3.25408 10.3676 3.25408 10.7676 3.49908 11.0076Z"
                  fill="#737575"/>
        </symbol>
        <symbol viewBox="0 0 40 40" fill="currentColor" id="close">
            <path d="M30.5002 9.51659C30.1888 9.20451 29.7661 9.02912 29.3252 9.02912C28.8843 9.02912 28.4616 9.20451 28.1502 9.51659L20.0002 17.6499L11.8502 9.49993C11.5388 9.18784 11.1161 9.01245 10.6752 9.01245C10.2343 9.01245 9.81158 9.18784 9.5002 9.49993C8.8502 10.1499 8.8502 11.1999 9.5002 11.8499L17.6502 19.9999L9.5002 28.1499C8.8502 28.7999 8.8502 29.8499 9.5002 30.4999C10.1502 31.1499 11.2002 31.1499 11.8502 30.4999L20.0002 22.3499L28.1502 30.4999C28.8002 31.1499 29.8502 31.1499 30.5002 30.4999C31.1502 29.8499 31.1502 28.7999 30.5002 28.1499L22.3502 19.9999L30.5002 11.8499C31.1335 11.2166 31.1335 10.1499 30.5002 9.51659Z"/>
        </symbol>

        <symbol viewBox="0 0 28 28" id="facebook">
            <path d="M21.7773 3H6.22266C4.44583 3 3 4.44583 3 6.22266V21.7773C3 23.5542 4.44583 25 6.22266 25H12.7109V17.2227H10.1328V13.3555H12.7109V10.7344C12.7109 8.60188 14.4456 6.86719 16.5781 6.86719H20.4883V10.7344H16.5781V13.3555H20.4883L19.8438 17.2227H16.5781V25H21.7773C23.5542 25 25 23.5542 25 21.7773V6.22266C25 4.44583 23.5542 3 21.7773 3Z"/>
        </symbol>
        <symbol viewBox="0 0 12 13" fill="currentColor" id="globe">
            <g>
                <path fill-rule="evenodd" clip-rule="evenodd"
                      d="M6 1.60938C3.51472 1.60938 1.5 3.62409 1.5 6.10938C1.5 8.59466 3.51472 10.6094 6 10.6094C8.48528 10.6094 10.5 8.59466 10.5 6.10938C10.5 3.62409 8.48528 1.60938 6 1.60938ZM0.5 6.10938C0.5 3.07181 2.96243 0.609375 6 0.609375C9.03757 0.609375 11.5 3.07181 11.5 6.10938C11.5 9.14694 9.03757 11.6094 6 11.6094C2.96243 11.6094 0.5 9.14694 0.5 6.10938Z"/>
                <path fill-rule="evenodd" clip-rule="evenodd"
                      d="M0.5 6.10938C0.5 5.83323 0.723858 5.60938 1 5.60938H11C11.2761 5.60938 11.5 5.83323 11.5 6.10938C11.5 6.38552 11.2761 6.60938 11 6.60938H1C0.723858 6.60938 0.5 6.38552 0.5 6.10938Z"/>
                <path fill-rule="evenodd" clip-rule="evenodd"
                      d="M4.50012 6.10938C4.53438 7.6468 5.06313 9.12695 6 10.334C6.93687 9.12695 7.46562 7.6468 7.49988 6.10938C7.46562 4.57195 6.93687 3.0918 6 1.88477C5.06313 3.0918 4.53438 4.57195 4.50012 6.10938ZM6 1.10938L5.63083 0.772164C4.29845 2.23083 3.54126 4.1238 3.50011 6.09896C3.49996 6.1059 3.49996 6.11285 3.50011 6.11979C3.54126 8.09495 4.29845 9.98792 5.63083 11.4466C5.72556 11.5503 5.85954 11.6094 6 11.6094C6.14046 11.6094 6.27444 11.5503 6.36917 11.4466C7.70155 9.98792 8.45874 8.09495 8.49989 6.11979C8.50004 6.11285 8.50004 6.1059 8.49989 6.09896C8.45874 4.1238 7.70155 2.23083 6.36917 0.772164L6 1.10938Z"/>
            </g>
        </symbol>
        <symbol viewBox="0 0 28 28" id="instagram">
            <path d="M14 4.98202C16.9371 4.98202 17.285 4.9932 18.4449 5.04612C19.5174 5.09507 20.0998 5.27427 20.4875 5.42487C21.0009 5.62442 21.3674 5.86282 21.7523 6.24773C22.1372 6.63263 22.3756 6.99911 22.5751 7.51251C22.7257 7.90017 22.9049 8.48261 22.9539 9.55506C23.0068 10.715 23.018 11.0629 23.018 14C23.018 16.9372 23.0068 17.285 22.9539 18.4449C22.9049 19.5174 22.7257 20.0999 22.5751 20.4875C22.3756 21.0009 22.1372 21.3674 21.7523 21.7523C21.3674 22.1372 21.0009 22.3756 20.4875 22.5751C20.0998 22.7258 19.5174 22.905 18.4449 22.9539C17.2852 23.0068 16.9373 23.018 14 23.018C11.0627 23.018 10.7148 23.0068 9.55506 22.9539C8.48257 22.905 7.90013 22.7258 7.51251 22.5751C6.99906 22.3756 6.63259 22.1372 6.24768 21.7523C5.86278 21.3674 5.62437 21.0009 5.42487 20.4875C5.27423 20.0999 5.09503 19.5174 5.04608 18.445C4.99316 17.285 4.98198 16.9372 4.98198 14C4.98198 11.0629 4.99316 10.715 5.04608 9.5551C5.09503 8.48261 5.27423 7.90017 5.42487 7.51251C5.62437 6.99911 5.86278 6.63263 6.24768 6.24773C6.63259 5.86282 6.99906 5.62442 7.51251 5.42487C7.90013 5.27427 8.48257 5.09507 9.55501 5.04612C10.715 4.9932 11.0628 4.98202 14 4.98202ZM14 3C11.0125 3 10.638 3.01266 9.46471 3.0662C8.29385 3.11964 7.49426 3.30556 6.79454 3.57751C6.07119 3.85862 5.45775 4.23475 4.84623 4.84627C4.2347 5.45779 3.85858 6.07123 3.57746 6.79458C3.30552 7.49431 3.1196 8.29389 3.06615 9.46476C3.01262 10.638 3 11.0126 3 14C3 16.9875 3.01262 17.3621 3.06615 18.5353C3.1196 19.7062 3.30552 20.5057 3.57746 21.2055C3.85858 21.9288 4.2347 22.5423 4.84623 23.1538C5.45775 23.7653 6.07119 24.1414 6.79454 24.4225C7.49426 24.6945 8.29385 24.8804 9.46471 24.9338C10.638 24.9874 11.0125 25 14 25C16.9874 25 17.362 24.9874 18.5352 24.9338C19.7061 24.8804 20.5057 24.6945 21.2054 24.4225C21.9288 24.1414 22.5422 23.7653 23.1537 23.1538C23.7653 22.5423 24.1414 21.9288 24.4225 21.2055C24.6944 20.5057 24.8804 19.7062 24.9338 18.5353C24.9873 17.3621 25 16.9875 25 14C25 11.0126 24.9873 10.638 24.9338 9.46476C24.8804 8.29389 24.6944 7.49431 24.4225 6.79458C24.1414 6.07123 23.7653 5.45779 23.1537 4.84627C22.5422 4.23475 21.9288 3.85862 21.2054 3.57751C20.5057 3.30556 19.7061 3.11964 18.5352 3.0662C17.362 3.01266 16.9874 3 14 3ZM14 8.35136C10.8803 8.35136 8.35131 10.8804 8.35131 14C8.35131 17.1197 10.8803 19.6487 14 19.6487C17.1196 19.6487 19.6486 17.1197 19.6486 14C19.6486 10.8804 17.1196 8.35136 14 8.35136ZM14 17.6667C11.9749 17.6667 10.3333 16.0251 10.3333 14C10.3333 11.975 11.9749 10.3333 14 10.3333C16.025 10.3333 17.6667 11.975 17.6667 14C17.6667 16.0251 16.025 17.6667 14 17.6667ZM21.1918 8.12819C21.1918 8.85721 20.6008 9.44821 19.8718 9.44821C19.1428 9.44821 18.5518 8.85721 18.5518 8.12819C18.5518 7.39916 19.1428 6.80821 19.8718 6.80821C20.6008 6.80821 21.1918 7.39916 21.1918 8.12819Z"/>
        </symbol>
        <symbol viewBox="0 0 28 28" id="linkedin">
            <path d="M21.7773 3H6.22266C4.44583 3 3 4.44583 3 6.22266V21.7773C3 23.5542 4.44583 25 6.22266 25H21.7773C23.5542 25 25 23.5542 25 21.7773V6.22266C25 4.44583 23.5542 3 21.7773 3ZM10.7773 20.4453H8.19922V11.4219H10.7773V20.4453ZM10.7773 10.1328H8.19922V7.55469H10.7773V10.1328ZM19.8008 20.4453H17.2227V15.2891C17.2227 14.5784 16.6443 14 15.9336 14C15.2229 14 14.6445 14.5784 14.6445 15.2891V20.4453H12.0664V11.4219H14.6445V11.9078C15.3199 11.6978 15.7587 11.4219 16.5781 11.4219C18.3266 11.4237 19.8008 12.9922 19.8008 14.8459V20.4453Z"/>
        </symbol>
        <symbol viewBox="0 0 12 13" fill="currentColor" id="play">
            <path d="M0.927734 1.32001V11.68C0.927734 12.47 1.79773 12.95 2.46773 12.52L10.6077 7.34001C11.2277 6.95001 11.2277 6.05001 10.6077 5.65001L2.46773 0.480008C1.79773 0.0500081 0.927734 0.530008 0.927734 1.32001Z"/>
        </symbol>
        <symbol viewBox="0 0 32 28" id="twitter">
            <path fill-rule="evenodd" clip-rule="evenodd"
                  d="M15.6245 8.85234L15.6808 9.80391L14.7415 9.68739C11.3224 9.24074 8.33535 7.72601 5.79918 5.18203L4.55927 3.91976L4.2399 4.8519C3.56359 6.9298 3.99568 9.12422 5.40466 10.6001C6.15612 11.4157 5.98704 11.5323 4.69078 11.0468C4.2399 10.8914 3.84539 10.7749 3.80782 10.8331C3.67631 10.9691 4.12719 12.7363 4.48413 13.4354C4.97258 14.4064 5.96826 15.3579 7.05787 15.9211L7.9784 16.3677L6.88879 16.3872C5.83675 16.3872 5.79918 16.4066 5.9119 16.8144C6.28763 18.0767 7.77175 19.4166 9.42496 19.9992L10.5897 20.407L9.57525 21.0285C8.07234 21.9218 6.30641 22.4267 4.54049 22.4655C3.6951 22.4849 3 22.5626 3 22.6209C3 22.8151 5.29194 23.9026 6.62578 24.3298C10.6273 25.5921 15.3803 25.0483 18.9497 22.8927C21.4858 21.3586 24.022 18.3097 25.2056 15.3579C25.8443 13.7849 26.483 10.9108 26.483 9.53203C26.483 8.63873 26.5394 8.52221 27.5914 7.45413C28.2114 6.8327 28.7938 6.15302 28.9065 5.95882C29.0944 5.58985 29.0756 5.58985 28.1175 5.91998C26.5206 6.50257 26.2952 6.42489 27.0842 5.55101C27.6666 4.92958 28.3617 3.80324 28.3617 3.47311C28.3617 3.41485 28.0799 3.51195 27.7605 3.68672C27.4224 3.88092 26.6709 4.17221 26.1073 4.34699L25.0928 4.67712L24.1723 4.03628C23.6651 3.68672 22.9512 3.29833 22.5755 3.18181C21.6174 2.90994 20.152 2.94878 19.2878 3.25949C16.9395 4.13337 15.4554 6.38605 15.6245 8.85234Z"/>
        </symbol>
    </defs>
    <use id="Philips-usage" xlink:href="#Philips" class="sprite-symbol-usage"/>
    <use id="arrow-usage" xlink:href="#arrow" class="sprite-symbol-usage"/>
    <use id="arrow-breadcrumbs-usage" xlink:href="#arrow-breadcrumbs" class="sprite-symbol-usage"/>
    <use id="close-usage" xlink:href="#close" class="sprite-symbol-usage"/>
    <use id="evnia-usage" xlink:href="#evnia" class="sprite-symbol-usage"/>
    <use id="facebook-usage" xlink:href="#facebook" class="sprite-symbol-usage"/>
    <use id="globe-usage" xlink:href="#globe" class="sprite-symbol-usage"/>
    <use id="instagram-usage" xlink:href="#instagram" class="sprite-symbol-usage"/>
    <use id="linkedin-usage" xlink:href="#linkedin" class="sprite-symbol-usage"/>
    <use id="play-usage" xlink:href="#play" class="sprite-symbol-usage"/>
    <use id="twitter-usage" xlink:href="#twitter" class="sprite-symbol-usage"/>
</svg>