<svg xmlns="http://www.w3.org/2000/svg" xmlns:xlink="http://www.w3.org/1999/xlink" width="0" height="0"
     style="position:absolute">
    <defs>
        <linearGradient id="mir-a" x1="18.937" y1="12.394" x2="26" y2="12.394" gradientUnits="userSpaceOnUse">
            <stop offset=".3" stop-color="#00B4E6"/>
            <stop offset="1" stop-color="#088CCB"/>
        </linearGradient>
        <path id="no-thumb-a"
              d="M5.882 5.882h8.824L20.588 0h17.647l5.883 5.882h8.823a5.882 5.882 0 0 1 5.883 5.883v35.294a5.882 5.882 0 0 1-5.883 5.882H5.882A5.883 5.883 0 0 1 0 47.06V11.765a5.882 5.882 0 0 1 5.882-5.883zm23.53 8.824a14.706 14.706 0 1 0 0 29.412 14.706 14.706 0 0 0 0-29.412zm0 5.882a8.824 8.824 0 1 1 0 17.647 8.824 8.824 0 0 1 0-17.647z"/>
        <linearGradient id="telegram-a" x1="10.13" x2="11.53" y1="9" y2="12.21" gradientUnits="userSpaceOnUse">
            <stop stop-color="#EFF7FC"/>
            <stop offset="1" stop-color="#fff"/>
        </linearGradient>
        <clipPath id="clip0">
            <path fill="#fff" d="M32 14h112v112H32z"/>
        </clipPath>
    </defs>
    <symbol id="agonbyaoc-icon_star" viewBox="0 0 27 28">
        <path d="M15.1288 4.48018L16.8043 7.88041C17.0338 8.34711 17.6435 8.809 18.1589 8.89192L21.2248 9.42556C23.188 9.76296 23.631 11.1886 22.2176 12.5929L19.8102 14.9715C19.4082 15.3702 19.1722 16.1558 19.3 16.7088L19.9637 19.6746C20.4853 22.0161 19.24 22.9174 17.1849 21.6822L14.314 19.9564C13.7912 19.641 12.937 19.6429 12.4175 19.9446L9.52727 21.6271C7.45832 22.8296 6.22127 21.915 6.77314 19.5823L7.47818 16.6305C7.60984 16.0787 7.39411 15.2898 6.99544 14.8878L4.60341 12.4762C3.20792 11.0582 3.6685 9.63903 5.6324 9.32343L8.69879 8.83287C9.21649 8.7458 9.83257 8.30417 10.0637 7.8361L11.783 4.451C12.7215 2.62775 14.2244 2.64002 15.1288 4.48018Z" fill="currentColor"/>
    </symbol>
    <symbol id="agonbyaoc-icon_home" viewBox="0 0 48 48">
        <path d="M 23.951172 4 A 1.50015 1.50015 0 0 0 23.072266 4.3222656 L 8.859375 15.519531 C 7.0554772 16.941163 6 19.113506 6 21.410156 L 6 40.5 C 6 41.863594 7.1364058 43 8.5 43 L 18.5 43 C 19.863594 43 21 41.863594 21 40.5 L 21 30.5 C 21 30.204955 21.204955 30 21.5 30 L 26.5 30 C 26.795045 30 27 30.204955 27 30.5 L 27 40.5 C 27 41.863594 28.136406 43 29.5 43 L 39.5 43 C 40.863594 43 42 41.863594 42 40.5 L 42 21.410156 C 42 19.113506 40.944523 16.941163 39.140625 15.519531 L 24.927734 4.3222656 A 1.50015 1.50015 0 0 0 23.951172 4 z M 24 7.4101562 L 37.285156 17.876953 C 38.369258 18.731322 39 20.030807 39 21.410156 L 39 40 L 30 40 L 30 30.5 C 30 28.585045 28.414955 27 26.5 27 L 21.5 27 C 19.585045 27 18 28.585045 18 30.5 L 18 40 L 9 40 L 9 21.410156 C 9 20.030807 9.6307412 18.731322 10.714844 17.876953 L 24 7.4101562 z"/>
    </symbol>
    <symbol id="agonbyaoc-icon_404" viewBox="0 0 373 360">
        <path fill="#333"
              d="M198.3 327.6c-27.9-3.8-61.5-.5-75.1 7.2-13.8 7.8-2.2 17.1 25.6 20.9 28 3.7 61.6.5 75.2-7.3 13.8-7.8 2.1-17-25.7-20.8z"/>
        <path fill="#828282"
              d="M123 339.6c13.8-7.7 47.4-11 75.2-7.2 17.2 2.3 28.2 6.7 30.9 11.6 3.7-6.6-8.1-13.4-30.9-16.4-27.9-3.8-61.5-.5-75.2 7.2-5.2 3-6.8 6.3-5 9.3.8-1.5 2.6-3 5-4.5z"/>
        <path fill="#F2F2F2"
              d="M310.7 222.5l-79.2 1 .7 23.6-69.2 14 17.6 9.4-12.9 18.8 45.8 16.4-16.6 21.6-22.6 30h-3.9l18.7-30.7 11.5-18.6-45.8-14 9.4-18.8-35.2-17.5 69.2-20-21.8-13.4L49 226 20 46.8l305-29.2-14.2 205zm23.6-183.8l-14 165 21-161.5-7-3.5zM10.6 57.4l-4.7 7 20 61-15.3-68zM280.3 0L88 29.3l194.7-17.6L280.3 0zM24.7 207.3l3.5 9.4h8.2l-2-9.4h-9.7zm-3.6-69.1H0l21 58.6h11.5L21 138.2zm315.5 1.2h8.2l3.5-9.4h-9.8l-1.9 9.4zM352 60.9l-11.4 58.6H352l21-58.6h-21.1z"/>
        <path fill="#828282"
              d="M106.5 175.8l-38.2.1v-15.8c7-13.5 16.4-28.7 29.8-49.2h26l.1 50.1h9.9v14.8h-9.9v13h-17.7v-13zm-22-14.2H107l-.2-37.1h-.9a463 463 0 0 0-21.3 36.2v1zm60.4-12.2c0-25.7 12.3-40.8 32.1-40.8s32.1 15 32.3 40.7c0 25.8-12.1 41.1-32 41.3-20 0-32.3-15.3-32.4-41.2zm45.4 0c0-17.4-5.3-26.2-13.3-26.2s-13.1 8.8-13.1 26.2c0 17.6 5.1 26.7 13.2 26.6 8.1 0 13.3-9 13.2-26.6zm68.1 26l-38.2.2v-15.8c7-13.5 16.4-28.7 29.8-49.2h26l.1 50h9.9v14.8h-10v13h-17.7v-13zm-22-14h22.4l-.2-37.1h-.9c-6.8 10.4-12.6 19.9-21.3 36.2v.9z"/>
        <path fill="#BDBDBD"
              d="M126.8 76.5c0 7-4.1 11.3-10.6 11.3-6.4 0-10.5-4.3-10.5-11.3 0-7 4-11.4 10.5-11.4 6.5.1 10.6 4.5 10.6 11.4zm-15.8.1c0 4.2 2 7 5.2 7s5.3-2.8 5.3-7-2-7-5.3-7-5.2 2.7-5.2 7zm20-10.8h5.2v17.4h5.5V65.8h5.2v17.4h5.5V65.8h5.1v21.6H131V65.8zm45.6 7.9h-.2l-8.9 13.6h-5V65.7h5.2v13.6h.3l8.9-13.6h5v21.6h-5.3V73.7zM196 87h-9.1V65.6h14.8v4.2H192v3.6h3.9c4.7 0 7.8 2.7 7.8 6.7 0 4.3-3.2 7-7.7 7zm-1.3-4c2.4 0 3.6-1 3.6-2.9 0-1.8-1.4-2.9-3.6-2.9H192V83l2.7.2zm18.7-8.5l7-9h5.6L217.8 76l8.8 11h-6l-7-8.6h-.7V87h-5.2V65.5h5.2v9l.5.1zm28.1 7.6h-7.1l-1.6 5h-5.1l7.2-21.6h6.3l7.3 21.4H243l-1.4-4.8zm-6.2-3.8h5.2l-2.5-8.2h-.2l-2.5 8.2z"/>
        <path fill="#F2F2F2"
              d="M86.4 345.4c9.3 5 1.5 11.1-17.4 13.6-19 2.4-41.8.3-51-4.7-9.3-5-1.5-11.1 17.4-13.6 19-2.5 41.8-.3 51 4.7z"/>
        <path fill="#FFAE5E"
              d="M90.3 347.5l-.6-2.8.1.7v-.7c-.3-.8-.8-1.7-1.5-2.5l-.4-.4-1.1-.9-1.3-.8c-.6-.2-1.3-.7-1.8-1l-1.6-.6-3.2-1c-.5-.3-1.4-.4-2-.7-1.5-.3-3.7-.8-4.3-.8l-2.2-.3a63.7 63.7 0 0 0-4.7-.6c-1.4-.1-6.7-.6-12.8-.5l-5.3.2-2.6.3-5.1.6a44 44 0 0 0-8.6 1.6 55.8 55.8 0 0 0-7.7 3c-1 .6-1.3 1-1.9 1.5 0 0-.4.3-.7.8l-.5.7-.3.7-.3.7-.7 2.8c-.3 1.6.7 3.4 3.6 5 8.6 4.8 29.9 6.8 47.6 4.5 13.5-1.8 20.9-5.6 20-9.5z"/>
        <path fill="#FF924D"
              d="M84.6 340c8 4.6 1.3 10-15.2 12.3-16.4 2.2-36.3.2-44.3-4.3-8-4.6-1.3-10.1 15.1-12.3 16.5-2.3 36.4-.3 44.4 4.3zm-8.1 1c-5.9-3.2-20.3-4.6-32.2-3.1-12 1.6-16.9 5.6-11 8.9 5.9 3.3 20.3 4.7 32.2 3.2 11.8-1.7 16.7-5.7 11-9zm-15.3-59.3c-.3-1.2-1.3-1.8-1.6-2-.4-.3-1.2-.6-3-.8a13 13 0 0 0-3.7 0c-1.8.2-2.7.8-3 .9l-.9.8-.4 1c-.2.3 0 .5.5.9 1.6.8 5.3 1.3 8.5.8 2.6-.2 3.9-1 3.6-1.6z"/>
        <path fill="#FFAE5E"
              d="M30.8 343.4a123 123 0 0 0 1.8-6.2 123 123 0 0 0 2.7-9.3 123.3 123.3 0 0 0 2.7-9.2l1.8-6.2a124.3 124.3 0 0 0 2.7-9.3 123.2 123.2 0 0 0 1.7-6.2 124.4 124.4 0 0 0 1.8-6.2c.2-1 .6-2.1 1-3a123 123 0 0 0 1.7-6.2c-.1.3 0 .5.6.9 1.5.8 5.2 1.3 8.4.8 2.4-.3 3.8-1 3.5-1.7a122.2 122.2 0 0 0 1.8 6.2 123 123 0 0 0 1.7 6.2 122.3 122.3 0 0 0 1.8 6.2 122.2 122.2 0 0 0 1.8 6.2 124 124 0 0 0 1.7 6.2l1.8 6.2.8 3a123 123 0 0 0 1.8 6.3l1.7 6.2.8 3 1.8 6.2c.7 2.7-4.2 5.3-13.4 6.5-12 1.6-26.2.2-32.1-3.2-1.9-1-2.6-2.2-2.4-3.4z"/>
        <path fill="#fff"
              d="M69.4 310.3c.5 1.6-2.5 3.1-8 3.8-7.2 1-15.9.1-19.5-1.9-1.2-.7-1.7-1.4-1.4-2a124.7 124.7 0 0 0 1.7-6.3l1-3 1.1-4.2c0 .4.3 1 1 1.5 2.7 1.5 9 2.1 14.3 1.4 4-.6 6.2-1.8 5.8-3a122 122 0 0 0 1.8 6.3l.8 3 1.4 4.3zm7 24.7c.7 2.3-4 4.6-12.1 5.8-10.7 1.4-23.7.3-28.9-2.8-1.7-1-2.4-2.1-2-3.2a124.4 124.4 0 0 0 1.7-6.2l1-3 1-4.2c-.2.8.4 1.7 1.8 2.6a46.7 46.7 0 0 0 23.7 2.3c6.7-1 10.5-2.8 9.9-4.8l3.9 13.5z"/>
        <path fill="#F2F2F2"
              d="M314.1 340.7c18.9 2.5 26.8 8.6 17.5 13.6s-32.1 7.1-51 4.7c-19-2.5-26.8-8.6-17.5-13.6s32.1-7.2 51-4.7z"/>
        <path fill="#FFAE5E"
              d="M259.2 347.5l.6-2.8-.1.7.1-.7c.2-.8.7-1.7 1.4-2.5l.5-.4 1-.9 1.3-.8c.6-.2 1.3-.7 1.8-1l1.6-.6 3.2-1 2.1-.7a32 32 0 0 1 4.2-.8l2.3-.3a63.6 63.6 0 0 1 4.7-.6c1.4-.1 6.6-.6 12.7-.5l5.3.2 2.6.3 5.2.6a44 44 0 0 1 8.5 1.6 55.8 55.8 0 0 1 7.8 3c.9.6 1.3 1 1.8 1.5 0 0 .4.3.7.8.3.2.3.3.5.7l.4.7.2.7.7 2.8c.4 1.6-.7 3.4-3.5 5-8.7 4.8-30 6.8-47.6 4.5-13.5-1.8-21-5.6-20-9.5z"/>
        <path fill="#FF924D"
              d="M309.3 335.7c16.4 2.2 23.2 7.7 15.1 12.3-8 4.5-27.9 6.4-44.3 4.3-16.4-2.2-23.2-7.7-15.1-12.3 8-4.6 27.9-6.6 44.3-4.3zm-36.2 5.4c-5.9 3.2-1 7.2 11 8.9 12 1.6 26.3.2 32.1-3.2 5.9-3.3 1-7.3-11-9-11.8-1.4-26.3 0-32.1 3.3zm15.2-59.4c.4-1.2 1.3-1.8 1.7-2 .3-.3 1.1-.6 2.9-.8a13 13 0 0 1 3.7 0c1.8.2 2.7.8 3 .9l1 .8.4 1c.1.3-.1.5-.6.9-1.5.8-5.3 1.3-8.5.8-2.5-.2-3.8-1-3.6-1.6z"/>
        <path fill="#FFAE5E"
              d="M318.7 343.4a122.2 122.2 0 0 1-1.8-6.2 30 30 0 0 0-1-3 122 122 0 0 1-1.7-6.3 123.3 123.3 0 0 1-1.7-6.2 30.3 30.3 0 0 0-1-3 123.3 123.3 0 0 1-1.7-6.2 123.3 123.3 0 0 1-1.8-6.2 30.3 30.3 0 0 0-1-3 123.6 123.6 0 0 1-1.7-6.3 123.3 123.3 0 0 1-1.7-6.2 30 30 0 0 0-1-3 123.3 123.3 0 0 1-1.7-6.2c0 .3-.2.5-.6.9-1.6.8-5.3 1.3-8.5.8-2.3-.3-3.7-1-3.5-1.7a123.3 123.3 0 0 1-1.7 6.2 123.3 123.3 0 0 1-1.8 6.2 123.3 123.3 0 0 1-1.8 6.2 123.3 123.3 0 0 1-1.7 6.2 123 123 0 0 1-1.8 6.2 122.3 122.3 0 0 1-1.7 6.2l-.9 3a123.3 123.3 0 0 1-1.7 6.3 122.3 122.3 0 0 1-1.8 6.2l-.8 3a123.3 123.3 0 0 1-1.8 6.2c-.7 2.7 4.3 5.3 13.4 6.5 12 1.6 26.3.2 32.1-3.2 2-1 2.6-2.2 2.4-3.4z"/>
        <path fill="#fff"
              d="M280.1 310.3c-.5 1.6 2.6 3.1 8 3.8 7.2 1 16 .1 19.6-1.9 1.1-.7 1.6-1.4 1.4-2a122.5 122.5 0 0 1-1.8-6.3 30.3 30.3 0 0 0-1-3l-1.1-4.2c.1.4-.2 1-1 1.5-2.6 1.5-9 2.1-14.2 1.4-4-.6-6.3-1.8-6-3a123 123 0 0 1-1.7 6.3l-.8 3-1.4 4.3zm-7 24.7c-.6 2.3 4 4.6 12.2 5.8 10.6 1.4 23.7.3 28.8-2.8 1.8-1 2.5-2.1 2.1-3.2a122.3 122.3 0 0 1-1.7-6.2 30 30 0 0 0-1-3l-1.1-4.2c.2.8-.4 1.7-1.8 2.6a46.7 46.7 0 0 1-23.7 2.3c-6.7-1-10.4-2.8-9.8-4.8l-4 13.5z"/>
    </symbol>

    <symbol id="agonbyaoc-icon_call" viewBox="0 0 14 14">
        <path d="M.778 0A.778.778 0 0 0 0 .778 13.222 13.222 0 0 0 13.222 14a.778.778 0 0 0 .778-.778V10.5a.778.778 0 0 0-.778-.778 8.835 8.835 0 0 1-2.776-.443.794.794 0 0 0-.794.187l-1.71 1.71a11.702 11.702 0 0 1-5.126-5.125l1.71-1.719a.747.747 0 0 0 .195-.778A8.836 8.836 0 0 1 4.278.778.778.778 0 0 0 3.5 0H.778zm11.666 6.222V5.056H9.722L14 .778 13.222 0 8.944 4.278V1.556H7.778v4.666h4.666z"/>
    </symbol>
    <symbol id="agonbyaoc-icon_call2" viewBox="0 0 24 24">
        <path d="M21.97 18.33C21.97 18.69 21.89 19.06 21.72 19.42C21.55 19.78 21.33 20.12 21.04 20.44C20.55 20.98 20.01 21.37 19.4 21.62C18.8 21.87 18.15 22 17.45 22C16.43 22 15.34 21.76 14.19 21.27C13.04 20.78 11.89 20.12 10.75 19.29C9.6 18.45 8.51 17.52 7.47 16.49C6.44 15.45 5.51 14.36 4.68 13.22C3.86 12.08 3.2 10.94 2.72 9.81C2.24 8.67 2 7.58 2 6.54C2 5.86 2.12 5.21 2.36 4.61C2.6 4 2.98 3.44 3.51 2.94C4.15 2.31 4.85 2 5.59 2C5.87 2 6.15 2.06 6.4 2.18C6.66 2.3 6.89 2.48 7.07 2.74L9.39 6.01C9.57 6.26 9.7 6.49 9.79 6.71C9.88 6.92 9.93 7.13 9.93 7.32C9.93 7.56 9.86 7.8 9.72 8.03C9.59 8.26 9.4 8.5 9.16 8.74L8.4 9.53C8.29 9.64 8.24 9.77 8.24 9.93C8.24 10.01 8.25 10.08 8.27 10.16C8.3 10.24 8.33 10.3 8.35 10.36C8.53 10.69 8.84 11.12 9.28 11.64C9.73 12.16 10.21 12.69 10.73 13.22C11.27 13.75 11.79 14.24 12.32 14.69C12.84 15.13 13.27 15.43 13.61 15.61C13.66 15.63 13.72 15.66 13.79 15.69C13.87 15.72 13.95 15.73 14.04 15.73C14.21 15.73 14.34 15.67 14.45 15.56L15.21 14.81C15.46 14.56 15.7 14.37 15.93 14.25C16.16 14.11 16.39 14.04 16.64 14.04C16.83 14.04 17.03 14.08 17.25 14.17C17.47 14.26 17.7 14.39 17.95 14.56L21.26 16.91C21.52 17.09 21.7 17.3 21.81 17.55C21.91 17.8 21.97 18.05 21.97 18.33Z"
              stroke-width="1.5" stroke-miterlimit="10" fill="none"/>
    </symbol>
    <symbol id="agonbyaoc-icon_call3" viewBox="0 0 34 34">
        <circle cx="17" cy="17" r="17" fill="#27AE60"/>
        <path d="M12.816 16.059a11.742 11.742 0 0 0 5.125 5.125l1.711-1.71a.78.78 0 0 1 .794-.195 8.835 8.835 0 0 0 2.776.443.778.778 0 0 1 .778.778v2.722a.778.778 0 0 1-.778.778A13.222 13.222 0 0 1 10 10.778a.778.778 0 0 1 .778-.778H13.5a.778.778 0 0 1 .778.778c0 .972.155 1.905.443 2.776a.78.78 0 0 1-.194.794l-1.711 1.71z"
              fill="#fff"/>
    </symbol>
    <symbol id="agonbyaoc-icon_phone" viewBox="0 0 24 24">
        <path d="M22 16.92v3a2 2 0 0 1-2.18 2 19.79 19.79 0 0 1-8.63-3.07 19.5 19.5 0 0 1-6-6 19.79 19.79 0 0 1-3.07-8.67A2 2 0 0 1 4.11 2h3a2 2 0 0 1 2 1.72 12.84 12.84 0 0 0 .7 2.81 2 2 0 0 1-.45 2.11L8.09 9.91a16 16 0 0 0 6 6l1.27-1.27a2 2 0 0 1 2.11-.45 12.84 12.84 0 0 0 2.81.7A2 2 0 0 1 22 16.92z"/>
    </symbol>
    <symbol id="agonbyaoc-icon_account" viewBox="0 0 24 24">
        <path d="M12.1596 11.62C12.1296 11.62 12.1096 11.62 12.0796 11.62C12.0296 11.61 11.9596 11.61 11.8996 11.62C8.99963 11.53 6.80963 9.25 6.80963 6.44C6.80963 3.58 9.13963 1.25 11.9996 1.25C14.8596 1.25 17.1896 3.58 17.1896 6.44C17.1796 9.25 14.9796 11.53 12.1896 11.62C12.1796 11.62 12.1696 11.62 12.1596 11.62ZM11.9996 2.75C9.96963 2.75 8.30963 4.41 8.30963 6.44C8.30963 8.44 9.86963 10.05 11.8596 10.12C11.9096 10.11 12.0496 10.11 12.1796 10.12C14.1396 10.03 15.6796 8.42 15.6896 6.44C15.6896 4.41 14.0296 2.75 11.9996 2.75Z"
              stroke="none"/>
        <path d="M12.1696 22.55C10.2096 22.55 8.23961 22.05 6.74961 21.05C5.35961 20.13 4.59961 18.87 4.59961 17.5C4.59961 16.13 5.35961 14.86 6.74961 13.93C9.74961 11.94 14.6096 11.94 17.5896 13.93C18.9696 14.85 19.7396 16.11 19.7396 17.48C19.7396 18.85 18.9796 20.12 17.5896 21.05C16.0896 22.05 14.1296 22.55 12.1696 22.55ZM7.57961 15.19C6.61961 15.83 6.09961 16.65 6.09961 17.51C6.09961 18.36 6.62961 19.18 7.57961 19.81C10.0696 21.48 14.2696 21.48 16.7596 19.81C17.7196 19.17 18.2396 18.35 18.2396 17.49C18.2396 16.64 17.7096 15.82 16.7596 15.19C14.2696 13.53 10.0696 13.53 7.57961 15.19Z"
              stroke="none"/>
    </symbol>
    <symbol id="agonbyaoc-icon_cart" viewBox="0 0 24 24">
        <path d="M5.18988 6.37994C4.99988 6.37994 4.79988 6.29994 4.65988 6.15994C4.36988 5.86994 4.36988 5.38994 4.65988 5.09994L8.28988 1.46994C8.57988 1.17994 9.05988 1.17994 9.34988 1.46994C9.63988 1.75994 9.63988 2.23994 9.34988 2.52994L5.71988 6.15994C5.56988 6.29994 5.37988 6.37994 5.18988 6.37994Z"
              stroke="none"/>/>
        <path d="M18.8101 6.37994C18.6201 6.37994 18.4301 6.30994 18.2801 6.15994L14.6501 2.52994C14.3601 2.23994 14.3601 1.75994 14.6501 1.46994C14.9401 1.17994 15.4201 1.17994 15.7101 1.46994L19.3401 5.09994C19.6301 5.38994 19.6301 5.86994 19.3401 6.15994C19.2001 6.29994 19.0001 6.37994 18.8101 6.37994Z"
              stroke="none"/>/>
        <path d="M20.21 10.6001C20.14 10.6001 20.07 10.6001 20 10.6001H19.77H4C3.3 10.6101 2.5 10.6101 1.92 10.0301C1.46 9.5801 1.25 8.8801 1.25 7.8501C1.25 5.1001 3.26 5.1001 4.22 5.1001H19.78C20.74 5.1001 22.75 5.1001 22.75 7.8501C22.75 8.8901 22.54 9.5801 22.08 10.0301C21.56 10.5501 20.86 10.6001 20.21 10.6001ZM4.22 9.1001H20.01C20.46 9.1101 20.88 9.1101 21.02 8.9701C21.09 8.9001 21.24 8.6601 21.24 7.8501C21.24 6.7201 20.96 6.6001 19.77 6.6001H4.22C3.03 6.6001 2.75 6.7201 2.75 7.8501C2.75 8.6601 2.91 8.9001 2.97 8.9701C3.11 9.1001 3.54 9.1001 3.98 9.1001H4.22Z"
              stroke="none"/>/>
        <path d="M9.76001 18.3C9.35001 18.3 9.01001 17.96 9.01001 17.55V14C9.01001 13.59 9.35001 13.25 9.76001 13.25C10.17 13.25 10.51 13.59 10.51 14V17.55C10.51 17.97 10.17 18.3 9.76001 18.3Z"
              stroke="none"/>/>
        <path d="M14.3601 18.3C13.9501 18.3 13.6101 17.96 13.6101 17.55V14C13.6101 13.59 13.9501 13.25 14.3601 13.25C14.7701 13.25 15.1101 13.59 15.1101 14V17.55C15.1101 17.97 14.7701 18.3 14.3601 18.3Z"
              stroke="none"/>/>
        <path d="M14.89 22.75H8.86C5.28 22.75 4.48 20.62 4.17 18.77L2.76 10.12C2.69 9.71 2.97 9.33 3.38 9.26C3.79 9.19 4.17 9.47 4.24 9.88L5.65 18.52C5.94 20.29 6.54 21.25 8.86 21.25H14.89C17.46 21.25 17.75 20.35 18.08 18.61L19.76 9.86C19.84 9.45 20.23 9.18 20.64 9.27C21.05 9.35 21.31 9.74 21.23 10.15L19.55 18.9C19.16 20.93 18.51 22.75 14.89 22.75Z"
              stroke="none"/>/>
    </symbol>
    <symbol id="agonbyaoc-icon_compare" viewBox="0 0 48 48">
        <path d="M 37.994141 4 C 35.247707 4 32.990234 6.2594255 32.990234 9.0058594 L 32.990234 39 C 32.990234 41.746434 35.247707 44.005859 37.994141 44.005859 C 40.740575 44.005859 43 41.746434 43 39 L 43 9.0058594 C 43 6.2594255 40.740575 4 37.994141 4 z M 37.994141 7 C 39.119707 7 40 7.8802933 40 9.0058594 L 40 39 C 40 40.125566 39.119707 41.005859 37.994141 41.005859 C 36.868575 41.005859 35.990234 40.125566 35.990234 39 L 35.990234 9.0058594 C 35.990234 7.8802933 36.868575 7 37.994141 7 z M 9.9941406 13.005859 C 7.2477067 13.005859 4.9902344 15.263332 4.9902344 18.009766 L 4.9902344 39 C 4.9902344 41.746434 7.2477067 44.005859 9.9941406 44.005859 C 12.740575 44.005859 15 41.746434 15 39 L 15 18.009766 C 15 15.263332 12.740575 13.005859 9.9941406 13.005859 z M 9.9941406 16.005859 C 11.119707 16.005859 12 16.8842 12 18.009766 L 12 39 C 12 40.125566 11.119707 41.005859 9.9941406 41.005859 C 8.8685745 41.005859 7.9902344 40.125566 7.9902344 39 L 7.9902344 18.009766 C 7.9902344 16.8842 8.8685745 16.005859 9.9941406 16.005859 z M 24 22 C 21.253566 22 18.994141 24.259425 18.994141 27.005859 L 18.994141 39 C 18.994141 41.746434 21.253566 44.005859 24 44.005859 C 26.746434 44.005859 29.005859 41.746434 29.005859 39 L 29.005859 27.005859 C 29.005859 24.259425 26.746434 22 24 22 z M 24 25 C 25.125566 25 26.005859 25.880293 26.005859 27.005859 L 26.005859 39 C 26.005859 40.125566 25.125566 41.005859 24 41.005859 C 22.874434 41.005859 21.994141 40.125566 21.994141 39 L 21.994141 27.005859 C 21.994141 25.880293 22.874434 25 24 25 z"
              stroke="none"/>
    </symbol>
    <symbol id="agonbyaoc-icon_map" viewBox="0 0 13 18">
        <path d="M6.5 8.55a2.36 2.36 0 0 1-1.641-.659 2.215 2.215 0 0 1-.68-1.591c0-.597.244-1.169.68-1.591A2.36 2.36 0 0 1 6.5 4.05a2.36 2.36 0 0 1 1.642.659c.435.422.68.994.68 1.591 0 .295-.06.588-.177.861a2.247 2.247 0 0 1-.503.73 2.328 2.328 0 0 1-.754.488 2.386 2.386 0 0 1-.888.171zM6.5 0a6.606 6.606 0 0 0-4.596 1.845A6.203 6.203 0 0 0 0 6.3C0 11.025 6.5 18 6.5 18S13 11.025 13 6.3c0-1.67-.685-3.273-1.904-4.455A6.606 6.606 0 0 0 6.5 0z"/>
    </symbol>


    <symbol id="agonbyaoc-icon_advantages-discount" viewBox="0 0 63 63">
        <path fill-rule="evenodd" clip-rule="evenodd"
              d="M15.43 29.56l1.83.49.49-1.83.83-3.11L45.32 9.67 57.6 30.95 30.87 46.38l-3.12-.83-1.83-.49-.49 1.83L24.6 50l-7.37 4.26L4.94 32.98l7.37-4.26 3.12.84zM44.37 8.03L16.96 23.86l-.55 2.05-.5 1.82-1.82-.49-2.04-.54L4 31.34a1.89 1.89 0 0 0-.7 2.58L15.6 55.2c.51.9 1.67 1.22 2.57.7l8.05-4.65.55-2.05.49-1.82 1.83.48 2.04.55 27.42-15.83c.9-.52 1.21-1.67.69-2.58L46.96 8.72a1.89 1.89 0 0 0-2.59-.69zM24.9 43.28a.94.94 0 1 0-.95-1.63.94.94 0 0 0 .95 1.63zm-1.55-4.56a.95.95 0 1 1-1.63.94.95.95 0 0 1 1.63-.94zm-2.23-1.98a.94.94 0 1 0-.95-1.64.94.94 0 0 0 .95 1.64zm-1.55-4.57a.95.95 0 1 1-1.63.95.95.95 0 0 1 1.63-.95zm21.18-13.36a.94.94 0 1 0-1.83-.49l-5.36 20a.95.95 0 0 0 1.82.5l5.37-20.01zm-7.26 8.79a1.89 1.89 0 1 0-3.65-.98 1.89 1.89 0 0 0 3.65.98zm1.82.49a3.78 3.78 0 1 0-7.3-1.96 3.78 3.78 0 0 0 7.3 1.96zm7.8.13a1.89 1.89 0 1 1-.98 3.65 1.89 1.89 0 0 1 .97-3.65zm.48-1.83a3.78 3.78 0 1 1-1.95 7.3 3.78 3.78 0 0 1 1.95-7.3z"/>
    </symbol>
    <symbol id="agonbyaoc-icon_advantages-security" viewBox="-41 0 374 374.10622">
        <path d="m287.664062 75.746094-140.605468-74.921875c-2.085938-1.113281-4.585938-1.097657-6.65625.039062l-136.714844 74.921875c-2.242188 1.230469-3.6328125 3.582032-3.6328125 6.140625v97.867188c.0820315 80.449219 47.7460935 153.230469 121.4570315 185.460937l18.976562 8.269532c1.773438.773437 3.792969.777343 5.570313.007812l21.382812-9.234375c75.078125-31.53125 123.921875-105.015625 123.929688-186.445313v-95.925781c0-2.585937-1.425782-4.964843-3.707032-6.179687zm-10.292968 102.105468c-.015625 75.816407-45.503906 144.226563-115.410156 173.566407l-.046876.023437-18.621093 8.039063-16.179688-7.058594c-68.613281-30-112.984375-97.742187-113.0625-172.628906v-93.722657l129.761719-71.117187 133.558594 71.167969zm0 0"/>
        <path d="m92.167969 175.253906c-2.511719-2.941406-6.929688-3.289062-9.871094-.777344-2.941406 2.507813-3.289063 6.929688-.777344 9.867188l36.976563 43.300781c2.46875 2.890625 6.792968 3.285157 9.738281.886719l86.117187-70.0625c3-2.4375 3.453126-6.847656 1.011719-9.847656-2.4375-2.996094-6.847656-3.453125-9.847656-1.011719l-80.8125 65.742187zm0 0"/>
    </symbol>
    <symbol id="agonbyaoc-icon_advantages-payment" viewBox="0 -75 484 484">
        <path d="m345.152344 199.386719c-7.304688-.007813-14.507813 1.746093-21 5.105469-19.253906-9.949219-42.847656-5.027344-56.519532 11.792968-13.671874 16.816406-13.671874 40.921875 0 57.738282 13.671876 16.820312 37.265626 21.742187 56.519532 11.792968 16.863281 8.710938 37.355468 6.109375 51.503906-6.539062 14.152344-12.648438 19.027344-32.71875 12.257812-50.449219-6.769531-17.730469-23.78125-29.445313-42.761718-29.441406zm-73.765625 45.765625c0-17.542969 14.222656-31.761719 31.765625-31.761719 17.542968 0 31.765625 14.222656 31.765625 31.765625s-14.222657 31.765625-31.765625 31.765625c-17.535156-.019531-31.746094-14.230469-31.765625-31.769531zm73.765625 31.769531c-2.722656-.003906-5.433594-.359375-8.066406-1.054687 15.78125-17.433594 15.78125-43.992188 0-61.425782 11.921874-3.132812 24.578124.914063 32.46875 10.382813 7.890624 9.46875 9.59375 22.648437 4.367187 33.808593-5.230469 11.164063-16.441406 18.292969-28.769531 18.289063zm0 0"/>
        <path d="m437 0h-340c-23.242188.03125-42.984375 17.019531-46.476562 40h-3.523438c-25.945312.027344-46.9726562 21.054688-47 47v200c.0273438 25.945312 21.054688 46.972656 47 47h340c23.242188-.03125 42.984375-17.019531 46.476562-40h3.523438c25.945312-.027344 46.972656-21.054688 47-47v-200c-.027344-25.945312-21.054688-46.9726562-47-47zm-423 116.460938h406v29.078124h-406zm418.792969-40h37.207031v29.078124h-36v-18.539062c-.003906-3.546875-.40625-7.082031-1.207031-10.539062zm-335.792969-62.460938h340c18.214844.019531 32.980469 14.785156 33 33v15.460938h-42.933594c-8.539062-13.945313-23.714844-22.453126-40.066406-22.460938h-322.246094c3.3125-15.164062 16.726563-25.980469 32.246094-26zm-50 40h340c18.214844.019531 32.980469 14.785156 33 33v15.460938h-406v-15.460938c.019531-18.214844 14.785156-32.980469 33-33zm340 266h-340c-18.214844-.019531-32.980469-14.785156-33-33v-127.460938h406v127.460938c-.019531 18.214844-14.785156 32.980469-33 33zm50-40h-3v-160.460938h36v127.460938c-.019531 18.214844-14.785156 32.980469-33 33zm0 0"/>
    </symbol>
    <symbol id="agonbyaoc-icon_advantages-chat" viewBox="0 -37 434 434">
        <path d="m41 265.507812h88.945312l35.945313 59.492188c.03125.046875.058594.09375.085937.136719 2.132813 3.371093 5.847657 5.410156 9.835938 5.402343 3.988281.007813 7.699219-2.03125 9.832031-5.402343.03125-.042969.058594-.089844.085938-.136719l13.574219-22.464844h35.710937l31.476563 52.101563c.027343.046875.058593.089843.085937.136719 2.039063 3.207031 5.574219 5.148437 9.371094 5.148437 3.800781 0 7.335937-1.941406 9.375-5.148437.027343-.046876.058593-.089844.085937-.136719l31.476563-52.101563h80.113281c20.425781-.019531 36.976562-16.574218 37-37v-161.914062c-.023438-20.425782-16.574219-36.976563-37-37h-43v-25.621094c-.027344-22.632812-18.367188-40.9726562-41-41h-272c-22.632812.0273438-40.9726562 18.367188-41 41v183.507812c.0234375 22.632813 18.367188 40.972657 41 41zm356-184.886718c12.695312.011718 22.984375 10.300781 23 23v161.917968c-.015625 12.695313-10.304688 22.984376-23 23h-84.0625c-2.449219 0-4.722656 1.28125-5.992188 3.378907l-31 51.300781-31-51.300781c-1.265624-2.097657-3.539062-3.378907-5.988281-3.378907h-31.199219l13.914063-23.03125h91.328125c22.632812-.027343 40.976562-18.367187 41-41v-143.886718zm-383-39.621094c.015625-14.90625 12.09375-26.984375 27-27h272c14.90625.015625 26.984375 12.09375 27 27v183.507812c-.015625 14.902344-12.09375 26.984376-27 27h-95.269531c-2.453125 0-4.722657 1.28125-5.992188 3.378907l-21.839843 36.140625c-.472657.5625-.855469 1.195312-1.132813 1.878906l-12.957031 21.441406-35.925782-59.460937c-1.265624-2.097657-3.539062-3.378907-5.992187-3.378907h-92.890625c-14.90625-.015624-26.984375-12.097656-27-27zm0 0"/>
        <path d="m151.339844 179.929688c2.691406 2.6875 7.035156 2.738281 9.785156.109374l95.710938-91.417968c2.792968-2.671875 2.894531-7.101563.226562-9.898438-2.671875-2.792968-7.101562-2.894531-9.898438-.226562l-90.765624 86.695312-49.449219-49.453125c-2.734375-2.734375-7.164063-2.734375-9.898438 0s-2.734375 7.164063 0 9.898438zm0 0"/>
    </symbol>
    <symbol id="agonbyaoc-icon_advantages-shipping" viewBox="0 0 64 64">
        <g id="Tracking">
            <path d="M61.707,34.293,49.293,21.879A2.978,2.978,0,0,0,47.171,21H30v2h5V38h2V23H47.171a1,1,0,0,1,.708.293L49.586,25H45a2,2,0,0,0-2,2v9a2,2,0,0,0,2,2H60v8a1,1,0,0,1-1,1H56.92a6.991,6.991,0,0,0-13.84,0H28.92a6.991,6.991,0,0,0-13.84,0H13a1,1,0,0,1-1-1V37H10v9a3,3,0,0,0,3,3h2.08a6.978,6.978,0,0,0,2.031,4H2v2H50a7.006,7.006,0,0,0,6.92-6H59a3,3,0,0,0,3-3V35A1,1,0,0,0,61.707,34.293ZM17,48a5,5,0,1,1,5,5A5.006,5.006,0,0,1,17,48Zm9.889,5a6.978,6.978,0,0,0,2.031-4H43.08a6.978,6.978,0,0,0,2.031,4ZM50,53a5,5,0,1,1,5-5A5.006,5.006,0,0,1,50,53ZM45,36V27h6.586L60,35.414V36Z"/>
            <rect x="21" y="47" width="2" height="2"/>
            <rect x="49" y="47" width="2" height="2"/>
            <rect x="2" y="44" width="5" height="2"/>
            <rect x="4" y="40" width="3" height="2"/>
            <rect x="5" y="36" width="2" height="2"/>
            <path d="M15,35A13,13,0,1,0,2,22,13.015,13.015,0,0,0,15,35Zm0-24A11,11,0,1,1,4,22,11.013,11.013,0,0,1,15,11Z"/>
            <path d="M15,31a1,1,0,0,0,.707-.293C16.351,30.063,22,24.29,22,20A7,7,0,0,0,8,20c0,4.29,5.649,10.063,6.293,10.707A1,1,0,0,0,15,31Zm0-16a5.006,5.006,0,0,1,5,5c0,2.566-3.147,6.531-5,8.551-1.853-2.02-5-5.985-5-8.551A5.006,5.006,0,0,1,15,15Z"/>
            <path d="M18,20a3,3,0,1,0-3,3A3,3,0,0,0,18,20Zm-4,0a1,1,0,1,1,1,1A1,1,0,0,1,14,20Z"/>
            <rect x="40" y="40" width="4" height="2"/>
        </g>
    </symbol>
    <symbol id="agonbyaoc-icon_alphabank" viewBox="0 0 30 30">
        <path fill="#EE2A23"
              d="M15 6c1.3 0 1.7.9 2 1.8l3.6 9.3s0 .2-.2.2l-1.9.8a.2.2 0 0 1-.2-.1l-.8-2.2h-5l-.8 2.2a.2.2 0 0 1-.2 0l-2-.7a.2.2 0 0 1 0-.2c0-.3 3.3-8.9 3.5-9.3.3-1 .7-1.8 2-1.8zM9.2 21.6a.2.2 0 0 0-.2.2v2c0 .1 0 .2.2.2h11.6a.2.2 0 0 0 .2-.2v-2c0-.1 0-.2-.2-.2H9.2zM15 8.8l-1.7 4.8h3.4L15 8.8z"/>
    </symbol>
    <symbol id="agonbyaoc-icon_arrow-bottom" viewBox="0 0 10 6">
        <path d="M1.175 0L5 3.712 8.825 0 10 1.148 5 6 0 1.148 1.175 0z"/>
    </symbol>
    <symbol id="agonbyaoc-icon_arrow-left" viewBox="0 0 6 10">
        <path d="M6 1.175L2.288 5 6 8.825 4.852 10 0 5l4.852-5L6 1.175z"/>
    </symbol>
    <symbol id="agonbyaoc-icon_arrow-right" viewBox="0 0 6 10">
        <path d="M0 8.825L3.712 5 0 1.175 1.148 0 6 5l-4.852 5L0 8.825z"/>
    </symbol>
    <symbol id="agonbyaoc-icon_arrow-top" viewBox="0 0 10 6">
        <path d="M8.825 6L5 2.288 1.175 6 0 4.852 5 0l5 4.852L8.825 6z"/>
    </symbol>
    <symbol id="agonbyaoc-icon_available" viewBox="0 0 14 14">
        <path d="M7 0a7 7 0 1 1 0 14A7 7 0 0 1 7 0zm-.7 10.15l4.9-4.9-.987-.987L6.3 8.169 4.137 6.013 3.15 7l3.15 3.15z"/>
    </symbol>
    <symbol id="agonbyaoc-icon_blocks" viewBox="0 0 16 16">
        <path d="M0 7.111h7.111V0H0v7.111zm1.778-5.333h3.555v3.555H1.778V1.778zM8.888 16H16V8.889H8.889V16zm1.779-5.333h3.555v3.555h-3.555v-3.555zM0 16h7.111V8.889H0V16zm1.778-5.333h3.555v3.555H1.778v-3.555zM8.888 0v7.111H16V0H8.889zm5.334 5.333h-3.555V1.778h3.555v3.555z"/>
    </symbol>
    <symbol id="agonbyaoc-icon_breadcrumbs-brothers" viewBox="0 0 12 12">
        <path d="M6 0a6 6 0 1 1 0 12A6 6 0 0 1 6 0zM3 4.8l3 3 3-3H3z"/>
    </symbol>
    <symbol id="agonbyaoc-icon_burger" viewBox="0 0 32 32">
        <g>
            <path d="m30.93333 4.26667h-29.86666c-.58907 0-1.06667.4776-1.06667 1.06666s.4776 1.06667 1.06667 1.06667h29.86666c.58907 0 1.06667-.4776 1.06667-1.06667s-.4776-1.06666-1.06667-1.06666z"/>
            <path d="m30.93333 14.93333h-29.86666c-.58907 0-1.06667.47761-1.06667 1.06667s.4776 1.06667 1.06667 1.06667h29.86666c.58907 0 1.06667-.47761 1.06667-1.06667s-.4776-1.06667-1.06667-1.06667z"/>
            <path d="m30.93333 25.6h-29.86666c-.58907 0-1.06667.4776-1.06667 1.06667 0 .58906.4776 1.06667 1.06667 1.06667h29.86666c.58906 0 1.06667-.4776 1.06667-1.06667s-.4776-1.06667-1.06667-1.06667z"/>
        </g>
    </symbol>
    <symbol id="agonbyaoc-icon_button-minus" viewBox="0 0 18 18">
        <path d="M13.5 9.9h-9V8.1h9v1.8zM9 0a9 9 0 1 0 0 18A9 9 0 0 0 9 0z"/>
    </symbol>
    <symbol id="agonbyaoc-icon_button-plus" viewBox="0 0 18 18">
        <path d="M13.5 9.9H9.9v3.6H8.1V9.9H4.5V8.1h3.6V4.5h1.8v3.6h3.6v1.8zM9 0a9 9 0 1 0 0 18A9 9 0 0 0 9 0z"/>
    </symbol>
    <symbol id="agonbyaoc-icon_catalog" viewBox="0 0 16 16">
        <path d="M9.778 12.444H3.556v-1.777h6.222v1.777zm2.666-3.555H3.556V7.11h8.888v1.78zm0-3.556H3.556V3.556h8.888v1.777zM14.222 0H1.778C.79 0 0 .791 0 1.778v12.444A1.778 1.778 0 0 0 1.778 16h12.444A1.778 1.778 0 0 0 16 14.222V1.778C16 .79 15.2 0 14.222 0z"/>
    </symbol>
    <symbol id="agonbyaoc-icon_clock" viewBox="0 0 12 12">
        <path d="M6 10.8a4.8 4.8 0 1 0 0-9.6 4.8 4.8 0 0 0 0 9.6zM6 0a6 6 0 1 1 0 12A6 6 0 0 1 6 0zm.3 3v3.15L9 7.752l-.45.738L5.4 6.6V3h.9z"/>
    </symbol>
    <symbol id="agonbyaoc-icon_comments" viewBox="0 0 18 18">
        <path d="M6.3 18a.9.9 0 0 1-.9-.9v-2.7H1.8A1.8 1.8 0 0 1 0 12.6V1.8C0 .801.81 0 1.8 0h14.4A1.8 1.8 0 0 1 18 1.8v10.8a1.8 1.8 0 0 1-1.8 1.8h-5.49l-3.33 3.339a.917.917 0 0 1-.63.261H6.3zm.9-5.4v2.772L9.972 12.6H16.2V1.8H1.8v10.8h5.4zm6.3-4.5h-1.8V6.3h1.8v1.8zm-3.6 0H8.1V6.3h1.8v1.8zm-3.6 0H4.5V6.3h1.8v1.8z"/>
    </symbol>
    <symbol id="agonbyaoc-icon_comparison" viewBox="0 0 18 20">
        <path d="M0 20V6h4v14H0zm7 0V0h4v20H7zm7 0v-8h4v8h-4z"/>
    </symbol>
    <symbol id="agonbyaoc-icon_cross" viewBox="0 0 12 12">
        <path d="M12 1.209L10.791 0 6 4.791 1.209 0 0 1.209 4.791 6 0 10.791 1.209 12 6 7.209 10.791 12 12 10.791 7.209 6 12 1.209z"/>
    </symbol>
    <symbol id="agonbyaoc-icon_cross-button" viewBox="0 0 18 18">
        <path d="M11.546 12.82L9 10.275 6.454 12.82l-1.272-1.273 2.545-2.545-2.545-2.546 1.272-1.272L9 7.729l2.546-2.545 1.272 1.272-2.545 2.546 2.545 2.545-1.272 1.273zm3.818-10.182A9 9 0 1 0 2.636 15.367 9 9 0 0 0 15.364 2.638z"/>
    </symbol>
    <symbol id="agonbyaoc-icon_date" viewBox="0 0 18 20">
        <path d="M11 13H4v2h7v-2zm5 5H2V7h14v11zm0-16h-1V0h-2v2H5V0H3v2H2a2 2 0 0 0-2 2v14a2 2 0 0 0 2 2h14a2 2 0 0 0 2-2V4a2 2 0 0 0-2-2zm-2 7H4v2h10V9z"/>
    </symbol>
    <symbol id="agonbyaoc-icon_delivery" viewBox="0 0 73 73">
        <path fill-rule="evenodd" clip-rule="evenodd"
              d="M2.92 13.688a1.095 1.095 0 0 0-1.095 1.094V49.82a1.095 1.095 0 0 0 1.095 1.095h10.03c-.05.352-.111.704-.111 1.07 0 4.22 3.444 7.664 7.664 7.664s7.665-3.445 7.665-7.665c0-.365-.062-.717-.111-1.069h18.66c.074-.001.147-.01.218-.026h2.148c-.053.36-.112.72-.112 1.095 0 4.22 3.445 7.664 7.665 7.664 4.22 0 7.664-3.444 7.664-7.664 0-.374-.059-.735-.11-1.095h6.616a1.095 1.095 0 0 0 1.095-1.095v-6.488c.002-.026.004-.051.004-.077v-4.392c0-.037 0-.075-.004-.112v-6.454c0-.265-.095-.522-.27-.722a1.093 1.093 0 0 0-.137-.171L60.147 18.414a1.096 1.096 0 0 0-.825-.372h-11.51v-3.26a1.095 1.095 0 0 0-1.095-1.094H2.92zm1.095 2.19h41.607V39.94H4.015V15.877zm43.797 4.353h11.014l9.585 10.945H47.812V20.231zm.064 13.135h21.835v4.376h-3.225a1.095 1.095 0 0 0-1.095 1.095v4.392a1.095 1.095 0 0 0 1.095 1.095h3.225V48.7h-6.18c-1.237-2.58-3.853-4.38-6.895-4.38-3.042 0-5.658 1.8-6.895 4.38h-1.865V33.366zm3.157 3.29a1.097 1.097 0 1 0 .111 2.19h2.224a1.096 1.096 0 0 0 .424-2.112 1.096 1.096 0 0 0-.424-.079h-2.224a1.146 1.146 0 0 0-.111 0zm16.548 3.276h2.13v2.202h-2.13v-2.202zM4.015 42.13h41.607v6.595H27.415c-1.23-2.594-3.86-4.405-6.912-4.405s-5.68 1.81-6.912 4.405H4.015V46.51h3.332a1.094 1.094 0 1 0 0-2.19H4.015v-2.19zm16.488 4.38a5.458 5.458 0 0 1 5.475 5.474 5.458 5.458 0 0 1-5.475 5.475 5.458 5.458 0 0 1-5.475-5.475 5.458 5.458 0 0 1 5.475-5.474zm36.133 0a5.458 5.458 0 0 1 5.474 5.474 5.458 5.458 0 0 1-5.474 5.475 5.458 5.458 0 0 1-5.475-5.475 5.458 5.458 0 0 1 5.475-5.474zM20.503 48.7a3.302 3.302 0 0 0-3.285 3.284 3.301 3.301 0 0 0 3.285 3.285 3.302 3.302 0 0 0 3.285-3.285 3.302 3.302 0 0 0-3.285-3.284zm36.133 0a3.302 3.302 0 0 0-3.285 3.284 3.301 3.301 0 0 0 3.285 3.285 3.302 3.302 0 0 0 3.285-3.285 3.302 3.302 0 0 0-3.285-3.284zm-36.133 2.19c.618 0 1.095.477 1.095 1.094 0 .618-.477 1.095-1.095 1.095a1.079 1.079 0 0 1-1.095-1.095 1.08 1.08 0 0 1 1.095-1.095zm36.133 0c.617 0 1.095.477 1.095 1.094 0 .618-.477 1.095-1.095 1.095a1.079 1.079 0 0 1-1.095-1.095 1.08 1.08 0 0 1 1.095-1.095z"/>
    </symbol>
    <symbol id="agonbyaoc-icon_dict-arrow-bottom" viewBox="0 0 12 12">
        <path d="M5.242 0h1.516v9.09l4.166-4.165L12 6l-6 6-6-6 1.076-1.076 4.166 4.167V0z"/>
    </symbol>
    <symbol id="agonbyaoc-icon_dict-arrow-left" viewBox="0 0 12 12">
        <path d="M12 5.242v1.516H2.91l4.165 4.166L6 12 0 6l6-6 1.076 1.076-4.167 4.166H12z"/>
    </symbol>
    <symbol id="agonbyaoc-icon_dict-arrow-right" viewBox="0 0 12 12">
        <path d="M0 6.758V5.242h9.09L4.925 1.076 6 0l6 6-6 6-1.076-1.076 4.167-4.166H0z"/>
    </symbol>
    <symbol id="agonbyaoc-icon_dict-arrow-top" viewBox="0 0 12 12">
        <path d="M6.758 12H5.242V2.91L1.076 7.075 0 6l6-6 6 6-1.076 1.076-4.166-4.167V12z"/>
    </symbol>
    <symbol id="agonbyaoc-icon_enter" viewBox="0 0 14 14">
        <path fill-rule="evenodd" clip-rule="evenodd"
              d="M14 1.75A1.75 1.75 0 0 0 12.25 0h-7.7A1.75 1.75 0 0 0 2.8 1.75v3.36h1.4V1.75a.35.35 0 0 1 .35-.35h7.7a.35.35 0 0 1 .35.35v10.5a.35.35 0 0 1-.35.35h-7.7a.35.35 0 0 1-.35-.35V8.89H2.8v3.36c0 .966.784 1.75 1.75 1.75h7.7A1.75 1.75 0 0 0 14 12.25V1.75zM6.3 6.3H.7v1.4h5.6v2.1L9.8 7 6.3 4.2v2.1z"/>
    </symbol>
    <symbol id="agonbyaoc-icon_expand" viewBox="0 0 13 13">
        <path d="M5.056 13v-1.444H2.463l3.25-3.25-1.019-1.019-3.25 3.25V7.944H0V13h5.056zm3.25-7.287l3.25-3.25v2.593H13V0H7.944v1.444h2.593l-3.25 3.25 1.019 1.019z"/>
    </symbol>
    <symbol id="agonbyaoc-icon_facebook" viewBox="0 0 10 20">
        <path xmlns="http://www.w3.org/2000/svg" fill="currentColor"
              d="M9.145 10.068H6.558v9.479h-3.92v-9.48H.773v-3.33h1.865V4.58c0-1.542.732-3.956 3.955-3.956l2.903.012V3.87H7.39c-.346 0-.832.173-.832.908v1.96h2.93l-.343 3.329z"/>
    </symbol>
    <symbol id="agonbyaoc-icon_youtube" viewBox="0 0 576 512">
        <path xmlns="http://www.w3.org/2000/svg" fill="currentColor"
              d="M549.655 124.083c-6.281-23.65-24.787-42.276-48.284-48.597C458.781 64 288 64 288 64S117.22 64 74.629 75.486c-23.497 6.322-42.003 24.947-48.284 48.597-11.412 42.867-11.412 132.305-11.412 132.305s0 89.438 11.412 132.305c6.281 23.65 24.787 41.5 48.284 47.821C117.22 448 288 448 288 448s170.78 0 213.371-11.486c23.497-6.321 42.003-24.171 48.284-47.821 11.412-42.867 11.412-132.305 11.412-132.305s0-89.438-11.412-132.305zm-317.51 213.508V175.185l142.739 81.205-142.739 81.201z"/>
    </symbol>
    <symbol id="agonbyaoc-icon_instagram" viewBox="0 0 19 19">
        <path xmlns="http://www.w3.org/2000/svg" fill="currentColor"
              d="M9.5 14.031a4.497 4.497 0 0 0 4.492-4.49A4.5 4.5 0 0 0 9.5 5.044a4.497 4.497 0 0 0-4.49 4.493A4.498 4.498 0 0 0 9.5 14.03zm0-7.086a2.598 2.598 0 0 1 2.596 2.595A2.598 2.598 0 0 1 9.5 12.136 2.6 2.6 0 0 1 6.905 9.54 2.6 2.6 0 0 1 9.5 6.945zm4.636-.969c.588 0 1.063-.478 1.063-1.062a1.063 1.063 0 0 0-2.125 0c0 .584.475 1.062 1.062 1.062z"/>
        <path xmlns="http://www.w3.org/2000/svg" fill="currentColor"
              d="M5.18 18.261h8.641c2.425 0 4.4-1.972 4.4-4.4V5.219a4.404 4.404 0 0 0-4.4-4.401H5.18a4.408 4.408 0 0 0-4.4 4.4v8.643c0 2.425 1.971 4.4 4.4 4.4zM2.677 5.22a2.504 2.504 0 0 1 2.501-2.502h8.642a2.504 2.504 0 0 1 2.501 2.502v8.642a2.504 2.504 0 0 1-2.5 2.5H5.178a2.504 2.504 0 0 1-2.501-2.5V5.219z"/>
    </symbol>
    <symbol id="agonbyaoc-icon_tiktok" viewBox="0 0 448 512">
        <path xmlns="http://www.w3.org/2000/svg" fill="currentColor"
              d="M448,209.91a210.06,210.06,0,0,1-122.77-39.25V349.38A162.55,162.55,0,1,1,185,188.31V278.2a74.62,74.62,0,1,0,52.23,71.18V0l88,0a121.18,121.18,0,0,0,1.86,22.17h0A122.18,122.18,0,0,0,381,102.39a121.43,121.43,0,0,0,67,20.14Z"/>
    </symbol>
    <symbol id="agonbyaoc-icon_favorite" viewBox="0 0 13 13">
        <path d="M6.5 12.35l-.942-.842C2.21 8.531 0 6.56 0 4.157 0 2.187 1.573.65 3.575.65A3.94 3.94 0 0 1 6.5 1.976 3.94 3.94 0 0 1 9.425.65C11.427.65 13 2.187 13 4.157c0 2.403-2.21 4.374-5.558 7.351l-.942.842z"/>
    </symbol>
    <symbol id="agonbyaoc-icon_indicator-youtube" viewBox="0 0 22 22">
        <path fill="#fff" d="M6.6 6.6h8.8v8.8H6.6z"/>
        <path fill="#F61C0D"
              d="M17.4 3.3H4.6A4.6 4.6 0 0 0 0 7.9v6.4a4.6 4.6 0 0 0 4.6 4.6h12.8a4.6 4.6 0 0 0 4.6-4.6V7.9a4.6 4.6 0 0 0-4.6-4.6zm-3 8.1l-6 2.9A.2.2 0 0 1 8 14V8.1c0-.1.2-.3.3-.2l6 3a.2.2 0 0 1 0 .5z"/>
    </symbol>
    <symbol id="agonbyaoc-icon_world" viewBox="0 0 512 512">
        <path d="m256 512c140.959 0 256-115.049 256-256 0-140.96-115.049-256-256-256-140.959 0-256 115.049-256 256 0 140.96 115.049 256 256 256zm75.947-43.143c14.505-18.535 25.623-40.643 33.974-62.867h58.966c-24.986 28.11-56.854 49.952-92.94 62.867zm115.476-92.857h-71.804c8.852-32.188 14.045-67.876 15.149-105h90.722c-2.528 38.388-14.68 74.185-34.067 105zm0-240c19.387 30.815 31.539 66.612 34.067 105h-90.722c-1.104-37.124-6.297-72.812-15.149-105zm-22.537-30h-58.966c-8.348-22.205-19.465-44.316-33.974-62.857 36.087 12.915 67.955 34.757 92.94 62.857zm-153.886-73.434c29.436 9.977 50.553 44.985 62.631 73.434h-62.631zm0 103.434h73.427c9.538 31.578 15.149 67.403 16.33 105h-89.757zm0 134.99h89.757c-1.181 37.607-6.792 73.432-16.33 105.01h-73.427zm0 135h62.631c-12.098 28.507-33.219 63.476-62.631 73.444zm-183.886.01h58.966c8.348 22.205 19.465 44.316 33.974 62.857-36.087-12.914-67.955-34.757-92.94-62.857zm153.886 73.434c-29.411-9.968-50.531-44.933-62.631-73.434h62.631zm0-103.434h-73.427c-9.538-31.578-15.149-67.403-16.33-105h89.757zm0-135h-89.757c1.181-37.597 6.792-73.422 16.33-105h73.427zm0-208.434v73.434h-62.631c12.099-28.498 33.218-63.465 62.631-73.434zm-60.947 10.577c-14.505 18.535-25.622 40.642-33.974 62.857h-58.965c24.985-28.1 56.853-49.943 92.939-62.857zm-115.476 92.847h71.804c-8.852 32.198-14.045 67.886-15.149 105.01h-90.722c2.528-38.388 14.68-74.185 34.067-105.01zm-34.067 135.01h90.722c1.104 37.124 6.297 72.812 15.149 105h-71.804c-19.387-30.815-31.539-66.612-34.067-105z"
              fill="currentColor"/>
    </symbol>
    <symbol id="agonbyaoc-icon_link" viewBox="0 0 18 18">
        <path d="M16 14.59L14.59 16 4 5.41V12H2V2h10v2H5.41L16 14.59z"/>
    </symbol>
    <symbol id="agonbyaoc-icon_list-rows-arrow" viewBox="0 0 6 10">
        <path d="M0 8.825L3.712 5 0 1.175 1.148 0 6 5l-4.852 5L0 8.825z"/>
    </symbol>
    <symbol id="agonbyaoc-icon_logout" viewBox="0 0 14 14">
        <path d="M1.556 0h10.888A1.55 1.55 0 0 1 14 1.556v3.11h-1.556v-3.11H1.556v10.888h10.888v-3.11H14v3.11A1.556 1.556 0 0 1 12.444 14H1.556A1.556 1.556 0 0 1 0 12.444V1.556C0 .692.7 0 1.556 0zm6.937 9.784L7.39 10.89 3.5 7l3.889-3.889 1.104 1.097L6.48 6.222H14v1.556H6.479l2.014 2.006z"/>
    </symbol>
    <symbol id="agonbyaoc-icon_magnify" viewBox="0 0 18 18">
        <path d="M12.857 11.314L18 16.457 16.457 18l-5.143-5.143v-.812l-.277-.288a6.656 6.656 0 0 1-4.351 1.614 6.686 6.686 0 1 1 6.685-6.685 6.656 6.656 0 0 1-1.614 4.35l.288.278h.812zm-6.171 0a4.61 4.61 0 0 0 4.628-4.628 4.61 4.61 0 0 0-4.628-4.629 4.61 4.61 0 0 0-4.629 4.629 4.61 4.61 0 0 0 4.629 4.628zM9.257 7.2H7.2v2.057H6.171V7.2H4.114V6.171h2.057V4.114H7.2v2.057h2.057V7.2z"/>
    </symbol>
    <symbol id="agonbyaoc-icon_mail" viewBox="0 0 16 12">
        <path d="M14.4 3L8 6.75 1.6 3V1.5L8 5.25l6.4-3.75V3zm0-3H1.6C.712 0 0 .667 0 1.5v9c0 .398.169.78.469 1.06.3.282.707.44 1.131.44h12.8c.424 0 .831-.158 1.131-.44.3-.28.469-.662.469-1.06v-9c0-.833-.72-1.5-1.6-1.5z"/>
    </symbol>
    <symbol id="agonbyaoc-icon_mastercard" viewBox="0 0 30 30">
        <path fill="#FF5F00" d="M17.8 19.7h-5.6v-10h5.6v10z"/>
        <path fill="#EB001B"
              d="M12.6 14.7c0-2 1-3.8 2.4-5a6.3 6.3 0 0 0-10.2 5 6.3 6.3 0 0 0 10.2 5 6.3 6.3 0 0 1-2.4-5z"/>
        <path fill="#F79E1B"
              d="M25.2 14.7a6.3 6.3 0 0 1-10.2 5 6.3 6.3 0 0 0 2.4-5 6.3 6.3 0 0 0-2.4-5 6.3 6.3 0 0 1 10.2 5z"/>
    </symbol>
    <symbol id="agonbyaoc-icon_menu dots" viewBox="0 0 16 4">
        <path d="M12 2a2 2 0 1 1 4 0 2 2 0 0 1-4 0zM6 2a2 2 0 1 1 4 0 2 2 0 0 1-4 0zM0 2a2 2 0 1 1 4 0 2 2 0 0 1-4 0z"/>
    </symbol>
    <symbol id="agonbyaoc-icon_minus" viewBox="0 0 9 9">
        <path d="M9 5.143H0V3.857h9v1.286z"/>
    </symbol>
    <symbol id="agonbyaoc-icon_mir" viewBox="0 0 28 28">
        <path fill-rule="evenodd" clip-rule="evenodd"
              d="M8.467 11v.003c-.003 0-.937-.003-1.186.89-.229.819-.873 3.08-.89 3.142h-.178s-.659-2.311-.89-3.145c-.25-.893-1.187-.89-1.187-.89H2v6.794h2.136v-4.035h.178l1.246 4.035h1.483l1.246-4.032h.178v4.032h2.136V11H8.467zm7.803 0s-.627.056-.92.712l-1.513 3.323h-.178V11h-2.136v6.794h2.017s.656-.06.95-.712l1.483-3.323h.178v4.035h2.136V11h-2.018zm2.966 3.085v3.709h2.136v-2.166h2.314a2.311 2.311 0 0 0 2.18-1.543h-6.63z"
              fill="#4DB45E"/>
        <path fill-rule="evenodd" clip-rule="evenodd"
              d="M23.686 11h-4.75a3.413 3.413 0 0 0 3.356 2.789h3.66A2.313 2.313 0 0 0 23.686 11z" fill="url(#mir-a)"/>
    </symbol>
    <symbol id="agonbyaoc-icon_no-available" viewBox="0 0 14 14">
        <path d="M7 0c3.871 0 7 3.129 7 7s-3.129 7-7 7-7-3.129-7-7 3.129-7 7-7zm2.513 3.5L7 6.013 4.487 3.5l-.987.987L6.013 7 3.5 9.513l.987.987L7 7.987 9.513 10.5l.987-.987L7.987 7 10.5 4.487 9.513 3.5z"/>
    </symbol>
    <symbol id="agonbyaoc-icon_no-avatar" viewBox="0 0 22 22">
        <circle cx="11" cy="11" r="11" fill="#EEE"/>
        <path fill="#BDBDBD" d="M11 6a2 2 0 1 1 0 5 2 2 0 0 1 0-5zm0 6c3 0 5 1 5 2v2H6v-2c0-1 2-2 5-2z"/>
    </symbol>
    <symbol id="agonbyaoc-icon_no-thumb" viewBox="0 0 60 54">
        <use xlink:href="#no-thumb-a" transform="translate(.59 .53)"/>
    </symbol>
    <symbol id="agonbyaoc-icon_odnoklassniki" viewBox="0 0 10 17">
        <path d="M9.825 9.073c-.216-.44-.827-.812-1.64-.185-1.105.882-2.869.882-2.869.882s-1.763 0-2.87-.882c-.811-.627-1.422-.255-1.639.185-.387.774.046 1.153 1.029 1.78.843.54 1.995.742 2.738.82l-.619.618c-.882.874-1.733 1.717-2.313 2.305-.348.356-.348.92 0 1.253l.109.123a.901.901 0 0 0 1.268 0l2.297-2.304c.89.874 1.733 1.717 2.32 2.305a.901.901 0 0 0 1.269 0l.1-.124c.356-.333.356-.897 0-1.253L6.701 12.29l-.611-.627c.734-.07 1.871-.278 2.707-.812.982-.626 1.415-1.005 1.028-1.779zM5.316 2.755c1.068 0 1.934.866 1.934 1.925a1.928 1.928 0 0 1-1.934 1.926A1.928 1.928 0 0 1 3.383 4.68c0-1.06.866-1.925 1.933-1.925zm0 5.839A3.908 3.908 0 0 0 9.23 4.68a3.913 3.913 0 1 0-7.827 0 3.908 3.908 0 0 0 3.913 3.914z"/>
    </symbol>
    <symbol id="agonbyaoc-icon_pagination-arrow" viewBox="0 0 6 10">
        <path d="M0 8.825L3.712 5 0 1.175 1.148 0 6 5l-4.852 5L0 8.825z"/>
    </symbol>
    <symbol id="agonbyaoc-icon_pay" viewBox="0 0 73 73">
        <path fill-rule="evenodd" clip-rule="evenodd"
              d="M7.3 18.067a4.38 4.38 0 0 1 4.38-4.38h47.085a4.38 4.38 0 0 1 4.38 4.38v9.855c1.21 0 2.19.981 2.19 2.19v12.046a2.19 2.19 0 0 1-2.19 2.19v9.855a4.38 4.38 0 0 1-4.38 4.38H11.68a4.38 4.38 0 0 1-4.38-4.38V18.066zm53.655 0v9.855H48.508c-.865 0-1.65.51-2.001 1.301l-2.677 6.023a2.19 2.19 0 0 0 0 1.778l2.677 6.023a2.19 2.19 0 0 0 2.001 1.3h12.447v9.855c0 1.21-.98 2.19-2.19 2.19H11.68a2.19 2.19 0 0 1-2.19-2.19V18.068c0-1.209.98-2.19 2.19-2.19h47.085c1.21 0 2.19.981 2.19 2.19zm2.19 12.046H48.508l-2.677 6.022 2.677 6.023h14.637V30.111zm-7.665 6.022a1.643 1.643 0 1 1-3.285 0 1.643 1.643 0 0 1 3.285 0zm2.19 0a3.833 3.833 0 1 1-7.665 0 3.833 3.833 0 0 1 7.665 0z"/>
    </symbol>
    <symbol id="agonbyaoc-icon_pen" viewBox="0 0 20 20">
        <path d="M18.71 5.043c.39-.39.39-1.04 0-1.41l-2.34-2.34c-.37-.39-1.02-.39-1.41 0l-1.84 1.83 3.75 3.75 1.84-1.83zM1 15.253v3.75h3.75l11.06-11.07-3.75-3.75L1 15.253z"/>
    </symbol>
    <symbol id="agonbyaoc-icon_plus" viewBox="0 0 9 9">
        <path d="M9 5.143H5.143V9H3.857V5.143H0V3.857h3.857V0h1.286v3.857H9v1.286z"/>
    </symbol>
    <symbol id="agonbyaoc-icon_products-compact-list" viewBox="0 0 18 18">
        <path d="M0 0h18v2H0zm0 4h18v2H0zm0 4h18v2H0zm0 4h18v2H0zm0 4h18v2H0z"/>
    </symbol>
    <symbol id="agonbyaoc-icon_products-list" viewBox="0 0 18 18">
        <path d="M0 0h4v4H0zm6 0h12v4H6zm0 7h12v4H6zm0 7h12v4H6zM0 7h4v4H0zm0 7h4v4H0z"/>
    </symbol>
    <symbol id="agonbyaoc-icon_products-thumbs" viewBox="0 0 18 18">
        <path d="M0 8h8V0H0v8zm0 10h8v-8H0v8zm10 0h8v-8h-8v8zm0-18v8h8V0"/>
    </symbol>
    <symbol id="agonbyaoc-icon_products-thumbs-one" viewBox="0 0 18 18">
        <path d="M0 0h18v8H0zm0 10h18v8H0z"/>
    </symbol>
    <symbol id="agonbyaoc-icon_qiwi" viewBox="0 0 30 30">
        <path fill="#FF8C00"
              d="M25.94 25.66c.18.23-.1.46-.3.27-2.12-1.8-3.9-2.33-5.66-2.4-.93-.04-1.86.05-2.84.13l-.59.05c-.08 0-.17 0-.26.02a9.48 9.48 0 0 1-1.04.06 9.6 9.6 0 0 1-4.64-1.17 8.7 8.7 0 0 1-3.39-3.23A8.57 8.57 0 0 1 6 14.92c0-1.6.4-3.12 1.22-4.48a8.8 8.8 0 0 1 3.35-3.26A9.22 9.22 0 0 1 15.13 6c1.7 0 3.28.4 4.71 1.17a8.8 8.8 0 0 1 3.4 3.24 8.9 8.9 0 0 1 1.05 6.3l-.08.3a2.32 2.32 0 0 1-.08.28 9.94 9.94 0 0 1-1.05 2.16c-.06.1-.09.02-.1-.03a4.09 4.09 0 0 0-1.9-3.06.2.2 0 0 1-.05-.03 3.38 3.38 0 0 0-.57-.29 6.3 6.3 0 0 0-.83-.28c-.19-.05-.6-.03-.45-.17.06-.06.95-.07 1.97 0h.06a5.57 5.57 0 0 0-1.74-4.86 5.87 5.87 0 0 0-4.27-1.71c-1.72 0-3.1.56-4.26 1.71a5.67 5.67 0 0 0-1.72 4.2c0 1.66.58 3.01 1.76 4.16a5.79 5.79 0 0 0 4.21 1.7h.24v-.05c-.1-1.17-.11-2.15.13-1.75l.26.39c.33.47.65.86.97 1.18l.05.05c1.17 1.15 2.32 1.44 3.55 1.72l.08.02.61.15c1.45.35 3.02.96 4.86 3.17zM21.9 18.6c-.18-.05-.31 0-.38.11-.1.18-.03.53.17.84.2.31.39.47.52.47.05 0 .1-.02.12-.06.08-.09.1-.27.07-.5-.02-.23-.17-.71-.5-.86zm-2.04 1.46a.56.56 0 0 0-.44.17c-.24.29-.13.8.24 1.12a1 1 0 0 0 .63.21.7.7 0 0 0 .55-.23c.21-.29.09-.68-.32-1.02a1.01 1.01 0 0 0-.66-.25z"/>
    </symbol>
    <symbol id="agonbyaoc-icon_recovery" viewBox="0 0 18 18">
        <path d="M9.143 2a6.787 6.787 0 0 0-4.849 2.05A7.075 7.075 0 0 0 2.286 9H0l3.048 3.111L6.095 9H3.81a5.5 5.5 0 0 1 1.562-3.85 5.279 5.279 0 0 1 3.77-1.594c1.415 0 2.772.573 3.772 1.594A5.502 5.502 0 0 1 14.476 9a5.502 5.502 0 0 1-1.562 3.85 5.279 5.279 0 0 1-3.771 1.594 5.36 5.36 0 0 1-3.093-1.01l-1.098 1.12A6.853 6.853 0 0 0 9.142 16a6.787 6.787 0 0 0 4.85-2.05A7.074 7.074 0 0 0 16 9a7.074 7.074 0 0 0-2.008-4.95A6.787 6.787 0 0 0 9.142 2z"/>
    </symbol>
    <symbol id="agonbyaoc-icon_rss" viewBox="0 0 12 12">
        <path d="M1.681 8.638a1.681 1.681 0 0 1 1.681 1.68c0 .91-.755 1.682-1.68 1.682A1.705 1.705 0 0 1 0 10.319a1.681 1.681 0 0 1 1.681-1.681zM0 0a12 12 0 0 1 12 12H9.817A9.818 9.818 0 0 0 0 2.183V0zm0 4.365A7.635 7.635 0 0 1 7.635 12H5.452A5.452 5.452 0 0 0 0 6.548V4.365z"/>
    </symbol>
    <symbol id="agonbyaoc-icon_sale" viewBox="0 0 73 73">
        <path fill-rule="evenodd" clip-rule="evenodd"
              d="M17.88 34.252l2.115.566.567-2.115.967-3.611 30.983-17.888L66.747 35.86 35.764 53.748l-3.611-.968-2.115-.567-.567 2.115-.968 3.612-8.54 4.93L5.73 38.214l8.54-4.93 3.61.968zM51.416 9.306L19.649 27.65l-.636 2.372-.567 2.115-2.115-.567-2.372-.635-9.325 5.384a2.19 2.19 0 0 0-.802 2.991l14.235 24.656a2.19 2.19 0 0 0 2.992.801l9.325-5.383.635-2.372.567-2.116 2.116.567 2.372.636 31.768-18.342a2.19 2.19 0 0 0 .801-2.991L54.408 10.109a2.19 2.19 0 0 0-2.991-.802zM28.849 50.154a1.095 1.095 0 1 0-1.095-1.897 1.095 1.095 0 0 0 1.095 1.897zm-1.79-5.29a1.095 1.095 0 1 1-1.896 1.096 1.095 1.095 0 0 1 1.896-1.095zm-2.59-2.297a1.095 1.095 0 1 0-1.095-1.896 1.095 1.095 0 0 0 1.095 1.896zm-1.79-5.289a1.095 1.095 0 1 1-1.896 1.095 1.095 1.095 0 0 1 1.896-1.095zm24.535-15.483a1.095 1.095 0 1 0-2.116-.567l-6.212 23.185A1.095 1.095 0 1 0 41 44.98l6.213-23.185zM38.803 31.98a2.19 2.19 0 1 0-4.231-1.134 2.19 2.19 0 0 0 4.23 1.134zm2.115.567a4.38 4.38 0 1 0-8.461-2.267 4.38 4.38 0 0 0 8.461 2.267zm9.029.152a2.19 2.19 0 1 1-1.134 4.23 2.19 2.19 0 0 1 1.134-4.23zm.566-2.116a4.38 4.38 0 1 1-2.267 8.462 4.38 4.38 0 0 1 2.267-8.461z"/>
    </symbol>
    <symbol id="agonbyaoc-icon_sberbank" viewBox="0 0 30 30">
        <path fill="#299D30"
              d="M24 15.15c0 4.89-4.03 8.85-9 8.85a8.92 8.92 0 0 1-8.98-9.44l5.45 3.08 11.54-6.52a8.7 8.7 0 0 1 .99 4.04zm-12.53.27L6.4 12.55c-.1.32-.18.64-.25.98l5.32 3 11.05-6.24a9.25 9.25 0 0 0-.6-.78l-10.45 5.9zm9.77-6.64a9.04 9.04 0 0 0-.79-.66l-8.98 5.07-4.29-2.42a8.73 8.73 0 0 0-.44.86l4.73 2.68 9.77-5.53zm-9.77 3.3l8.07-4.56A9.06 9.06 0 0 0 18.5 7l-7.02 3.97L8.34 9.2c-.22.24-.43.5-.62.76l3.75 2.12z"/>
    </symbol>
    <symbol id="agonbyaoc-icon_search" viewBox="0 0 18 18">
        <path d="M6.686 0a6.686 6.686 0 0 1 6.685 6.686 6.702 6.702 0 0 1-1.604 4.35l.278.278h.812L18 16.457 16.457 18l-5.143-5.143v-.812l-.277-.278a6.702 6.702 0 0 1-4.351 1.604A6.686 6.686 0 0 1 6.686 0zm0 2.057a4.61 4.61 0 0 0-4.629 4.629 4.61 4.61 0 0 0 4.629 4.628 4.61 4.61 0 0 0 4.628-4.628 4.61 4.61 0 0 0-4.628-4.629z"/>
    </symbol>
    <symbol id="agonbyaoc-icon_social" viewBox="0 0 16 16">
        <path d="M12.74 11.315c-.6 0-1.137.241-1.548.619L5.558 8.599c.04-.185.071-.37.071-.563 0-.193-.031-.378-.07-.562l5.57-3.303c.426.402.987.65 1.612.65a2.35 2.35 0 0 0 1.676-.705 2.432 2.432 0 0 0 .694-1.705c0-.64-.25-1.253-.694-1.705A2.35 2.35 0 0 0 12.74 0a2.35 2.35 0 0 0-1.677.706 2.432 2.432 0 0 0-.694 1.705c0 .193.032.378.071.562L4.87 6.276a2.339 2.339 0 0 0-1.612-.65 2.35 2.35 0 0 0-1.676.705 2.432 2.432 0 0 0-.694 1.705c0 .64.25 1.253.694 1.705a2.35 2.35 0 0 0 1.676.706c.624 0 1.185-.25 1.612-.65l5.626 3.334c-.04.169-.064.346-.064.53 0 1.294 1.035 2.339 2.308 2.339 1.272 0 2.307-1.045 2.307-2.338 0-.623-.243-1.22-.676-1.66a2.287 2.287 0 0 0-1.631-.687z"
              fill="currentColor"/>
    </symbol>
    <symbol id="agonbyaoc-icon_sorting" viewBox="0 0 10 10">
        <path d="M10 8v2H0V8h10zM8 4v2H0V4h8zM6 2V0H0v2h6z"/>
    </symbol>
    <symbol id="agonbyaoc-icon_spinner" viewBox="0 0 60 60">
        <path d="M30 55C16.25 55 5 43.75 5 30S16.25 5 30 5c3 0 5.75.5 8.5 1.5l1.75-4.75C37 .5 33.5 0 30 0 13.5 0 0 13.5 0 30s13.5 30 30 30 30-13.5 30-30h-5c0 13.75-11.25 25-25 25z"/>
    </symbol>
    <symbol id="agonbyaoc-icon_subscribe" viewBox="0 0 127 119">
        <path d="M11.33 119h104.172c6.35 0 11.498-5.164 11.498-11.532V47.742c0-3.958-2.059-7.573-5.148-9.638l-12.014-8.262v-4.475c0-5.336-4.29-9.639-9.782-9.639H89.588l-.172-.172L69.68 1.786c-3.775-2.41-8.409-2.41-12.356.172l-19.05 13.254c-.343.172-.514.344-.686.688h-10.64c-5.32 0-9.782 4.303-9.782 9.639v4.475L5.324 38.276c-3.432 2.065-5.32 5.68-5.32 9.638v59.898C-.167 113.836 4.981 119 11.331 119zm3.09-6.885l47.194-40.276c.858-.86 2.231-.86 3.261 0l47.366 40.276H14.42zm95.247-74.011l8.237 5.68c1.202.688 1.888 1.893 2.06 3.27l-10.297 9.122V38.104zm10.297 18.072v51.464c0 .689-.172 1.205-.343 1.893L89.245 83.715l30.719-27.539zM60.928 7.638c1.544-.86 3.432-.86 4.805-.172l11.842 8.262H49.086l11.842-8.09zm-37.07 17.729c0-1.55 1.202-2.754 2.918-2.754h73.28c1.545 0 2.918 1.205 2.918 2.754V62.2L84.096 79.068 69.509 66.676c-3.433-2.927-8.581-2.927-12.185 0L42.737 79.067 23.859 62.2V25.367zM8.929 43.784l8.066-5.68v17.9L6.87 46.882c.171-1.205.858-2.41 2.06-3.098zm-2.23 12.392l30.718 27.367L7.04 109.361c-.171-.516-.343-1.205-.343-1.893V56.176z"
              fill-opacity=".15"/>
        <path d="M41.02 41.546h44.62c1.888 0 3.433-1.55 3.433-3.443s-1.545-3.442-3.432-3.442H41.02c-1.888 0-3.433 1.55-3.433 3.442 0 1.894 1.545 3.443 3.432 3.443zm48.053 12.049c0-1.894-1.545-3.443-3.432-3.443H41.02c-1.888 0-3.433 1.55-3.433 3.443s1.545 3.442 3.432 3.442h44.62a3.448 3.448 0 0 0 3.433-3.442z"
              fill-opacity=".15"/>
    </symbol>
    <symbol id="agonbyaoc-icon_telegram" viewBox="0 0 18 18">
        <rect width="18" height="18" fill="#37AEE2" rx="3"/>
        <path fill="#C8DAEA" d="M7.35 13.13c-.3 0-.24-.12-.34-.4l-.86-2.82L12.75 6"/>
        <path fill="#A9C9DD" d="M7.35 13.12c.23 0 .33-.1.45-.22L9 11.73l-1.5-.9"/>
        <path fill="url(#telegram-a)"
              d="M7.5 10.83l3.63 2.68c.41.23.71.11.82-.38l1.47-6.96c.15-.6-.23-.88-.62-.7L4.13 8.8c-.6.24-.6.57-.11.71l2.22.7 5.15-3.25c.25-.15.47-.07.29.1"/>
    </symbol>
    <symbol id="agonbyaoc-icon_telegram-big" viewBox="0 0 472 139">
        <rect x="1" y="1" width="470" height="137" rx="9" fill="#fff" stroke="#039BE5" stroke-width="2"/>
        <path d="M179.363 49h-1.992v-8.063h-9.023V49h-1.993V31.867h1.993v7.29h9.023v-7.29h1.992V49zm12.317 0l-.387-1.828h-.094c-.64.805-1.281 1.351-1.922 1.64-.632.282-1.425.422-2.379.422-1.273 0-2.273-.328-3-.984-.718-.656-1.078-1.59-1.078-2.8 0-2.595 2.075-3.954 6.223-4.079l2.18-.07v-.797c0-1.008-.219-1.75-.657-2.227-.429-.484-1.121-.726-2.074-.726-1.07 0-2.281.328-3.633.984l-.597-1.488a9.164 9.164 0 0 1 2.074-.809 9.08 9.08 0 0 1 2.273-.293c1.532 0 2.664.34 3.399 1.02.742.68 1.113 1.77 1.113 3.27V49h-1.441zm-4.395-1.371c1.211 0 2.16-.332 2.848-.996.695-.664 1.043-1.594 1.043-2.79v-1.16l-1.946.083c-1.546.054-2.664.297-3.351.726-.68.422-1.02 1.082-1.02 1.98 0 .704.211 1.239.633 1.606.43.367 1.028.55 1.793.55zM199.086 49h-1.945V36.156h10.781V49h-1.969V37.844h-6.867V49zm14.789-12.844v8.145l-.082 2.133-.035.668 6.949-10.946h2.426V49h-1.817v-7.852l.036-1.546.058-1.524L214.473 49h-2.426V36.156h1.828zm22.957 11.168h5.695V36.156h1.969V49h-17.238V36.156h1.945v11.168h5.684V36.156h1.945v11.168zm13.629-11.168v8.145l-.082 2.133-.035.668 6.949-10.946h2.426V49h-1.817v-7.852l.036-1.546.058-1.524L251.059 49h-2.426V36.156h1.828zm22.043 1.664h-4.172V49h-1.945V37.82h-4.125v-1.664h10.242v1.664zm7.734 11.414c-1.898 0-3.398-.578-4.5-1.734-1.093-1.156-1.64-2.762-1.64-4.816 0-2.07.507-3.715 1.523-4.934 1.024-1.219 2.395-1.828 4.113-1.828 1.61 0 2.883.531 3.821 1.594.937 1.054 1.406 2.449 1.406 4.183v1.23h-8.848c.039 1.508.418 2.653 1.137 3.434.727.782 1.746 1.172 3.059 1.172 1.382 0 2.75-.289 4.101-.867v1.734a9.937 9.937 0 0 1-1.957.633c-.609.133-1.348.2-2.215.2zm-.527-11.683c-1.031 0-1.856.336-2.473 1.008-.609.672-.968 1.601-1.078 2.789h6.715c0-1.227-.273-2.164-.82-2.813-.547-.656-1.328-.984-2.344-.984zm16.758-1.395v5.38h7.195v-5.38h1.945V49h-1.945v-5.79h-7.195V49h-1.946V36.156h1.946zM317.633 49l-.387-1.828h-.094c-.64.805-1.281 1.351-1.922 1.64-.632.282-1.425.422-2.378.422-1.274 0-2.274-.328-3-.984-.719-.656-1.079-1.59-1.079-2.8 0-2.595 2.075-3.954 6.223-4.079l2.18-.07v-.797c0-1.008-.219-1.75-.656-2.227-.43-.484-1.122-.726-2.075-.726-1.07 0-2.281.328-3.633.984l-.597-1.488a9.164 9.164 0 0 1 2.074-.809 9.08 9.08 0 0 1 2.273-.293c1.532 0 2.665.34 3.399 1.02.742.68 1.113 1.77 1.113 3.27V49h-1.441zm-4.395-1.371c1.211 0 2.16-.332 2.848-.996.695-.664 1.043-1.594 1.043-2.79v-1.16l-1.945.083c-1.547.054-2.664.297-3.352.726-.68.422-1.02 1.082-1.02 1.98 0 .704.211 1.239.633 1.606.43.367 1.028.55 1.793.55zm16.524-.504l.363-1.09.504-1.383 3.48-8.472h2.473V49h-1.723V38.395l-.234.68-.68 1.792L330.629 49H329l-3.316-8.156c-.414-1.047-.7-1.864-.856-2.45V49h-1.734V36.18h2.379l3.363 8.144c.336.86.644 1.793.926 2.801zm27.633-7.746c0 .836-.243 1.473-.727 1.91-.477.43-1.148.719-2.016.867v.106c1.094.148 1.891.468 2.391.96.508.493.762 1.172.762 2.04 0 1.195-.442 2.117-1.325 2.765-.875.649-2.156.973-3.843.973h-5.66V36.156h5.636c3.188 0 4.782 1.075 4.782 3.223zm-1.536 5.754c0-.696-.265-1.2-.797-1.512-.523-.32-1.394-.48-2.613-.48h-3.527v4.23h3.574c2.242 0 3.363-.746 3.363-2.238zm-.363-5.567c0-.625-.242-1.066-.726-1.324-.477-.265-1.204-.398-2.18-.398h-3.668v3.62h3.293c1.203 0 2.051-.148 2.543-.444.492-.297.738-.782.738-1.454z"
              fill="#224040"/>
        <path d="M186.088 105h-8.325V72.666h-10.662v-6.929h29.649v6.929h-10.662V105zm28.494-24.76c-1.737 0-3.098.554-4.082 1.664-.985 1.092-1.549 2.65-1.692 4.673h11.494c-.036-2.023-.564-3.58-1.585-4.673-1.02-1.11-2.399-1.665-4.135-1.665zm1.154 25.297c-4.834 0-8.611-1.334-11.333-4.001-2.721-2.668-4.082-6.446-4.082-11.333 0-5.031 1.254-8.916 3.76-11.656 2.524-2.757 6.007-4.135 10.447-4.135 4.243 0 7.546 1.208 9.91 3.625 2.363 2.417 3.544 5.756 3.544 10.017v3.975H208.62c.089 2.327.778 4.145 2.068 5.452 1.289 1.306 3.097 1.96 5.424 1.96 1.809 0 3.518-.188 5.13-.564 1.611-.376 3.294-.976 5.049-1.8v6.339a18.84 18.84 0 0 1-4.593 1.584c-1.629.358-3.616.537-5.962.537zm27.097-.537h-8.19V63.213h8.19V105zm21.055-24.76c-1.736 0-3.097.554-4.082 1.664-.985 1.092-1.549 2.65-1.692 4.673h11.494c-.035-2.023-.564-3.58-1.584-4.673-1.021-1.11-2.399-1.665-4.136-1.665zm1.155 25.297c-4.834 0-8.612-1.334-11.333-4.001-2.721-2.668-4.082-6.446-4.082-11.333 0-5.031 1.253-8.916 3.76-11.656 2.524-2.757 6.006-4.135 10.446-4.135 4.244 0 7.547 1.208 9.91 3.625 2.363 2.417 3.545 5.756 3.545 10.017v3.975h-19.363c.09 2.327.779 4.145 2.068 5.452 1.289 1.306 3.097 1.96 5.425 1.96 1.808 0 3.518-.188 5.129-.564 1.612-.376 3.295-.976 5.049-1.8v6.339a18.817 18.817 0 0 1-4.592 1.584c-1.629.358-3.617.537-5.962.537zm45.037-30.561v4.162l-4.7 1.209c.859 1.343 1.289 2.846 1.289 4.511 0 3.223-1.128 5.739-3.384 7.547-2.238 1.79-5.353 2.685-9.346 2.685l-1.477-.08-1.208-.135c-.842.645-1.262 1.361-1.262 2.149 0 1.182 1.504 1.772 4.511 1.772h5.103c3.294 0 5.801.708 7.519 2.122 1.737 1.414 2.605 3.491 2.605 6.23 0 3.51-1.468 6.231-4.404 8.164-2.918 1.934-7.117 2.901-12.595 2.901-4.189 0-7.394-.734-9.614-2.202-2.202-1.45-3.304-3.491-3.304-6.123 0-1.809.564-3.321 1.692-4.539 1.128-1.217 2.784-2.086 4.969-2.605-.842-.358-1.576-.94-2.203-1.745-.626-.824-.939-1.692-.939-2.605 0-1.146.331-2.095.993-2.847.663-.77 1.62-1.522 2.874-2.256-1.576-.68-2.829-1.772-3.76-3.276-.913-1.504-1.37-3.277-1.37-5.318 0-3.276 1.066-5.81 3.196-7.6 2.131-1.79 5.174-2.685 9.131-2.685.841 0 1.835.08 2.981.241 1.164.143 1.907.251 2.229.323h10.474zm-23.177 34.267c0 1.128.537 2.014 1.612 2.659 1.092.644 2.614.967 4.565.967 2.936 0 5.237-.403 6.902-1.209s2.497-1.907 2.497-3.303c0-1.128-.492-1.907-1.477-2.336-.984-.43-2.506-.645-4.565-.645h-4.243c-1.504 0-2.766.349-3.787 1.047-1.002.716-1.504 1.656-1.504 2.82zm2.981-24.438c0 1.629.367 2.918 1.101 3.867.752.949 1.889 1.423 3.411 1.423 1.54 0 2.668-.474 3.384-1.423.716-.949 1.074-2.238 1.074-3.867 0-3.617-1.486-5.425-4.458-5.425-3.008 0-4.512 1.808-4.512 5.425zm41.922-10.393c1.11 0 2.032.08 2.766.241l-.618 7.681c-.662-.18-1.468-.269-2.417-.269-2.614 0-4.655.672-6.123 2.015-1.45 1.342-2.175 3.222-2.175 5.64V105h-8.191V74.976h6.203l1.209 5.048h.403c.931-1.683 2.184-3.034 3.76-4.055 1.593-1.038 3.321-1.557 5.183-1.557zM359.091 105l-1.585-4.082h-.214c-1.379 1.737-2.802 2.945-4.271 3.625-1.45.663-3.347.994-5.693.994-2.882 0-5.156-.823-6.821-2.471-1.647-1.647-2.471-3.992-2.471-7.036 0-3.187 1.11-5.532 3.33-7.036 2.238-1.522 5.604-2.363 10.098-2.524l5.21-.161v-1.316c0-3.044-1.558-4.566-4.673-4.566-2.399 0-5.219.725-8.459 2.175l-2.713-5.532c3.456-1.808 7.287-2.712 11.494-2.712 4.029 0 7.117.877 9.265 2.632 2.149 1.754 3.223 4.422 3.223 8.003V105h-5.72zm-2.417-13.911l-3.169.107c-2.381.072-4.154.502-5.317 1.29-1.164.787-1.746 1.987-1.746 3.598 0 2.31 1.325 3.464 3.975 3.464 1.897 0 3.41-.546 4.538-1.638 1.146-1.092 1.719-2.542 1.719-4.35v-2.471zM400.153 105h-8.191V87.463c0-2.166-.367-3.786-1.101-4.86-.716-1.093-1.853-1.639-3.411-1.639-2.095 0-3.616.77-4.565 2.31-.949 1.54-1.424 4.073-1.424 7.6V105h-8.19V74.976h6.257l1.101 3.84h.456c.806-1.379 1.97-2.453 3.492-3.223 1.521-.788 3.267-1.181 5.236-1.181 4.494 0 7.538 1.468 9.131 4.404h.725c.806-1.397 1.988-2.48 3.545-3.25 1.576-.77 3.348-1.154 5.318-1.154 3.401 0 5.971.877 7.707 2.631 1.755 1.737 2.632 4.53 2.632 8.38V105h-8.218V87.463c0-2.166-.367-3.786-1.101-4.86-.716-1.093-1.853-1.639-3.41-1.639-2.006 0-3.51.716-4.512 2.149-.985 1.432-1.477 3.706-1.477 6.821V105z"
              fill="#304848"/>
        <path d="M78 121c27.062 0 49-21.938 49-49s-21.938-49-49-49-49 21.938-49 49 21.938 49 49 49z" fill="#039BE5"/>
        <path d="M51.422 70.938l47.244-18.215c2.193-.793 4.108.535 3.397 3.85l.004-.004-8.044 37.897c-.596 2.687-2.193 3.34-4.426 2.075l-12.25-9.028-5.909 5.692c-.653.653-1.204 1.204-2.47 1.204l.87-12.466 22.703-20.51c.988-.87-.22-1.36-1.523-.495L62.96 78.603 50.866 74.83c-2.625-.833-2.682-2.626.556-3.892z"
              fill="#fff"/>
    </symbol>
    <symbol id="agonbyaoc-icon_thumb-up" viewBox="0 0 22 20">
        <path d="M22 9a2 2 0 0 0-2-2h-6.32l.96-4.57c.02-.1.03-.21.03-.32 0-.41-.17-.79-.44-1.06L13.17 0 6.59 6.58C6.22 6.95 6 7.45 6 8v10a2 2 0 0 0 2 2h9c.83 0 1.54-.5 1.84-1.22l3.02-7.05c.09-.23.14-.47.14-.73V9zM0 20h4V8H0v12z"/>
    </symbol>
    <symbol id="agonbyaoc-icon_time" viewBox="0 0 18 18">
        <path d="M9 16.2A7.2 7.2 0 1 0 9 1.8a7.2 7.2 0 0 0 0 14.4zM9 0a9 9 0 0 1 0 18c-4.977 0-9-4.05-9-9a9 9 0 0 1 9-9zm.45 4.5v4.725l4.05 2.403-.675 1.107L8.1 9.9V4.5h1.35z"/>
    </symbol>
    <symbol id="agonbyaoc-icon_trash" viewBox="0 0 14 18">
        <path d="M14 1h-3.5l-1-1h-5l-1 1H0v2h14V1zM1 16a2 2 0 0 0 2 2h8a2 2 0 0 0 2-2V4H1v12z"/>
    </symbol>
    <symbol id="agonbyaoc-icon_tune" viewBox="0 0 18 18">
        <path d="M0 14v2h6v-2H0zM0 2v2h10V2H0zm10 16v-2h8v-2h-8v-2H8v6h2zM4 6v2H0v2h4v2h2V6H4zm14 4V8H8v2h10zm-6-4h2V4h4V2h-4V0h-2v6z"/>
    </symbol>
    <symbol id="agonbyaoc-icon_twitter" viewBox="0 0 18 15">
        <path d="M17.382 2.42a6.915 6.915 0 0 1-1.991.546 3.475 3.475 0 0 0 1.524-1.917 6.938 6.938 0 0 1-2.2.84 3.466 3.466 0 0 0-5.906 3.162A9.839 9.839 0 0 1 1.663 1.43a3.466 3.466 0 0 0 1.072 4.627 3.441 3.441 0 0 1-1.57-.433v.044c0 1.68 1.196 3.08 2.781 3.398a3.454 3.454 0 0 1-1.565.06 3.47 3.47 0 0 0 3.238 2.407 6.954 6.954 0 0 1-5.132 1.435A9.804 9.804 0 0 0 5.8 14.525c6.375 0 9.861-5.28 9.861-9.861 0-.15-.003-.3-.01-.448a7.028 7.028 0 0 0 1.73-1.794z"/>
    </symbol>
    <symbol id="agonbyaoc-icon_viber" viewBox="0 0 18 18">
        <rect width="18" height="18" fill="#7B519D" rx="3"/>
        <path fill="#fff" fill-rule="evenodd"
              d="M13.2 11.13c-.3-.25-.63-.47-.95-.7-.64-.45-1.23-.49-1.71.24-.27.4-.65.43-1.04.25a4.61 4.61 0 0 1-2.42-2.36c-.22-.49-.21-.93.3-1.27.26-.18.54-.4.51-.8-.02-.52-1.29-2.26-1.79-2.44a.9.9 0 0 0-.62 0c-1.17.39-1.66 1.35-1.2 2.5a12.96 12.96 0 0 0 7.19 7.2c.19.09.4.12.5.15.77 0 1.67-.73 1.93-1.46.24-.7-.28-.98-.7-1.31zM9.44 4.4c2.45.37 3.58 1.54 3.9 4.01.03.23-.06.57.27.58.34 0 .26-.33.26-.56.03-2.33-2-4.49-4.36-4.57-.18.03-.54-.12-.57.28-.01.27.3.22.5.26z"
              clip-rule="evenodd"/>
        <path fill="#fff" fill-rule="evenodd"
              d="M9.92 5.07c-.24-.02-.55-.14-.6.2-.06.34.29.3.51.35 1.52.34 2.04.89 2.3 2.4.03.21-.04.55.33.5.28-.05.18-.34.2-.5.01-1.45-1.23-2.77-2.74-2.95z"
              clip-rule="evenodd"/>
        <path fill="#fff" fill-rule="evenodd"
              d="M10.06 6.25c-.16 0-.31.02-.37.2-.09.24.1.3.28.33.62.1.95.47 1.01 1.1.02.16.13.3.29.28.22-.03.24-.23.24-.42 0-.7-.78-1.5-1.45-1.49z"
              clip-rule="evenodd"/>
    </symbol>
    <symbol id="agonbyaoc-icon_viber-big" viewBox="0 0 472 139">
        <rect x="1" y="1" width="470" height="137" rx="9" fill="#fff" stroke="#8E24AA" stroke-width="2"/>
        <path d="M179.363 49h-1.992v-8.063h-9.023V49h-1.993V31.867h1.993v7.29h9.023v-7.29h1.992V49zm12.317 0l-.387-1.828h-.094c-.64.805-1.281 1.351-1.922 1.64-.632.282-1.425.422-2.379.422-1.273 0-2.273-.328-3-.984-.718-.656-1.078-1.59-1.078-2.8 0-2.595 2.075-3.954 6.223-4.079l2.18-.07v-.797c0-1.008-.219-1.75-.657-2.227-.429-.484-1.121-.726-2.074-.726-1.07 0-2.281.328-3.633.984l-.597-1.488a9.164 9.164 0 0 1 2.074-.809 9.08 9.08 0 0 1 2.273-.293c1.532 0 2.664.34 3.399 1.02.742.68 1.113 1.77 1.113 3.27V49h-1.441zm-4.395-1.371c1.211 0 2.16-.332 2.848-.996.695-.664 1.043-1.594 1.043-2.79v-1.16l-1.946.083c-1.546.054-2.664.297-3.351.726-.68.422-1.02 1.082-1.02 1.98 0 .704.211 1.239.633 1.606.43.367 1.028.55 1.793.55zM199.086 49h-1.945V36.156h10.781V49h-1.969V37.844h-6.867V49zm14.789-12.844v8.145l-.082 2.133-.035.668 6.949-10.946h2.426V49h-1.817v-7.852l.036-1.546.058-1.524L214.473 49h-2.426V36.156h1.828zm22.957 11.168h5.695V36.156h1.969V49h-17.238V36.156h1.945v11.168h5.684V36.156h1.945v11.168zm13.629-11.168v8.145l-.082 2.133-.035.668 6.949-10.946h2.426V49h-1.817v-7.852l.036-1.546.058-1.524L251.059 49h-2.426V36.156h1.828zm22.043 1.664h-4.172V49h-1.945V37.82h-4.125v-1.664h10.242v1.664zm7.734 11.414c-1.898 0-3.398-.578-4.5-1.734-1.093-1.156-1.64-2.762-1.64-4.816 0-2.07.507-3.715 1.523-4.934 1.024-1.219 2.395-1.828 4.113-1.828 1.61 0 2.883.531 3.821 1.594.937 1.054 1.406 2.449 1.406 4.183v1.23h-8.848c.039 1.508.418 2.653 1.137 3.434.727.782 1.746 1.172 3.059 1.172 1.382 0 2.75-.289 4.101-.867v1.734a9.937 9.937 0 0 1-1.957.633c-.609.133-1.348.2-2.215.2zm-.527-11.683c-1.031 0-1.856.336-2.473 1.008-.609.672-.968 1.601-1.078 2.789h6.715c0-1.227-.273-2.164-.82-2.813-.547-.656-1.328-.984-2.344-.984zm16.758-1.395v5.38h7.195v-5.38h1.945V49h-1.945v-5.79h-7.195V49h-1.946V36.156h1.946zM317.633 49l-.387-1.828h-.094c-.64.805-1.281 1.351-1.922 1.64-.632.282-1.425.422-2.378.422-1.274 0-2.274-.328-3-.984-.719-.656-1.079-1.59-1.079-2.8 0-2.595 2.075-3.954 6.223-4.079l2.18-.07v-.797c0-1.008-.219-1.75-.656-2.227-.43-.484-1.122-.726-2.075-.726-1.07 0-2.281.328-3.633.984l-.597-1.488a9.164 9.164 0 0 1 2.074-.809 9.08 9.08 0 0 1 2.273-.293c1.532 0 2.665.34 3.399 1.02.742.68 1.113 1.77 1.113 3.27V49h-1.441zm-4.395-1.371c1.211 0 2.16-.332 2.848-.996.695-.664 1.043-1.594 1.043-2.79v-1.16l-1.945.083c-1.547.054-2.664.297-3.352.726-.68.422-1.02 1.082-1.02 1.98 0 .704.211 1.239.633 1.606.43.367 1.028.55 1.793.55zm16.524-.504l.363-1.09.504-1.383 3.48-8.472h2.473V49h-1.723V38.395l-.234.68-.68 1.792L330.629 49H329l-3.316-8.156c-.414-1.047-.7-1.864-.856-2.45V49h-1.734V36.18h2.379l3.363 8.144c.336.86.644 1.793.926 2.801zm27.633-7.746c0 .836-.243 1.473-.727 1.91-.477.43-1.148.719-2.016.867v.106c1.094.148 1.891.468 2.391.96.508.493.762 1.172.762 2.04 0 1.195-.442 2.117-1.325 2.765-.875.649-2.156.973-3.843.973h-5.66V36.156h5.636c3.188 0 4.782 1.075 4.782 3.223zm-1.536 5.754c0-.696-.265-1.2-.797-1.512-.523-.32-1.394-.48-2.613-.48h-3.527v4.23h3.574c2.242 0 3.363-.746 3.363-2.238zm-.363-5.567c0-.625-.242-1.066-.726-1.324-.477-.265-1.204-.398-2.18-.398h-3.668v3.62h3.293c1.203 0 2.051-.148 2.543-.444.492-.297.738-.782.738-1.454z"
              fill="#224040"/>
        <path d="M193.339 65.737h8.406L188.397 105h-9.077L166 65.737h8.406l7.385 23.365c.412 1.378.833 2.99 1.262 4.834.448 1.826.725 3.097.833 3.813.197-1.647.868-4.53 2.014-8.647l7.439-23.365zm12.38 1.477c0-2.667 1.486-4.001 4.458-4.001 2.972 0 4.458 1.334 4.458 4.001 0 1.272-.376 2.265-1.128 2.981-.734.699-1.844 1.048-3.33 1.048-2.972 0-4.458-1.343-4.458-4.029zm8.54 37.786h-8.191V74.976h8.191V105zm25.325-30.588c3.545 0 6.32 1.387 8.325 4.162 2.005 2.757 3.008 6.544 3.008 11.36 0 4.96-1.038 8.8-3.115 11.521-2.059 2.721-4.87 4.082-8.433 4.082-3.527 0-6.293-1.28-8.298-3.84h-.564l-1.37 3.303h-6.257V63.213h8.191v9.722c0 1.235-.108 3.213-.322 5.935h.322c1.915-2.972 4.753-4.458 8.513-4.458zm-2.632 6.552c-2.023 0-3.5.627-4.431 1.88-.931 1.236-1.414 3.286-1.45 6.15v.886c0 3.223.474 5.533 1.423 6.93.967 1.396 2.489 2.094 4.566 2.094 1.683 0 3.016-.77 4.001-2.31 1.003-1.557 1.504-3.813 1.504-6.767s-.501-5.165-1.504-6.634c-1.003-1.486-2.372-2.229-4.109-2.229zm33.167-.725c-1.737 0-3.098.555-4.082 1.665-.985 1.092-1.549 2.65-1.692 4.673h11.494c-.036-2.023-.564-3.58-1.585-4.673-1.02-1.11-2.399-1.665-4.135-1.665zm1.154 25.298c-4.834 0-8.611-1.334-11.333-4.001-2.721-2.668-4.082-6.446-4.082-11.333 0-5.031 1.254-8.916 3.76-11.656 2.525-2.757 6.007-4.135 10.447-4.135 4.243 0 7.546 1.208 9.91 3.625 2.363 2.417 3.545 5.756 3.545 10.017v3.975h-19.363c.089 2.327.779 4.145 2.068 5.452 1.289 1.306 3.097 1.96 5.424 1.96 1.809 0 3.518-.188 5.13-.564 1.611-.376 3.294-.976 5.049-1.8v6.339a18.825 18.825 0 0 1-4.593 1.584c-1.629.358-3.616.537-5.962.537zm35.665-31.125c1.11 0 2.032.08 2.766.241l-.618 7.681c-.662-.18-1.468-.269-2.417-.269-2.614 0-4.655.672-6.123 2.015-1.45 1.342-2.175 3.222-2.175 5.64V105h-8.191V74.976h6.203l1.209 5.048h.403c.931-1.683 2.184-3.034 3.759-4.055 1.594-1.038 3.322-1.557 5.184-1.557z"
              fill="#304848"/>
        <path d="M78 121c27.062 0 49-21.938 49-49s-21.938-49-49-49-49 21.938-49 49 21.938 49 49 49z" fill="#8E24AA"/>
        <path d="M103.716 76.027c1.701-14.314-.817-23.35-5.358-27.438l.002-.002c-7.329-6.98-32.081-8.014-40.85.313-3.937 4.073-5.324 10.051-5.476 17.452-.152 7.402-.333 21.27 12.59 25.032h.011l-.011 5.745s-.088 2.328 1.398 2.795c1.701.552 2.47-.53 7.76-6.847 8.844.767 15.637-.99 16.409-1.246 1.785-.599 11.891-1.936 13.525-15.804zM74.653 89.035s-5.598 6.98-7.339 8.792c-.57.59-1.194.535-1.185-.634 0-.767.043-9.538.043-9.538-10.956-3.14-10.31-14.948-10.191-21.125.119-6.18 1.25-11.241 4.584-14.65 7.692-7.212 29.393-5.6 34.922-.403 6.759 5.992 4.353 22.921 4.367 23.498-1.389 11.576-9.578 12.31-11.084 12.81-.643.215-6.617 1.751-14.117 1.25z"
              fill="#fff"/>
        <path d="M77.75 53.237c-.914 0-.914 1.425 0 1.437 7.094.054 12.937 4.999 13.001 14.07 0 .956 1.401.944 1.39-.013h-.003c-.076-9.773-6.455-15.44-14.388-15.494z"
              fill="#fff"/>
        <path d="M87.082 67.24c-.022.945 1.377.99 1.389.033.116-5.389-3.206-9.828-9.45-10.296-.915-.066-1.01 1.37-.097 1.437 5.414.411 8.267 4.107 8.158 8.826zm-1.497 6.13c-1.173-.68-2.367-.257-2.861.41l-1.034 1.338c-.525.679-1.505.589-1.505.589-7.159-1.893-9.073-9.384-9.073-9.384s-.088-1.014.568-1.558l1.292-1.069c.646-.513 1.054-1.748.396-2.961-1.757-3.176-2.938-4.27-3.538-5.111-.632-.791-1.582-.97-2.57-.435h-.022c-2.054 1.202-4.303 3.45-3.583 5.767 1.227 2.441 3.484 10.224 10.675 16.104 3.38 2.781 8.728 5.632 10.999 6.29l.021.033c2.238.745 4.413-1.592 5.574-3.708v-.016c.516-1.024.345-1.993-.408-2.627-1.335-1.302-3.349-2.739-4.93-3.662z"
              fill="#fff"/>
        <path d="M80 62.278c2.282.133 3.388 1.326 3.507 3.774.043.957 1.432.89 1.39-.066-.152-3.197-1.82-4.978-4.822-5.145-.914-.054-1 1.383-.076 1.437z"
              fill="#fff"/>
    </symbol>
    <symbol id="agonbyaoc-icon_visa" viewBox="0 0 30 30">
        <path fill="#fff"
              d="M12.88 18.48h-1.86l1.17-6.96h1.86l-1.17 6.96zm-3.42-6.96l-1.78 4.79-.2-1.03-.63-3.13s-.08-.63-.88-.63H3.03l-.03.12s.9.18 1.95.8l1.61 6.04H8.5l2.96-6.96h-2zm14.63 6.96h1.71l-1.49-6.96h-1.5c-.68 0-.85.52-.85.52l-2.78 6.44h1.94l.39-1.03h2.36l.22 1.03zm-2.05-2.46l.98-2.6.55 2.6h-1.53zm-2.71-2.82l.26-1.5s-.82-.3-1.67-.3c-.92 0-3.12.4-3.12 2.3 0 1.8 2.58 1.82 2.58 2.77 0 .94-2.31.77-3.07.18l-.28 1.56s.83.39 2.1.39 3.18-.64 3.18-2.38c0-1.81-2.6-1.98-2.6-2.76 0-.8 1.82-.69 2.62-.26z"/>
        <path fill="#E6A540"
              d="M7.47 15.23l-.62-3.09s-.08-.62-.88-.62H3.03l-.03.12s1.41.28 2.76 1.33c1.3 1 1.72 2.26 1.72 2.26z"/>
    </symbol>
    <symbol id="agonbyaoc-icon_vk" viewBox="0 0 576 512">
        <path xmlns="http://www.w3.org/2000/svg" fill="currentColor"
              d="M545 117.7c3.7-12.5 0-21.7-17.8-21.7h-58.9c-15 0-21.9 7.9-25.6 16.7 0 0-30 73.1-72.4 120.5-13.7 13.7-20 18.1-27.5 18.1-3.7 0-9.4-4.4-9.4-16.9V117.7c0-15-4.2-21.7-16.6-21.7h-92.6c-9.4 0-15 7-15 13.5 0 14.2 21.2 17.5 23.4 57.5v86.8c0 19-3.4 22.5-10.9 22.5-20 0-68.6-73.4-97.4-157.4-5.8-16.3-11.5-22.9-26.6-22.9H38.8c-16.8 0-20.2 7.9-20.2 16.7 0 15.6 20 93.1 93.1 195.5C160.4 378.1 229 416 291.4 416c37.5 0 42.1-8.4 42.1-22.9 0-66.8-3.4-73.1 15.4-73.1 8.7 0 23.7 4.4 58.7 38.1 40 40 46.6 57.9 69 57.9h58.9c16.8 0 25.3-8.4 20.4-25-11.2-34.9-86.9-106.7-90.3-111.5-8.7-11.2-6.2-16.2 0-26.2.1-.1 72-101.3 79.4-135.6z"/>
    </symbol>
    <symbol id="agonbyaoc-icon_watch" viewBox="0 0 18 13">
        <path d="M9 3.682A2.454 2.454 0 1 1 9 8.59a2.454 2.454 0 0 1 0-4.91zM9 0c4.09 0 7.584 2.545 9 6.136-1.416 3.592-4.91 6.137-9 6.137S1.415 9.728 0 6.136C1.415 2.545 4.91 0 9 0zM1.784 6.136a8.035 8.035 0 0 0 14.432 0 8.035 8.035 0 0 0-14.432 0z"/>
    </symbol>
    <symbol id="agonbyaoc-icon_webasyst" viewBox="0 0 50 5">
        <circle cx="2.5" cy="2.5" r="2.5" fill="#FE300F"/>
        <circle cx="11.5" cy="2.5" r="2.5" fill="#25B2FE"/>
        <circle cx="20.5" cy="2.5" r="2.5" fill="#F2DB47"/>
        <circle cx="29.5" cy="2.5" r="2.5" fill="#F5769E"/>
        <circle cx="38.5" cy="2.5" r="2.5" fill="#9DDB39"/>
        <circle cx="47.5" cy="2.5" r="2.5" fill="#4ACED0"/>
    </symbol>
    <symbol id="agonbyaoc-icon_webmoney" viewBox="0 0 30 30">
        <path fill="#036CB5"
              d="M14.96 6a8.98 8.98 0 0 1 4.5 1.2l-.82.74-1.23-1.29-2.13 1.9-1.25-1.36-3.9 3.52 2.5 2.77-.98.86 2.47 2.77-.98.86 3.53 3.93 2.09-1.92 1.82 2.06c-.36.28-.76.55-1.19.8A8.92 8.92 0 0 1 14.97 24a9 9 0 0 1-.01-18zm-1.65 8.44l2.14-1.92 1.92 2.15-2.14 1.92-1.92-2.15zm1.53 3.72l2.12-1.95 1.94 2.15-2.14 1.93-1.92-2.13zm-3.05-7.38l2.14-1.93L15.85 11l-2.14 1.93-1.92-2.15zm3.92-1.03l1.6-1.45 1.43 1.6-1.59 1.46-1.44-1.61zm2.84 6.62l1.6-1.45 1.44 1.62-1.6 1.44-1.43-1.61zm1.4 3.25l1.6-1.45 1.44 1.6-1.6 1.46-1.43-1.61zm.66-7.43l1.06-.96.96 1.06-1.06.96-.96-1.06zM19.24 9l1.06-.98.96 1.08-1.06.96L19.24 9zm2.72 6.36l1.06-.96.98 1.06-1.08.97-.96-1.07zm-4.78-2.39l1.6-1.44 1.44 1.6-1.6 1.44-1.44-1.6z"/>
    </symbol>
    <symbol id="agonbyaoc-icon_whatsapp" viewBox="0 0 18 18">
        <rect width="18" height="18" fill="#2DBB28" rx="3"/>
        <path fill="#fff"
              d="M12.97 5.05a5.34 5.34 0 0 0-3.8-1.58 5.38 5.38 0 0 0-5.38 5.38c0 .95.25 1.87.72 2.69l-.76 2.78 2.85-.74c.78.42 1.67.65 2.57.65a5.39 5.39 0 0 0 5.38-5.38 5.34 5.34 0 0 0-1.58-3.8zm-3.8 8.27a4.46 4.46 0 0 1-2.28-.62l-.16-.1-1.7.45.46-1.65-.1-.17a4.46 4.46 0 0 1-.7-2.38 4.48 4.48 0 0 1 4.48-4.47c1.2 0 2.32.47 3.16 1.31a4.44 4.44 0 0 1 1.31 3.16 4.48 4.48 0 0 1-4.47 4.47zm2.45-3.35a22.36 22.36 0 0 0-.92-.43c-.12-.05-.2-.07-.3.07a7.85 7.85 0 0 1-.42.52c-.08.1-.16.1-.3.03-.13-.06-.56-.2-1.07-.66a4.1 4.1 0 0 1-.75-.93c-.08-.14-.01-.2.06-.28l.2-.23c.06-.08.09-.14.13-.23.05-.09.02-.16 0-.23l-.42-1c-.11-.26-.22-.23-.3-.23a5.4 5.4 0 0 0-.26 0 .5.5 0 0 0-.36.16c-.13.14-.47.46-.47 1.12 0 .67.48 1.3.55 1.4.06.08.94 1.44 2.3 2.02.31.14.56.22.76.29.32.1.61.08.84.05.26-.04.8-.33.91-.64.11-.31.11-.58.08-.64-.03-.05-.12-.09-.26-.16z"/>
    </symbol>
    <symbol id="agonbyaoc-icon_whatsapp-big" viewBox="0 0 472 139">
        <rect x="1" y="1" width="470" height="137" rx="9" fill="#fff" stroke="#4CAF50" stroke-width="2"/>
        <g clip-path="url(#clip0)">
            <path d="M127.76 30.095C117.12 19.81 103.12 14 88.21 14c-42.793 0-69.664 46.363-48.295 83.244L32 126l29.563-7.709c12.88 6.958 23.432 6.342 26.675 6.752 49.621 0 74.321-60.032 39.452-94.766l.07-.182z"
                  fill="#ECEFF1"/>
            <path d="M88.313 115.505l-.028-.005h-.075c-14.85 0-24.337-7.033-25.27-7.439l-17.5 4.55 4.69-17.01-1.115-1.75a46.053 46.053 0 0 1-7.075-24.546c0-41.034 50.143-61.554 79.161-32.55 28.947 28.7 8.624 78.75-32.788 78.75z"
                  fill="#4CAF50"/>
            <path d="M113.699 80.766l-.042.35c-1.404-.7-8.246-4.046-9.52-4.508-2.86-1.06-2.053-.168-7.546 6.123-.816.91-1.628.98-3.014.35-1.4-.7-5.894-2.17-11.214-6.93-4.144-3.71-6.926-8.26-7.747-9.66-1.367-2.362 1.493-2.698 4.097-7.626.467-.98.229-1.75-.116-2.445-.35-.7-3.136-7.56-4.303-10.295-1.12-2.725-2.273-2.38-3.136-2.38-2.688-.233-4.653-.196-6.384 1.606-7.532 8.278-5.633 16.818.812 25.9 12.665 16.576 19.413 19.628 31.752 23.865 3.332 1.06 6.37.91 8.773.565 2.679-.425 8.246-3.365 9.408-6.655 1.19-3.29 1.19-6.02.84-6.65-.345-.63-1.26-.98-2.66-1.61z"
                  fill="#FAFAFA"/>
        </g>
        <path d="M179.363 49h-1.992v-8.063h-9.023V49h-1.993V31.867h1.993v7.29h9.023v-7.29h1.992V49zm12.317 0l-.387-1.828h-.094c-.64.805-1.281 1.351-1.922 1.64-.632.282-1.425.422-2.379.422-1.273 0-2.273-.328-3-.984-.718-.656-1.078-1.59-1.078-2.8 0-2.595 2.075-3.954 6.223-4.079l2.18-.07v-.797c0-1.008-.219-1.75-.657-2.227-.429-.484-1.121-.726-2.074-.726-1.07 0-2.281.328-3.633.984l-.597-1.488a9.164 9.164 0 0 1 2.074-.809 9.08 9.08 0 0 1 2.273-.293c1.532 0 2.664.34 3.399 1.02.742.68 1.113 1.77 1.113 3.27V49h-1.441zm-4.395-1.371c1.211 0 2.16-.332 2.848-.996.695-.664 1.043-1.594 1.043-2.79v-1.16l-1.946.083c-1.546.054-2.664.297-3.351.726-.68.422-1.02 1.082-1.02 1.98 0 .704.211 1.239.633 1.606.43.367 1.028.55 1.793.55zM199.086 49h-1.945V36.156h10.781V49h-1.969V37.844h-6.867V49zm14.789-12.844v8.145l-.082 2.133-.035.668 6.949-10.946h2.426V49h-1.817v-7.852l.036-1.546.058-1.524L214.473 49h-2.426V36.156h1.828zm22.957 11.168h5.695V36.156h1.969V49h-17.238V36.156h1.945v11.168h5.684V36.156h1.945v11.168zm13.629-11.168v8.145l-.082 2.133-.035.668 6.949-10.946h2.426V49h-1.817v-7.852l.036-1.546.058-1.524L251.059 49h-2.426V36.156h1.828zm22.043 1.664h-4.172V49h-1.945V37.82h-4.125v-1.664h10.242v1.664zm7.734 11.414c-1.898 0-3.398-.578-4.5-1.734-1.093-1.156-1.64-2.762-1.64-4.816 0-2.07.507-3.715 1.523-4.934 1.024-1.219 2.395-1.828 4.113-1.828 1.61 0 2.883.531 3.821 1.594.937 1.054 1.406 2.449 1.406 4.183v1.23h-8.848c.039 1.508.418 2.653 1.137 3.434.727.782 1.746 1.172 3.059 1.172 1.382 0 2.75-.289 4.101-.867v1.734a9.937 9.937 0 0 1-1.957.633c-.609.133-1.348.2-2.215.2zm-.527-11.683c-1.031 0-1.856.336-2.473 1.008-.609.672-.968 1.601-1.078 2.789h6.715c0-1.227-.273-2.164-.82-2.813-.547-.656-1.328-.984-2.344-.984zm16.758-1.395v5.38h7.195v-5.38h1.945V49h-1.945v-5.79h-7.195V49h-1.946V36.156h1.946zM317.633 49l-.387-1.828h-.094c-.64.805-1.281 1.351-1.922 1.64-.632.282-1.425.422-2.378.422-1.274 0-2.274-.328-3-.984-.719-.656-1.079-1.59-1.079-2.8 0-2.595 2.075-3.954 6.223-4.079l2.18-.07v-.797c0-1.008-.219-1.75-.656-2.227-.43-.484-1.122-.726-2.075-.726-1.07 0-2.281.328-3.633.984l-.597-1.488a9.164 9.164 0 0 1 2.074-.809 9.08 9.08 0 0 1 2.273-.293c1.532 0 2.665.34 3.399 1.02.742.68 1.113 1.77 1.113 3.27V49h-1.441zm-4.395-1.371c1.211 0 2.16-.332 2.848-.996.695-.664 1.043-1.594 1.043-2.79v-1.16l-1.945.083c-1.547.054-2.664.297-3.352.726-.68.422-1.02 1.082-1.02 1.98 0 .704.211 1.239.633 1.606.43.367 1.028.55 1.793.55zm16.524-.504l.363-1.09.504-1.383 3.48-8.472h2.473V49h-1.723V38.395l-.234.68-.68 1.792L330.629 49H329l-3.316-8.156c-.414-1.047-.7-1.864-.856-2.45V49h-1.734V36.18h2.379l3.363 8.144c.336.86.644 1.793.926 2.801zm27.633-7.746c0 .836-.243 1.473-.727 1.91-.477.43-1.148.719-2.016.867v.106c1.094.148 1.891.468 2.391.96.508.493.762 1.172.762 2.04 0 1.195-.442 2.117-1.325 2.765-.875.649-2.156.973-3.843.973h-5.66V36.156h5.636c3.188 0 4.782 1.075 4.782 3.223zm-1.536 5.754c0-.696-.265-1.2-.797-1.512-.523-.32-1.394-.48-2.613-.48h-3.527v4.23h3.574c2.242 0 3.363-.746 3.363-2.238zm-.363-5.567c0-.625-.242-1.066-.726-1.324-.477-.265-1.204-.398-2.18-.398h-3.668v3.62h3.293c1.203 0 2.051-.148 2.543-.444.492-.297.738-.782.738-1.454z"
              fill="#224040"/>
        <path d="M209.184 105h-9.48l-5.318-20.625c-.197-.734-.537-2.247-1.02-4.539-.466-2.31-.734-3.858-.806-4.646-.107.967-.376 2.525-.806 4.673-.429 2.13-.761 3.653-.993 4.566L185.47 105h-9.453L166 65.737h8.191l5.022 21.431c.877 3.957 1.513 7.385 1.907 10.286.107-1.02.349-2.596.725-4.727.394-2.148.761-3.813 1.101-4.995l5.72-21.995h7.869l5.72 21.995c.251.985.564 2.489.94 4.512.376 2.023.662 3.76.859 5.21.179-1.397.466-3.133.86-5.21.393-2.095.752-3.787 1.074-5.076l4.995-21.43h8.191L209.184 105zm42.002 0h-8.191V87.463c0-4.332-1.612-6.499-4.834-6.499-2.292 0-3.948.78-4.969 2.337-1.02 1.557-1.53 4.082-1.53 7.573V105h-8.191V63.213h8.191v8.513c0 .662-.063 2.22-.188 4.673l-.188 2.417h.429c1.827-2.936 4.727-4.404 8.702-4.404 3.527 0 6.203.948 8.029 2.846 1.826 1.898 2.74 4.62 2.74 8.164V105zm27.5 0l-1.585-4.082h-.215c-1.378 1.737-2.802 2.945-4.27 3.625-1.45.663-3.348.994-5.693.994-2.883 0-5.156-.823-6.821-2.471-1.648-1.647-2.471-3.992-2.471-7.036 0-3.187 1.11-5.532 3.33-7.036 2.238-1.522 5.604-2.363 10.098-2.524l5.21-.161v-1.316c0-3.044-1.558-4.566-4.673-4.566-2.399 0-5.219.725-8.46 2.175l-2.712-5.532c3.455-1.808 7.287-2.712 11.494-2.712 4.028 0 7.117.877 9.265 2.632 2.149 1.754 3.223 4.422 3.223 8.003V105h-5.72zm-2.417-13.911l-3.169.107c-2.382.072-4.154.502-5.318 1.29-1.164.787-1.745 1.987-1.745 3.598 0 2.31 1.324 3.464 3.974 3.464 1.898 0 3.411-.546 4.539-1.638 1.146-1.092 1.719-2.542 1.719-4.35v-2.471zm29.245 7.922c1.432 0 3.151-.313 5.156-.94v6.096c-2.041.914-4.547 1.37-7.519 1.37-3.276 0-5.667-.823-7.171-2.471-1.486-1.665-2.229-4.153-2.229-7.465V81.126h-3.92V77.66l4.511-2.74 2.364-6.337h5.236v6.392h8.406v6.15h-8.406V95.6c0 1.163.323 2.023.967 2.578.663.555 1.531.832 2.605.832zm32.2-2.927c0 3.08-1.074 5.425-3.223 7.036-2.13 1.611-5.326 2.417-9.587 2.417-2.184 0-4.046-.152-5.586-.456a20.657 20.657 0 0 1-4.324-1.289v-6.768c1.522.716 3.232 1.316 5.13 1.8 1.915.483 3.598.724 5.048.724 2.972 0 4.458-.859 4.458-2.578 0-.644-.197-1.163-.59-1.557-.394-.412-1.075-.869-2.041-1.37-.967-.52-2.256-1.119-3.868-1.8-2.309-.966-4.01-1.861-5.102-2.685-1.074-.824-1.862-1.763-2.363-2.82-.484-1.074-.726-2.39-.726-3.948 0-2.667 1.03-4.726 3.089-6.176 2.077-1.468 5.013-2.202 8.808-2.202 3.617 0 7.135.787 10.555 2.363l-2.471 5.908a45.466 45.466 0 0 0-4.216-1.584 13.242 13.242 0 0 0-4.002-.618c-2.417 0-3.625.653-3.625 1.96 0 .734.385 1.37 1.154 1.907.788.537 2.498 1.334 5.13 2.39 2.345.95 4.064 1.835 5.156 2.659 1.092.823 1.898 1.772 2.417 2.847.519 1.074.779 2.354.779 3.84zM368.786 105l-2.847-9.346h-14.314L348.778 105h-8.969l13.857-39.424h10.178L377.755 105h-8.969zm-4.834-16.328a7614.908 7614.908 0 0 1-4.458-14.368 45.34 45.34 0 0 1-.699-2.632c-.59 2.292-2.282 7.959-5.075 17h10.232zm34.616 16.865c-3.527 0-6.293-1.28-8.298-3.84h-.43c.287 2.506.43 3.956.43 4.35v12.166h-8.191V74.976h6.66l1.155 3.894h.376c1.916-2.972 4.753-4.458 8.513-4.458 3.545 0 6.32 1.37 8.325 4.108 2.006 2.74 3.008 6.544 3.008 11.414 0 3.205-.474 5.989-1.423 8.352-.931 2.363-2.265 4.163-4.002 5.398-1.736 1.235-3.777 1.853-6.123 1.853zm-2.417-24.573c-2.023 0-3.5.627-4.431 1.88-.931 1.236-1.414 3.286-1.45 6.15v.886c0 3.223.474 5.533 1.423 6.93.967 1.396 2.489 2.094 4.566 2.094 3.67 0 5.505-3.026 5.505-9.077 0-2.954-.456-5.165-1.369-6.634-.896-1.486-2.31-2.229-4.244-2.229zm37.222 24.573c-3.527 0-6.293-1.28-8.298-3.84h-.43c.286 2.506.43 3.956.43 4.35v12.166h-8.191V74.976h6.66l1.155 3.894h.376c1.915-2.972 4.753-4.458 8.513-4.458 3.545 0 6.32 1.37 8.325 4.108 2.005 2.74 3.008 6.544 3.008 11.414 0 3.205-.475 5.989-1.423 8.352-.931 2.363-2.265 4.163-4.002 5.398-1.737 1.235-3.778 1.853-6.123 1.853zm-2.417-24.573c-2.023 0-3.5.627-4.431 1.88-.931 1.236-1.414 3.286-1.45 6.15v.886c0 3.223.474 5.533 1.423 6.93.967 1.396 2.489 2.094 4.565 2.094 3.671 0 5.506-3.026 5.506-9.077 0-2.954-.457-5.165-1.37-6.634-.895-1.486-2.309-2.229-4.243-2.229z"
              fill="#304848"/>
    </symbol>
    <symbol id="agonbyaoc-icon_yandex-map" viewBox="0 0 20 20">
        <path fill="#FFDF5E" d="M10.7 9.33L20 0 0 8.1l10.7 1.23z"/>
        <path fill="#FC0" d="M10.7 9.33L11.93 20 20 0l-9.3 9.33z"/>
        <path fill="#EBA704" d="M10.7 9.33L0 8.11l8.18 3.75L11.93 20 10.7 9.33z"/>
    </symbol>
    <symbol id="agonbyaoc-icon_yandex-money" viewBox="0 0 30 30">
        <path fill="#FFCF01"
              d="M7 13.93c0-1.13.1-1.84 2.55-3.58A616.1 616.1 0 0 0 18.06 4v8.2H23V24H8.54C7.7 24 7 23.34 7 22.53v-8.6z"/>
        <path fill="#D3AB07" d="M18.05 12.2v4.76L9 22.83l11.46-3.55V12.2h-2.4z"/>
        <path d="M13.91 11.96c.53-.6 1.3-.81 1.73-.47.43.33.34 1.1-.19 1.7-.53.6-1.3.81-1.73.48-.42-.35-.34-1.11.2-1.7z"/>
    </symbol>
    <symbol viewBox="0 0 714.38666 119.04" id="evnia">
        <defs id="evnia_defs6"></defs>
        <sodipodi:namedview id="evnia_namedview4" pagecolor="#ffffff" bordercolor="#666666" borderopacity="1.0"
                            inkscape:pageshadow="2" inkscape:pageopacity="0.0"
                            inkscape:pagecheckerboard="0"></sodipodi:namedview>
        <g id="evnia_g8" inkscape:groupmode="layer" inkscape:label="ink_ext_XXXXXX"
           transform="matrix(1.3333333,0,0,-1.3333333,0,119.04)">
            <g id="evnia_g10" transform="scale(0.1)">
                <path d="m 1891.27,892.797 c -27.12,0 -45.65,-11.602 -55.59,-34.797 l -286.6,-647.871 -236.82,537.676 c -28.42,65.324 48.85,65.324 85.88,65.324 v 59.238 h -358.46 v -59.238 c 28.5,0 107.96,0 135.78,-65.332 v 0 L 1485.81,43.1953 c 12.64,-28.7969 32.54,-43.19139375 59.66,-43.19139375 27.12,0 46.99,14.39449375 59.66,43.19139375 l 341.72,776.4067 c 2.71,6.386 4.06,13.195 4.06,20.402 0,14.394 -5.88,26.785 -17.62,37.195 -11.76,10.391 -25.77,15.598 -42.02,15.598"
                      style="fill:#050606;fill-opacity:1;fill-rule:nonzero;stroke:none" id="evnia_path12"/>
                <path d="m 3173.41,892.797 c -16.45,0 -30.63,-5.207 -42.52,-15.598 -11.88,-10.41 -17.82,-22.801 -17.82,-37.195 V 231.605 l -489.51,640.762 h -241.37 v -59.238 c 19.87,-0.254 95.01,0 95.01,-63.469 0,-107.469 0,-605.762 0,-605.762 0,-65.4566 -73.45,-64.9605 -95.01,-65.4566 V 17.9609 h 261.79 v 60.4805 c -21.58,0 -95,0 -95,64.0896 V 780.473 L 3124.71,29.6602 c 15.44,-19.76567 34.06,-29.65629375 55.89,-29.65629375 35.43,0 53.16,19.98049375 53.16,59.99999375 V 840.004 c 0,14.394 -5.95,26.785 -17.84,37.195 -11.88,10.391 -26.06,15.598 -42.51,15.598"
                      style="fill:#050606;fill-opacity:1;fill-rule:nonzero;stroke:none" id="evnia_path14"/>
                <path d="m 4005.98,854.398 c -14.47,12.793 -32.1,17.969 -52.88,17.969 h -151.88 v -59.238 h 36.62 c 20.78,0 38.4,-6.387 52.88,-19.141 14.45,-12.765 21.7,-28.312 21.7,-46.652 V 144.23 c 0,-18.339 -7.25,-33.894 -21.7,-46.648 -14.48,-12.7734 -32.1,-19.1406 -52.88,-19.1406 h -36.62 V 19.2031 h 151.88 c 20.78,0 38.41,6.3867 52.88,19.1992 14.45,12.7813 21.7,28.3868 21.7,46.7969 V 807.602 c 0,18.386 -7.25,33.992 -21.7,46.796"
                      style="fill:#050606;fill-opacity:1;fill-rule:nonzero;stroke:none" id="evnia_path16"/>
                <path d="m 4757.29,291.605 186.09,422.567 185.96,-422.567 z M 5353.57,73.1953 5011.86,849.602 c -12.67,28.8 -32.54,43.195 -59.67,43.195 H 4934.6 L 4596.42,120.59 c -0.01,0 -0.01,-0.012 -0.01,-0.012 C 4577.45,77.3672 4487.08,78.4414 4487.08,78.4414 V 64.6328 c 0,-4.2187 0,-7.6953 0,-10.664 V 38.3633 17.9609 h 291.55 V 38.5 h 0.01 c 0,0 0,0 0,26.2773 v 13.6641 c 0,0 -112.24,0 -99.92,33.3986 0.82,2.207 38.4,88.562 38.4,88.562 h 452.36 l 72.9,-165.6051 c 9.94,-22.3828 27.57,-33.59377 52.89,-33.59377 16.27,0 30.72,4.79687 43.39,14.39457 12.64,9.6015 18.98,21.6015 18.98,36.0078 0.89,6.3867 -0.47,13.5937 -4.07,21.5898"
                      style="fill:#050606;fill-opacity:1;fill-rule:nonzero;stroke:none" id="evnia_path18"/>
                <path d="m 574.27,773.957 c 15.343,0 28.441,4.805 39.281,14.406 10.836,9.598 16.25,21.192 16.25,34.793 0,13.594 -5.414,25.207 -16.25,34.805 -10.84,9.602 -23.938,14.406 -39.281,14.406 H 0.00390625 V 813.129 C 21.5352,813.129 95.0039,813.129 95.0039,747.816 V 143.754 c 0,-65.3126 -73.457,-64.8165 -94.99999375,-65.3126 V 17.9609 H 574.27 c 15.343,0 28.441,4.8047 39.281,14.4063 10.836,9.5976 16.25,21.1797 16.25,34.793 0,13.5937 -5.414,25.207 -16.25,34.8048 -10.84,9.601 -23.938,14.394 -39.281,14.394 H 210.133 v 279.602 h 338.394 c 15.356,0 28.45,4.805 39.278,14.402 10.84,9.602 16.261,21.184 16.261,34.797 0,13.594 -5.421,25.203 -16.261,34.805 -10.828,9.598 -23.922,14.394 -39.278,14.394 H 210.133 V 773.957 H 574.27"
                      style="fill:#050606;fill-opacity:1;fill-rule:nonzero;stroke:none" id="evnia_path20"/>
            </g>
        </g>
    </symbol>
</svg>